<?xml version="1.0" standalone="no"?>
<!DOCTYPE svg PUBLIC "-//W3C//DTD SVG 1.1//EN" "http://www.w3.org/Graphics/SVG/1.1/DTD/svg11.dtd" >
<svg>
<metadata>
Created by FontForge 20090622 at Wed Apr 27 08:10:13 2016
 By deploy user
Generated in 2011 by FontLab Studio. Copyright info pending.
</metadata>
<defs>
<font id="WisdomScriptAI" horiz-adv-x="491" >
  <font-face 
    font-family="Wisdom Script AI"
    font-weight="400"
    font-stretch="normal"
    units-per-em="1000"
    panose-1="0 0 0 0 0 0 0 0 0 0"
    ascent="750"
    descent="-250"
    x-height="500"
    cap-height="752"
    bbox="-316 -338.34 1486 1124"
    underline-thickness="50"
    underline-position="-50"
    unicode-range="U+0020-U+2022"
  />
<missing-glyph horiz-adv-x="500" 
 />
    <glyph glyph-name="W_i" unicode="Wi" horiz-adv-x="1178" 
d="M1141 613q0 25 15 41q-24 39 -66.5 24t-81.5 -82l-256 -448q-34 -60 -79.5 -99.5t-89 -52.5t-82.5 -10t-65 25.5t-33 56.5q-83 -89 -160 -81q-56 6 -73 58q-20 57 22 129l266 464q-34 -17 -88.5 -35l-98.5 -32.5t-87 -34t-67 -47.5t-24 -65q0 -23 13.5 -41t27.5 -25
l14 -7l-39 -67q-43 17 -75 54.5t-32 87.5q0 60 34 102t94 67.5t124 45t141 48t129 63.5l53 -91l-296 -513q-38 -66 -19 -96q17 -26 66 9q47 35 101 120l311 539h104l-350 -609q-26 -46 0 -64q26 -19 74 13q43 29 78 90l276 478q76 133 185 132q74 -1 124 -59q46 -53 29 -104
q-2 -7 -6 -14q-17 -30 -53 -30q-25 0 -42.5 17.5t-17.5 42.5zM1171 210l7 8q11 -5 22.5 -15.5t16.5 -20.5q-165 -192 -271 -192q-62 0 -83.5 45t12.5 103l209 362h104l-223 -389q-16 -31 -11.5 -44t23.5 -13q60 0 194 156z" />
    <glyph glyph-name="o_m" unicode="om" horiz-adv-x="1204" 
d="M1197 210l7 8q11 -5 22.5 -15.5t16.5 -20.5q-165 -192 -271 -192q-62 0 -83.5 45t12.5 103l135 235q26 44 5 55q-27 15 -100 -52q-65 -61 -144 -172l-117 -204h-106l215 373q25 44 5 55q-27 15 -100 -52q-63 -59 -140 -166l-121 -210h-105l131 227q-60 -25 -129 -25
l-47 -82q-39 -66 -94 -100.5t-109 -34.5q-52 0 -86 29.5t-34 81.5t37 116l74 130h33q-2 16 -2 26q0 54 44.5 105.5t113.5 51.5q73 0 110 -39.5t35 -98t-37 -120.5l-4 -7q96 8 159 80l4 4l90 156h104l-62 -108q94 118 179 118q44 0 64.5 -35.5t-3.5 -90.5q99 126 186 126
q47 0 66.5 -38.5t-10.5 -97.5l-150 -263q-16 -31 -11.5 -44t23.5 -13q60 0 194 156zM138 273l-69 -121q-18 -30 -18 -54q0 -19 12 -29.5t30 -10.5q21 0 44 14t38 40l60 103q-63 19 -97 58zM268 272l24 40q30 49 20 94.5t-54 46.5q-27 1 -45.5 -23t-18.5 -55q0 -74 74 -103z
" />
    <glyph glyph-name=".notdef" horiz-adv-x="500" 
 />
    <glyph glyph-name=".null" horiz-adv-x="0" 
 />
    <glyph glyph-name="nonmarkingreturn" horiz-adv-x="333" 
 />
    <glyph glyph-name="space" unicode=" " horiz-adv-x="305" 
 />
    <glyph glyph-name="exclam" unicode="!" horiz-adv-x="323" 
d="M14 50q0 26 17.5 43.5t42.5 17.5q26 0 43.5 -17.5t17.5 -43.5q0 -25 -17.5 -42.5t-43.5 -17.5t-43 17t-17 43zM184 152h-105l327 568h104z" />
    <glyph glyph-name="quotedbl" unicode="&#x22;" horiz-adv-x="354" 
d="M100 541l2 40h6q18 0 37.5 10t28.5 24q-23 4 -36.5 17.5t-13.5 32.5q0 27 16 41t37 14q23 0 41 -15t18 -41q0 -51 -41 -87t-88 -36h-7zM250 541l2 40h6q18 0 37.5 10t28.5 24q-23 4 -36.5 17.5t-13.5 32.5q0 27 16 41t37 14q23 0 41 -15t18 -41q0 -51 -41 -87t-88 -36h-7
z" />
    <glyph glyph-name="numbersign" unicode="#" horiz-adv-x="751" 
d="M417 0h-95l77 135h-125l-77 -135h-95l77 135h-140l40 70h140l58 100h-139l40 70h139l72 125h94l-72 -125h126l72 125h94l-72 -125h135l-40 -70h-135l-57 -100h133l-40 -70h-133zM371 305l-57 -100h125l58 100h-126z" />
    <glyph glyph-name="dollar" unicode="$" horiz-adv-x="425" 
d="M181 254q-30 56 -30 103q0 78 45 120t106 42q11 0 35 -4l59 103h78l-75 -131q49 -39 49 -99q0 -38 -20 -81h-87q23 40 23 73q0 29 -16.5 46.5t-39.5 17.5t-44 -21t-21 -58q0 -13 5 -28.5t9.5 -25t16 -29.5t15.5 -28q30 -56 30 -103q0 -78 -45 -120t-106 -42q-11 0 -29 2
l-49 -87h-78l62 109q-47 28 -62 78t10 110h87q-28 -42 -11.5 -89.5t64.5 -47.5q23 0 44 21t21 58q0 13 -5 28.5t-9.5 25t-16 29.5t-15.5 28z" />
    <glyph glyph-name="percent" unicode="%" horiz-adv-x="575" 
d="M-46 0h105l560 500h-104zM156 424q0 36 24.5 61t60.5 25t61 -25t25 -61t-25 -60.5t-61 -24.5t-60.5 24.5t-24.5 60.5zM256 74q0 36 24.5 61t60.5 25t61 -25t25 -61t-25 -60.5t-61 -24.5t-60.5 24.5t-24.5 60.5zM214 424q0 -11 8 -19t19 -8t19 8t8 19t-8 19t-19 8t-19 -8
t-8 -19zM314 74q0 -11 8 -19t19 -8t19 8t8 19t-8 19t-19 8t-19 -8t-8 -19z" />
    <glyph glyph-name="ampersand" unicode="&#x26;" horiz-adv-x="391" 
d="M-51 -96l55 97q-45 25 -52 77.5t35 133.5q60 106 145 122q-42 56 7 140q39 68 82.5 91.5t104.5 25.5l47 81h78l-54 -95q41 -23 53 -69.5t-14 -102.5h-102l9 15q36 61 11 93q-21 26 -61 4q-33 -18 -60 -64l-12 -21q-22 -45 -7.5 -69t47.5 -24l-28 -48q-92 0 -139 -79
l-35 -60q-35 -62 -3 -85q27 -20 67 3q26 14 42 42l20 35l103 1l-4 -8l-11 -20q-38 -65 -92 -99t-108 -36l-46 -81h-78z" />
    <glyph glyph-name="quotesingle" unicode="'" horiz-adv-x="175" 
d="M131 536l2 40h6q18 0 37.5 10t28.5 24q-23 4 -36.5 17.5t-13.5 32.5q0 27 16 41t37 14q23 0 41 -15t18 -41q0 -51 -41 -87t-88 -36h-7z" />
    <glyph glyph-name="parenleft" unicode="(" horiz-adv-x="378" 
d="M535 777l36 -26q-62 -28 -123.5 -77t-111.5 -108.5t-95 -129t-74.5 -138t-49.5 -135.5t-20 -121.5t13 -96.5l-55 -26q-31 63 -33.5 146t20 168.5t69.5 173t109 160.5t144.5 129t170.5 81z" />
    <glyph glyph-name="parenright" unicode=")" horiz-adv-x="470" 
d="M-65 -81l-40 26q62 28 124 77t112.5 108.5t95.5 129t75 138t50.5 135.5t20.5 121.5t-13 96.5l55 26q31 -63 33.5 -146t-20 -168.5t-69.5 -173t-109 -160.5t-144.5 -129t-170.5 -81z" />
    <glyph glyph-name="asterisk" unicode="*" horiz-adv-x="480" 
d="M233 690l59 -104l61 105h71l-79 -136h156l-35 -61h-121l60 -105l-53 -30l-60 105l-60 -104h-70l77 134h-155l35 61h121l-60 106z" />
    <glyph glyph-name="plus" unicode="+" horiz-adv-x="545" 
d="M220 63h-95l95 165h-155l40 70h156l85 146h94l-85 -146h158l-40 -70h-158z" />
    <glyph glyph-name="comma" unicode="," horiz-adv-x="126" 
d="M14 -74l2 40h6q18 0 37.5 10t28.5 24q-23 4 -36.5 17.5t-13.5 32.5q0 27 16 41t37 14q23 0 41 -15t18 -41q0 -51 -41 -87t-88 -36h-7z" />
    <glyph glyph-name="hyphen" unicode="-" horiz-adv-x="519" 
d="M65 228l40 70h358l-40 -70h-358z" />
    <glyph glyph-name="period" unicode="." horiz-adv-x="241" 
d="M26 47q0 24 16.5 41t40.5 17t41 -17t17 -41t-17 -40.5t-41 -16.5t-40.5 16.5t-16.5 40.5z" />
    <glyph glyph-name="slash" unicode="/" horiz-adv-x="570" 
d="M59 0h-105l782 699h104z" />
    <glyph glyph-name="zero" unicode="0" horiz-adv-x="435" 
d="M26 212l45 77l51 89q43 75 91 105.5t111 30.5q49 0 82 -30.5t37 -78t-26 -103.5l-105 -182q-59 -103 -156 -128q-79 -22 -130 20q-57 48 -27 141q9 29 27 59zM177 289l-79 -137q-35 -62 -3 -85q27 -20 67 3q26 14 42 42l133 229q36 61 11 93q-21 26 -61 4
q-33 -18 -60 -64z" />
    <glyph glyph-name="one" unicode="1" horiz-adv-x="343" 
d="M124 355l-22 65l21 7t22 7.5l20 7.5t21 8.5t19 8t21 9.5t19 10t20.5 12l19 13t20.5 15l40 -91l-206 -357h92l-40 -70h-271l40 70h86l189 327q-42 -23 -111 -42z" />
    <glyph glyph-name="two" unicode="2" horiz-adv-x="467" 
d="M-31 67q84 19 143.5 45t121.5 81.5t112 140.5q35 59 10 91q-21 26 -60 5q-32 -17 -58 -60l-29 -46h-106l39 68q54 96 148 113q77 14 128 -31q57 -51 28 -136q-7 -20 -18 -40q-51 -92 -125.5 -148.5t-150.5 -82.5h183l-39 -67h-366z" />
    <glyph glyph-name="three" unicode="3" horiz-adv-x="458" 
d="M154 172l39 67q58 0 92 18t58 60q29 52 25.5 86.5t-36.5 34.5q-48 0 -91 -73l-21 -36h-106l27 49q43 75 91 105.5t111 30.5q41 0 69.5 -20.5t39.5 -51.5t7 -69t-23 -71q-33 -58 -70.5 -86t-88.5 -37q26 -36 28 -82.5t-28 -104.5q-82 -142 -231 -142q-61 0 -93.5 40
t-28.5 94.5t39 98.5h98q-42 -50 -42 -110q0 -37 34 -48q46 -15 96 36q20 21 38 51q37 68 25 114t-58 46z" />
    <glyph glyph-name="four" unicode="4" horiz-adv-x="463" 
d="M-65 0l-22 65q129 100 257 213t192 176l63 64l40 -91l-206 -357h103l-40 -70h-103l-80 -140h-92l80 140h-192zM322 338q-143 -152 -291 -268h136z" />
    <glyph glyph-name="five" unicode="5" horiz-adv-x="429" 
d="M124 207l-7 7l-44 42l142 244h269l-46 -80h-180l-65 -114q5 1 17 1q49 0 81.5 -30.5t36.5 -77.5t-25 -104l-71 -126q-55 -98 -152 -115q-78 -15 -130 29q-57 47 -31 124q5 17 15 34l23 41h102l-38 -68q-34 -60 -2 -83q27 -20 71 5q31 19 51 54l82 144q16 28 18 53.5
t-9 39.5t-27.5 19t-38.5 -5t-42 -34z" />
    <glyph glyph-name="six" unicode="6" horiz-adv-x="448" 
d="M490 494l-74 -5q9 43 -25 52q-37 10 -79 -26q-18 -16 -31 -39l-20 -35q19 6 44 6q49 0 77.5 -30t28 -79t-30.5 -103l-71 -126q-55 -98 -150 -116q-76 -13 -125 30q-55 48 -27 126q5 16 14 32l23 41l156 275q55 97 143 116q72 15 116 -29q35 -34 31 -90zM198 331l-62 -109
l-38 -68q-34 -60 -2 -83q27 -20 71 5q31 19 51 54l82 144q16 28 17.5 53t-10 38t-28.5 17t-39.5 -9.5t-41.5 -41.5z" />
    <glyph glyph-name="seven" unicode="7" horiz-adv-x="385" 
d="M67 419l46 81h290l45 -73l-27 -27.5t-67.5 -76.5l-99.5 -121t-114 -155.5t-118 -186.5h-102q168 283 409 559h-262z" />
    <glyph glyph-name="eight" unicode="8" horiz-adv-x="438" 
d="M324 120q-59 -103 -155 -129q-80 -21 -130 21q-58 48 -27 143q9 27 26 57l20 35q57 101 150 118q-6 17 -6 37q0 44 31 96q35 62 74.5 87t91.5 25q42 0 69 -27.5t27 -71.5q0 -43 -27 -90q-45 -75 -112 -100q46 -63 -3 -150zM123 175l-13 -23q-35 -62 -3 -85q27 -20 67 3
q26 14 42 42l57 98q36 61 11 93q-21 26 -61 4q-33 -18 -60 -64zM330 497l-38 -67q-22 -38 1 -57q21 -16 49 5q12 9 21 25l41 72q26 44 4 65q-19 18 -49 -7q-16 -13 -29 -36z" />
    <glyph glyph-name="nine" unicode="9" horiz-adv-x="447" 
d="M-52 6l74 5q-9 -43 25 -52q37 -10 79 26q18 16 31 39l20 35q-21 -6 -44 -6q-67 0 -88.5 64.5t23.5 147.5l71 126q55 97 149 115q75 15 125 -28q55 -48 28 -126q-6 -16 -15 -33l-23 -41l-156 -275q-54 -96 -145 -115q-75 -16 -122 28q-36 34 -32 90zM240 169l62 109l38 68
q34 60 2 83q-27 20 -71 -5q-31 -19 -51 -54l-82 -144q-21 -36 -24 -64t9 -39.5t31 -12.5t43 15t43 44z" />
    <glyph glyph-name="colon" unicode=":" horiz-adv-x="374" 
d="M14 47q0 24 16.5 41t40.5 17t41 -17t17 -41t-17 -40.5t-41 -16.5t-40.5 16.5t-16.5 40.5zM214 357q0 24 16.5 41t40.5 17t41 -17t17 -41t-17 -40.5t-41 -16.5t-40.5 16.5t-16.5 40.5z" />
    <glyph glyph-name="semicolon" unicode=";" horiz-adv-x="355" 
d="M14 -74l2 40h6q18 0 37.5 10t28.5 24q-23 4 -36.5 17.5t-13.5 32.5q0 27 16 41t37 14q23 0 41 -15t18 -41q0 -51 -41 -87t-88 -36h-7zM194 326q0 24 16.5 41t40.5 17t41 -17t17 -41t-17 -40.5t-41 -16.5t-40.5 16.5t-16.5 40.5z" />
    <glyph glyph-name="less" unicode="&#x3c;" horiz-adv-x="535" 
d="M9 213l35 62l523 235l-56 -100l-393 -187l190 -163l-40 -70z" />
    <glyph glyph-name="equal" unicode="=" horiz-adv-x="490" 
d="M60 153l40 70h268l-40 -70h-268zM133 278l40 70h268l-40 -70h-268z" />
    <glyph glyph-name="greater" unicode="&#x3e;" horiz-adv-x="535" 
d="M526 287l-35 -62l-523 -235l56 100l393 187l-190 163l40 70z" />
    <glyph glyph-name="question" unicode="?" horiz-adv-x="489" 
d="M223 152h-105l99 172l8 15q194 91 236 212q24 70 -10 100q-33 27 -83 -7q-59 -39 -100 -140l-80 14q33 130 133 191q81 51 154 28q72 -23 85 -104q2 -15 2 -31q0 -79 -73.5 -162t-187.5 -149h1zM53 47q0 24 16.5 41t40.5 17t41 -17t17 -41t-17 -40.5t-41 -16.5
t-40.5 16.5t-16.5 40.5z" />
    <glyph glyph-name="at" unicode="@" horiz-adv-x="867" 
d="M239 -150q-184 39 -249 183q-58 126 -7 280q50 148 176 239q150 109 341 83q81 -11 139 -45t86.5 -81.5t37.5 -104.5t-3 -114.5t-41 -111.5t-70.5 -96t-97.5 -67t-116 -25q-39 0 -62.5 18.5t-27.5 49.5q-83 -68 -144 -68q-62 0 -83.5 45t12.5 103l146 252q32 55 83 87.5
t95 32.5q48 0 80 -34.5t29 -70.5h59l-168 -294q-16 -31 -11.5 -44t23.5 -13q55 0 105 35.5t82.5 89t44 119t-2 124t-64.5 105t-135 61.5q-159 28 -296 -80q-111 -88 -155 -220q-47 -145 16 -252q59 -98 199 -129q51 -11 100 -11.5t94 10t86 26.5t81 42.5t73 51.5t68.5 59.5
t61 62l56.5 62.5l7 8q11 -5 22.5 -15.5t16.5 -20.5q-56 -68 -114 -123t-127.5 -103.5t-139 -75.5t-149 -38t-157.5 8zM365 364l-145 -253q-16 -31 -11.5 -44t23.5 -13q34 0 78 37t90 109l81 142q28 52 -1 75q-27 21 -67 -3q-29 -16 -48 -50z" />
    <glyph glyph-name="A" unicode="A" horiz-adv-x="994" 
d="M987 210l7 8q11 -5 22.5 -15.5t16.5 -20.5q-54 -63 -86.5 -97t-77 -64.5t-80.5 -30.5t-53 21.5t-16.5 54t14.5 72.5l37 106h-140q-90 -120 -176 -187t-185 -67q-64 0 -116 24t-83.5 66t-45 95t-2 116.5t47.5 125.5q55 95 148.5 134.5t181.5 10t127 -120.5l-83 -32
q-24 59 -77 78t-114.5 -11t-104.5 -104q-30 -52 -37.5 -104.5t7 -94t54 -67.5t97.5 -26q54 0 113.5 39t113.5 100t110 133.5l110 142t105 124t104.5 81t99.5 11.5l-206 -600q-7 -21 -8.5 -32t1 -15t10.5 -4q14 0 61 43t103 107zM892 589q-26 -27 -57 -65.5t-53 -69
l-58.5 -82l-55.5 -78.5h120z" />
    <glyph glyph-name="B" unicode="B" horiz-adv-x="759" 
d="M146 472l42 -53q-75 -48 -90 -143t40 -169q21 26 40 59l280 484q34 59 80.5 90.5t91.5 31.5q99 0 134 -72q32 -65 -8 -142q-44 -86 -145 -120q48 -32 71.5 -83.5t21 -107t-28.5 -112.5t-69.5 -101.5t-109 -73t-140.5 -28.5q-87 0 -156.5 30.5t-109 78.5t-57.5 109
t-11 120.5t39 113.5t85 88zM354 12q117 0 190 91q63 77 55 167q-7 96 -91 136q-22 10 -49 16l-28 3l-175 -303q-26 -43 -52 -74q64 -36 150 -36zM550 630l-84 -144q82 2 129 23.5t76 76.5t4 92q-22 33 -60 17q-35 -14 -65 -65z" />
    <glyph glyph-name="C" unicode="C" horiz-adv-x="538" 
d="M186 371l162 279q34 59 80.5 90.5t91.5 31.5q59 0 98.5 -43t39.5 -112q0 -66 -42 -140q-58 -101 -143.5 -150.5t-175.5 -49.5q-27 0 -59 5l-29 -51q-43 -79 -24 -128t76 -49q136 0 270 156l7 8q28 -8 39 -36q-50 -58 -93 -96t-109 -67t-139 -29q-71 0 -112 41t-40 100
t35 125l31 54q-62 32 -96.5 88t-34.5 119q0 117 107 194l34 -61q-67 -52 -67 -131q0 -45 24 -85t69 -63zM276 346h21q76 0 143 48.5t102 110.5t35 113q0 64 -57 64q-50 0 -94 -76z" />
    <glyph glyph-name="D" unicode="D" horiz-adv-x="937" 
d="M274 89l11 20l301 520q-2 0 -7 0.5t-8 0.5q-59 0 -109.5 -20.5t-81.5 -53t-48 -71.5t-12.5 -78.5t28.5 -70.5l-60 -54q-39 35 -51.5 90t5.5 112.5t57.5 108.5t110 83.5t157.5 32.5q215 0 302 -146q70 -118 35 -283q-32 -156 -138 -261q-107 -107 -243 -107
q-44 0 -86.5 12t-66 23.5t-61.5 33.5q-66 -83 -167 -83q-61 0 -95 31t-34 75q0 46 38.5 80.5t107.5 34.5q53 0 115 -30zM521 -8q63 0 121 39t98 99t61 134t18 142t-38.5 125t-102.5 81l-326 -566q93 -54 169 -54zM154 -22q31 0 49 10t33 32q-47 19 -87 19q-21 0 -33 -9
t-12 -21q0 -13 13 -22t37 -9z" />
    <glyph glyph-name="E" unicode="E" horiz-adv-x="683" 
d="M475 237l61 43q47 -55 47.5 -125.5t-36 -129t-104 -99t-145.5 -40.5q-121 0 -202 72t-81 192q0 147 106.5 245t246.5 93q-20 40 -20 81q0 79 50 131.5t126 52.5q71 0 120 -40.5t49 -109.5q0 -36 -15.5 -67.5t-30.5 -45.5l-15 -13l-56 59q2 0 10 7t17 25t9 40q0 53 -46 71
q-45 19 -87 -12q-44 -32 -44 -101q0 -32 15.5 -58t27 -35.5t22.5 -15.5q0 -1 2 -1l-31 -54q-15 5 -33 14q-75 27 -153.5 -1.5t-130 -100.5t-51.5 -162q0 -83 61 -135t141 -52q53 0 100 28t70.5 69.5t27.5 88.5t-28 86z" />
    <glyph glyph-name="F" unicode="F" horiz-adv-x="757" 
d="M346 513h-89q-1 6 -1 18q0 60 41.5 100.5t96.5 55.5t118 15q8 0 43.5 -0.5t47 0t42 2t47 4.5t41.5 8.5t46 14.5t41 21l54 -91h-1l-166 -288h86l-27 -50h-88l-117 -203q-62 -108 -143 -159t-165 -51q-100 0 -169.5 62.5t-69.5 150.5q0 94 72 160.5t167 66.5v-79
q-63 0 -108.5 -41.5t-45.5 -102.5q0 -57 44.5 -94t108.5 -37q60 0 117.5 35.5t99.5 108.5l105 183h-99l27 50h100l155 269q-20 -8 -47.5 -12.5t-42.5 -5t-55 0t-48 0.5q-218 0 -218 -105v-7z" />
    <glyph glyph-name="G" unicode="G" horiz-adv-x="664" 
d="M189 371l162 279q34 59 80.5 90.5t91.5 31.5q126 0 160 -90q31 -81 -24 -187q-57 -110 -170 -171q-88 -47 -189 -47q-27 0 -59 5l-29 -51q-46 -79 -39 -128t61 -49q105 0 199 166l11 18h104l-132 -226q110 47 241 198l7 8q11 -5 22.5 -15.5t16.5 -20.5
q-162 -188 -328 -240l-80 -137q-22 -37 -52.5 -59.5t-60.5 -27t-56 2t-42.5 27.5t-16.5 50q0 108 228 178l27 47q-53 -33 -113 -33q-70 0 -103 40.5t-27 101t43 124.5l31 54q-62 32 -96.5 88t-34.5 119q0 117 107 194l34 -61q-67 -52 -67 -131q0 -45 24 -85t69 -63zM279 346
h21q135 0 227 99q67 72 72 149q4 69 -49 84q-12 4 -27 4q-50 0 -94 -76zM151 -183q0 -14 9.5 -20t23.5 0.5t24 24.5l47 84q-104 -40 -104 -89z" />
    <glyph glyph-name="H" unicode="H" horiz-adv-x="1109" 
d="M846 0h-105l186 323h-156l-67 -117q-124 -215 -303 -267q-136 -39 -253 27q-98 56 -128 157q-31 104 30 209q20 34 45 59t47 37t41.5 19.5t30.5 8.5l11 1l19 -77q-8 -2 -21.5 -7t-44 -28.5t-49.5 -55.5q-54 -92 -6 -175q40 -71 129 -91q118 -25 234 62q79 60 140 167
l211 366q-42 -21 -121.5 -41.5t-137.5 -43t-79 -58.5q-21 -43 -12.5 -70.5t29.5 -40.5l22 -13l-39 -67q-28 11 -51.5 31t-40.5 48.5t-15.5 67.5t25.5 81q24 41 66 67t94 40.5t106.5 27.5t117.5 39.5t113 65.5l53 -91l-167 -288h156l148 255q35 60 77 93.5t79 39t70.5 -4
t55.5 -31.5t29 -48l-69 -38q-15 34 -40.5 41.5t-56.5 -14t-59 -70.5z" />
    <glyph glyph-name="I" unicode="I" horiz-adv-x="502" 
d="M207 351l-39 -67q-28 11 -51.5 31t-40.5 48.5t-15.5 67.5t25.5 81q24 41 66 67t94 40.5t106.5 27.5t117.5 39.5t113 65.5l53 -91l-523 -911h-107l500 868q-42 -21 -121.5 -41.5t-137.5 -43t-79 -58.5q-21 -43 -12.5 -70.5t30.5 -40.5z" />
    <glyph glyph-name="J" unicode="J" horiz-adv-x="680" 
d="M294 163l48 -47q-21 -37 -61.5 -58.5t-85.5 -21.5q-78 0 -124 50t-46 123q0 28 5 53.5t19 48t26 39.5t37.5 36.5l41 31t51 29.5l51.5 26t58 27.5l57 26.5q12 6 65.5 31l72.5 34t64 32.5t70.5 39.5t59.5 40t61 48l59 -68l-392 -672q111 47 242 198l7 8q11 -5 22.5 -15.5
t16.5 -20.5q-161 -188 -329 -240l-79 -137q-22 -37 -52.5 -59.5t-60.5 -27t-56 2t-42.5 27.5t-16.5 50q0 110 229 178l359 625l-32.5 -23.5t-38.5 -24l-35 -19.5t-42.5 -21l-37.5 -18t-43.5 -19.5t-38.5 -17.5l-61.5 -26.5t-62.5 -27.5t-53.5 -27t-50 -31.5t-36 -35
t-26.5 -44.5t-8 -52q0 -47 26.5 -76.5t66.5 -29.5q57 0 96 55zM167 -183q0 -14 9.5 -20t23.5 0.5t24 24.5l48 84q-105 -40 -105 -89z" />
    <glyph glyph-name="K" unicode="K" horiz-adv-x="1061" 
d="M1031 526l42 73q34 60 76 94t79.5 39t71 -4.5t55.5 -31.5t29 -48l-69 -38q-11 25 -29 36t-39 6.5t-44 -26.5t-44 -59l-43 -76q-43 -77 -89.5 -118.5t-123.5 -45.5q79 -80 -2 -221l-154 -267q-14 -18 -12 -49t26 -43l-44 -76q-41 21 -59.5 58t-14.5 76.5t26 77.5l154 267
q72 126 -35 188l-76 -132q-124 -215 -303 -267q-136 -39 -253 27q-98 56 -128 157q-31 104 30 209q20 34 45 59t47 37t41.5 19.5t30.5 8.5l11 1l19 -77q-8 -2 -21.5 -7t-44 -28.5t-49.5 -55.5q-54 -92 -6 -175q40 -71 129 -91q118 -25 234 62q79 60 140 167l211 366
q-42 -21 -121.5 -41.5t-137.5 -43t-79 -58.5q-21 -43 -12.5 -70.5t29.5 -40.5l22 -13l-39 -67q-28 11 -51.5 31t-40.5 48.5t-15.5 67.5t25.5 81q24 41 66 67t94 40.5t106.5 27.5t117.5 39.5t113 65.5l53 -91l-155 -269q119 -26 211 134z" />
    <glyph glyph-name="L" unicode="L" horiz-adv-x="766" 
d="M346 711l34 -61q-67 -52 -67 -131q0 -45 24 -85t69 -63l162 279q34 59 80.5 90.5t91.5 31.5q59 0 98.5 -43t39.5 -112q0 -66 -42 -140q-58 -101 -143.5 -150.5t-175.5 -49.5q-27 0 -59 5l-92 -160q-8 -14 -28 -43l58 -61q107 -108 161.5 -149.5t109.5 -41.5q86 0 144 57
l51 -54q-2 -3 -7 -9t-23 -20.5t-38.5 -26t-55.5 -20.5t-73 -9q-35 0 -72.5 13.5t-66 31t-67 51t-60 55.5l-61.5 65t-56 59q-78 -65 -165 -65q-70 0 -108.5 38.5t-38.5 91.5t37.5 92t104.5 39q81 0 162 -73q3 4 8 12.5t6 10.5l83 144q-63 32 -97.5 87.5t-34.5 119.5
q0 117 107 194zM646 606l-150 -260h21q76 0 143 48.5t102 110.5t35 113q0 64 -57 64q-50 0 -94 -76zM107 35q64 0 113 44q-67 57 -118 57q-25 0 -40 -15.5t-15 -36.5q0 -20 15.5 -34.5t44.5 -14.5z" />
    <glyph glyph-name="M" unicode="M" horiz-adv-x="935" 
d="M574 -29l358 622q26 44 5 55q-27 15 -99 -52q-66 -61 -146 -173l-1 -1l-242 -422h-106l342 593q25 44 5 55q-27 15 -101 -53q-63 -58 -138 -163l-248 -432h-107l356 618q-42 -21 -121.5 -41.5t-137 -43t-78.5 -58.5q-21 -43 -12.5 -70.5t29.5 -40.5l22 -13l-39 -67
q-28 11 -51.5 31t-40.5 48.5t-15.5 67.5t25.5 81q24 41 66 67t94 40.5t106.5 27.5t117.5 39.5t113 65.5l53 -91l-28 -49q94 118 179 118q44 0 64.5 -35.5t-3.5 -90.5q99 126 186 126q47 0 66.5 -38.5t-10.5 -97.5l-385 -667q-14 -18 -12 -49t26 -43l-44 -76q-41 21 -59.5 58
t-14.5 76.5t26 77.5z" />
    <glyph glyph-name="N" unicode="N" horiz-adv-x="1107" 
d="M857 0h-105l75 495l-96 -168q-152 -263 -339 -329q-137 -49 -247 21q-92 59 -118 168q-27 118 39 233q34 59 87.5 99t112.5 52.5t116 5.5t103 -43t67 -93l-73 -38q-25 61 -87.5 80t-130 -9t-104.5 -92q-64 -111 -22 -205q33 -76 115 -97q108 -29 223 55q91 66 163 192
l226 393h104l-76 -498l235 406q35 60 76 93.5t76.5 39t67.5 -4t53 -31.5t28 -48l-69 -38q-15 34 -40.5 41.5t-56.5 -14t-59 -70.5z" />
    <glyph glyph-name="O" unicode="O" horiz-adv-x="566" 
d="M228 500h51q-10 74 36 152q65 114 170 132q85 15 145 -37q65 -56 49 -147q-7 -38 -30 -78l-80 -139q89 17 168 88l29 -57q-107 -98 -237 -100l-111 -194q-75 -130 -189 -168q-92 -32 -156 11q-66 44 -53 137q8 53 42 112zM434 328q-95 30 -136 109l-164 -285
q-47 -81 -8 -117q32 -29 89 -7q59 22 95 84zM396 614q-43 -88 -20.5 -148t92.5 -80l101 175q39 67 8 115q-25 40 -73 32q-63 -10 -108 -94z" />
    <glyph glyph-name="P" unicode="P" horiz-adv-x="662" 
d="M119 0h-105l405 700h104l-187 -325q34 -39 87.5 -48t112 21.5t97.5 98.5q81 139 25 244q-40 75 -130 96q-102 23 -190 -39q-50 -36 -83 -94q-16 -29 -28 -59.5t-15 -46.5l-4 -16l-71 11q7 77 49 150q80 138 222 166q121 24 228 -40q103 -62 127 -172t-45 -231
q-41 -72 -99.5 -112t-115 -44.5t-108 14t-86.5 56.5z" />
    <glyph glyph-name="Q" unicode="Q" horiz-adv-x="739" 
d="M263 268l-14 -69q-83 7 -124 67t-36 139t46 150q98 168 245 216q123 39 223 -19q98 -56 119 -173q24 -135 -70 -297q-43 -76 -106.5 -142t-137.5 -111l43.5 -40t46.5 -42l42.5 -36t46.5 -35t42.5 -24.5t46.5 -19t44 -5.5q86 0 144 57l51 -54q-2 -3 -7 -9t-23 -20.5
t-38.5 -26t-55.5 -20.5t-73 -9q-35 0 -72.5 12.5t-65.5 27.5t-67 46t-59.5 50l-61.5 58l-56 53q-87 -37 -166 -37q-69 0 -108 31.5t-39 74.5t37.5 74t104.5 31q74 0 172 -76q66 39 124.5 101.5t99.5 132.5q103 178 57 291q-31 74 -113 87q-91 15 -178 -54q-52 -40 -89 -104
q-36 -63 -48.5 -114.5t-3 -83.5t29 -51t47.5 -27zM160 35q47 0 101 19q-60 42 -106 42q-25 0 -39.5 -9t-14.5 -21q0 -13 15.5 -22t43.5 -9z" />
    <glyph glyph-name="R" unicode="R" horiz-adv-x="664" 
d="M119 0h-105l390 675h104l-153 -265q92 -40 169 -5.5t119 121.5q46 94 -5 162t-144 68q-50 0 -89.5 -19t-60.5 -46t-34.5 -53.5t-17.5 -45.5l-4 -19l-88 14l3 14.5t11 36.5t21.5 51.5t36 54.5t53 51.5t73.5 36t96 14.5q163 0 230 -108q53 -87 22 -200q-31 -109 -123 -168
q-67 -42 -149 -43q77 -82 -3 -221l-154 -267q-14 -18 -12 -49t26 -43l-44 -76q-41 21 -59.5 58t-14.5 76.5t26 77.5l154 267q82 142 -62 201l-8 3z" />
    <glyph glyph-name="S" unicode="S" horiz-adv-x="880" 
d="M10 53l31 39q64 -44 147 -27q-17 46 -18 96t16 96t47.5 83.5t80 59.5t109.5 22q80 0 137 -55l147 144q10 161 53 241.5t136 80.5q49 0 73.5 -30t13 -78.5t-61.5 -96.5l-120 -118q-4 -65 -4 -173q0 -190 -88 -316t-246 -126q-164 0 -244 113q-126 -31 -209 45zM393 111
q-45 -43 -90 -68q55 -65 160 -65q115 0 177 99.5t62 259.5v77l-102 -101q30 -54 20.5 -119t-60.5 -106l-43 44q65 62 35 135zM423 351q-49 0 -87.5 -24.5t-56 -62t-22.5 -82t13 -85.5q37 23 68 52l174 171q-39 31 -89 31zM880 754q-50 0 -70 -141l42 41q63 60 49 89
q-6 11 -21 11z" />
    <glyph glyph-name="T" unicode="T" horiz-adv-x="653" 
d="M86 202l56 -54q-53 -54 -33.5 -105t92.5 -51q99 0 184 148l296 517q-73 -39 -161 -39q-14 0 -58 2t-56 2q-65 0 -107.5 -33t-42.5 -76q0 -53 50 -81l-51 -64q-41 22 -62 58t-21 77q0 87 71.5 143t184.5 56q11 0 51.5 -0.5t52.5 -0.5q49 0 100 12.5t78 25.5l26 13l54 -91
h-1l-312 -541q-122 -210 -288 -210q-57 0 -100.5 29t-61 72t-3.5 95.5t62 95.5z" />
    <glyph glyph-name="U" unicode="U" horiz-adv-x="774" 
d="M767 210l7 8q11 -5 22.5 -15.5t16.5 -20.5q-165 -192 -271 -192q-41 0 -65 20.5t-26 53.5q-41 -35 -82.5 -53t-75.5 -18.5t-58 17t-33 49t3.5 82t47.5 111.5l222 386q-34 -17 -89 -35l-99 -32.5t-86.5 -34t-66.5 -47.5t-24 -65q0 -23 14 -41t28 -25l13 -7l-39 -67
q-43 17 -75 54.5t-32 87.5q0 60 34 102t94 67.5t124 45t141 48t129 63.5l53 -91l-263 -455q-55 -94 -23 -128q25 -28 84 4q60 33 111 111l304 527h104l-350 -609q-16 -31 -11.5 -44t23.5 -13q60 0 194 156z" />
    <glyph glyph-name="V" unicode="V" horiz-adv-x="699" 
d="M380 0h-93l185 647q-34 -19 -89 -38l-101.5 -34t-91 -34.5t-70.5 -49t-26 -67.5q0 -46 32 -68.5t74.5 -11.5t70.5 52l48 -47q-21 -37 -61.5 -58.5t-85.5 -21.5q-83 0 -128 65q-45 66 -16 144q36 99 174 147q17 6 35 11q183 51 281 116l59 -68l-130 -451l271 395
q40 56 83.5 88.5t80 38.5t68.5 -2.5t52 -29t27 -46.5l-69 -38q-23 51 -64.5 39.5t-91.5 -82.5z" />
    <glyph glyph-name="W" unicode="W" horiz-adv-x="936" 
d="M1023 596l-256 -448q-34 -60 -79.5 -99.5t-89 -52.5t-82.5 -10t-65 25.5t-33 56.5q-83 -89 -160 -81q-56 6 -73 58q-20 57 22 129l266 464q-34 -17 -88.5 -35l-98.5 -32.5t-87 -34t-67 -47.5t-24 -65q0 -23 14 -41t28 -25l13 -7l-39 -67q-43 17 -75 54.5t-32 87.5
q0 60 34 102t94 67.5t124 45t141 48t129 63.5l53 -91l-296 -513q-38 -66 -19 -96q17 -26 66 9q47 35 101 120l311 539h104l-350 -609q-26 -46 0 -64q26 -19 74 13q43 29 78 90l276 478q35 60 77 93.5t79 39t70.5 -4t55.5 -31.5t29 -48l-69 -38q-15 34 -40.5 41.5t-56.5 -14
t-59 -70.5z" />
    <glyph glyph-name="X" unicode="X" horiz-adv-x="768" 
d="M303 125l183 207l34 311q-33 -15 -91 -34l-102 -34.5t-88 -36.5t-68.5 -50t-24.5 -64q0 -46 32 -68.5t74.5 -11.5t70.5 52l48 -47q-21 -37 -61.5 -58.5t-85.5 -21.5q-83 0 -128 65q-45 66 -16 144q36 99 174 147q17 6 35 11q183 51 281 116l59 -68l-24 -202l-8 -33l19 29
l150 167q48 53 101 75t94.5 13.5t70.5 -35.5t35 -66l-75 -23q-8 36 -32 48.5t-59.5 -2.5t-73.5 -57l-241 -269l-24 -206q-7 -58 30 -54q47 6 127 92q23 24 42 49l7 8q11 -5 22.5 -15.5t16.5 -20.5q-66 -92 -159 -151q-108 -69 -157 -27q-38 34 -26 134l5 46l5 24l-14 -21
l-97 -109q-47 -54 -100.5 -76t-94.5 -13.5t-70.5 36t-35.5 66.5l75 23q8 -36 32.5 -48.5t60 2.5t72.5 57z" />
    <glyph glyph-name="Y" unicode="Y" horiz-adv-x="742" 
d="M512 218l1 -1l287 502h104l-411 -707q111 47 242 198l7 8q11 -5 22.5 -15.5t16.5 -20.5q-161 -188 -329 -240l-79 -137q-22 -37 -52.5 -59.5t-60.5 -27t-56 2t-42.5 27.5t-16.5 50q0 110 229 178l35 60q-57 -38 -109 -42t-81.5 22.5t-25 89t53.5 146.5l222 386
q-34 -17 -89 -35l-99 -32.5t-86.5 -34t-66.5 -47.5t-24 -65q0 -23 14 -41t28 -25l13 -7l-39 -67q-43 17 -75 54.5t-32 87.5q0 60 34 102t94 67.5t124 45t141 48t129 63.5l53 -91l-263 -455q-55 -95 -22 -129q26 -27 85 6q70 40 124 135zM229 -183q0 -14 9.5 -20t23.5 0.5
t24 24.5l48 84q-105 -40 -105 -89z" />
    <glyph glyph-name="Z" unicode="Z" horiz-adv-x="620" 
d="M194 33l1 1l-7 62q72 13 145.5 61t129 112.5t90.5 140.5t35 142q0 81 -58 107q-59 27 -131 -22q-101 -69 -145 -240q-20 -78 -24 -172l-74 -7q-17 246 107 401q84 105 199 127q105 21 170 -42q56 -54 56 -153q0 -138 -106 -285.5t-276 -206.5l-4 -1q28 -23 32 -59
q71 22 136.5 72.5t142.5 138.5l7 8q11 -5 22.5 -15.5t16.5 -20.5q-164 -189 -331 -241q-5 -17 -18 -41l-55 -96q-21 -37 -52 -59.5t-61.5 -27t-57.5 2.5t-44 28t-17 50q0 110 231 179q12 25 -7.5 41.5t-49.5 14.5h-2h-1zM107 -183q0 -14 9.5 -20t23 0.5t24.5 24.5l49 84
q-106 -41 -106 -89z" />
    <glyph glyph-name="bracketleft" unicode="[" horiz-adv-x="525" 
d="M-113 -182l626 1084h226l-47 -82h-122l-531 -920h121l-47 -82h-226z" />
    <glyph glyph-name="backslash" unicode="\" horiz-adv-x="364" 
d="M44 699h75l191 -699h-74z" />
    <glyph glyph-name="bracketright" unicode="]" horiz-adv-x="525" 
d="M739 902l-626 -1084h-226l47 82h122l531 920h-121l47 82h226z" />
    <glyph glyph-name="underscore" unicode="_" horiz-adv-x="398" 
d="M-40 -125l40 70h398l-40 -70h-398z" />
    <glyph glyph-name="a" unicode="a" 
d="M484 210l7 8q11 -5 22.5 -15.5t16.5 -20.5q-165 -192 -271 -192q-39 0 -62.5 18.5t-27.5 49.5q-83 -68 -144 -68q-62 0 -83.5 45t12.5 103l146 252q32 55 83 87.5t95 32.5q48 0 80 -34.5t29 -70.5h59l-168 -294q-16 -31 -11.5 -44t23.5 -13q60 0 194 156zM189 364
l-145 -253q-16 -31 -11.5 -44t23.5 -13q34 0 78 37t90 109l81 142q28 52 -1 75q-27 21 -67 -3q-29 -16 -48 -50z" />
    <glyph glyph-name="b" unicode="b" horiz-adv-x="453" 
d="M396 720l-132 -229q34 23 68 23q43 0 68.5 -26t25.5 -67q0 -50 -39 -119l-98 -169q89 2 157 77l7 8q11 -5 22.5 -15.5t16.5 -20.5q-38 -45 -100.5 -73t-112.5 -28q-15 0 -23 1q-37 -48 -84 -72.5t-93 -24.5q-52 0 -86 29.5t-34 81.5q0 53 37 116l294 508h106zM157 253
q0 -61 44 -94l106 182q20 34 20 62q0 21 -11 33t-28 12q-43 0 -87 -68.5t-44 -126.5zM92 58q48 0 79 50q-53 33 -66 108l-37 -64q-18 -33 -18 -54q0 -19 12 -29.5t30 -10.5z" />
    <glyph glyph-name="c" unicode="c" horiz-adv-x="387" 
d="M189 364l-107 -186q-32 -63 -15 -93.5t69 -30.5q53 0 119 44t125 112l7 8q11 -5 22.5 -15.5t16.5 -20.5q-72 -84 -155.5 -138t-165.5 -54q-92 0 -127.5 65t13.5 148l109 187q69 120 195 120q67 0 94.5 -48t-11.5 -120l-15 -26h-85l15 26q35 61 8 84q-23 19 -63 -8
q-28 -18 -49 -54z" />
    <glyph glyph-name="d" unicode="d" 
d="M484 210l7 8q11 -5 22.5 -15.5t16.5 -20.5q-165 -192 -271 -192q-39 0 -62.5 18.5t-27.5 49.5q-83 -68 -144 -68q-62 0 -83.5 45t12.5 103l146 252q32 55 83 87.5t95 32.5q61 0 95 -54l153 264h104l-352 -609q-16 -31 -11.5 -44t23.5 -13q60 0 194 156zM189 364
l-145 -253q-16 -31 -11.5 -44t23.5 -13q35 0 80.5 39t90.5 113l79 136h-1q28 52 -1 75q-27 21 -67 -3q-29 -16 -48 -50z" />
    <glyph glyph-name="e" unicode="e" horiz-adv-x="387" 
d="M363 316q-28 -48 -65.5 -79.5t-74.5 -42t-70.5 -10t-60.5 11.5l-10 -18q-32 -63 -15 -93.5t69 -30.5q53 0 119 44t125 112l7 8q11 -5 22.5 -15.5t16.5 -20.5q-72 -84 -155.5 -138t-165.5 -54q-92 0 -127.5 65t13.5 148l109 187q69 120 195 120q67 0 94.5 -48t-11.5 -120z
M189 364l-67 -117q17 -6 34.5 -7t39 4t43 23.5t39.5 48.5l15 26q35 61 8 84q-23 19 -63 -8q-28 -18 -49 -54z" />
    <glyph glyph-name="f" unicode="f" horiz-adv-x="372" 
d="M365 210l7 8q11 -5 22.5 -15.5t16.5 -20.5q-138 -160 -358 -173q18 -52 -12 -105l-78 -137q-56 -98 -126 -105q-50 -4 -75 39q-30 52 10 121l430 747q65 113 153 142q66 22 102 -17q42 -45 1 -136q-7 -14 -15 -28l-167 -289q-65 -111 -210 -187q175 13 299 156zM298 564
l-282 -484q107 47 197 202l162 281q31 57 10 70q-19 12 -53 -24q-18 -18 -34 -45zM-21 -71q32 60 4 78h-9l-118 -202q-29 -50 -13 -64q13 -11 36 16q7 8 13 19z" />
    <glyph glyph-name="g" unicode="g" horiz-adv-x="464" 
d="M-133 -202q0 108 228 178l29 49q-56 -35 -99 -35q-62 0 -83.5 45t12.5 103l146 252q32 55 83 87.5t95 32.5q46 0 77.5 -32.5t31.5 -67.5h61l-233 -398q111 47 242 198l7 8q11 -5 22.5 -15.5t16.5 -20.5q-161 -188 -329 -240l-79 -137q-22 -37 -52.5 -59.5t-60.5 -27
t-56 2t-42.5 27.5t-16.5 50zM189 364l-145 -253q-16 -31 -11.5 -44t23.5 -13q34 0 79 38.5t91 111.5l79 138q28 52 -1 75q-27 21 -67 -3q-29 -16 -48 -50zM-49 -183q0 -14 9.5 -20t23.5 0.5t24 24.5l47 84q-104 -41 -104 -89z" />
    <glyph glyph-name="h" unicode="h" 
d="M484 210l7 8q11 -5 22.5 -15.5t16.5 -20.5q-165 -192 -271 -192q-62 0 -83.5 45t12.5 103l135 235q26 44 5 55q-27 15 -99 -52q-43 -39 -92 -101l-158 -275h-105l415 720h104l-166 -289q76 79 145 79q47 0 66.5 -38.5t-10.5 -97.5l-150 -263q-16 -31 -11.5 -44t23.5 -13
q60 0 194 156z" />
    <glyph glyph-name="i" unicode="i" horiz-adv-x="257" 
d="M220 613q0 26 17.5 43.5t42.5 17.5q26 0 43.5 -18t17.5 -43t-17.5 -42.5t-43.5 -17.5t-43 17.5t-17 42.5zM250 210l7 8q11 -5 22.5 -15.5t16.5 -20.5q-165 -192 -271 -192q-62 0 -83.5 45t12.5 103l209 362h104l-223 -389q-16 -31 -11.5 -44t23.5 -13q60 0 194 156z" />
    <glyph glyph-name="j" unicode="j" horiz-adv-x="281" 
d="M0 218q33 38 68.5 84l56.5 74.5l52 71.5t37 52h104l-285 -488q110 47 241 198l7 8q11 -5 22.5 -15.5t16.5 -20.5q-162 -188 -328 -240l-80 -137q-22 -37 -52.5 -59.5t-60.5 -27t-56 2t-42.5 27.5t-16.5 50q0 110 230 178l119 209q-23 17 -33 33zM246 613q0 26 17.5 43.5
t42.5 17.5q26 0 43.5 -18t17.5 -43t-17.5 -42.5t-43.5 -17.5t-43 17.5t-17 42.5zM-232 -183q0 -14 9.5 -20t23.5 0.5t24 24.5l48 84q-105 -41 -105 -89z" />
    <glyph glyph-name="k" unicode="k" horiz-adv-x="431" 
d="M-21 0h-105l415 720h104l-148 -257q31 28 67.5 40.5t65 5.5t48 -26.5t17 -58t-30.5 -85.5l-28 -48q-37 -64 -90.5 -97.5t-108.5 -26.5v-43q0 -33 13 -51.5t32 -18.5q60 0 194 156l7 8q11 -5 22.5 -15.5t16.5 -20.5q-165 -192 -271 -192q-60 0 -80.5 31t-20.5 103v83z
M276 288l50 86q20 35 -1 51q-27 21 -81 -19q-40 -31 -83 -90l-30 -52q20 -47 69.5 -34t75.5 58z" />
    <glyph glyph-name="l" unicode="l" horiz-adv-x="257" 
d="M250 210l7 8q11 -5 22.5 -15.5t16.5 -20.5q-165 -192 -271 -192q-62 0 -83.5 45t12.5 103l336 582h104l-350 -609q-16 -31 -11.5 -44t23.5 -13q60 0 194 156z" />
    <glyph glyph-name="m" unicode="m" horiz-adv-x="750" 
d="M743 210l7 8q11 -5 22.5 -15.5t16.5 -20.5q-165 -192 -271 -192q-62 0 -83.5 45t12.5 103l135 235q26 44 5 55q-27 15 -100 -52q-65 -61 -144 -172l-117 -204h-106l215 373q25 44 5 55q-27 15 -100 -52q-63 -59 -140 -166l-121 -210h-105l289 500h104l-62 -108
q94 118 179 118q44 0 64.5 -35.5t-3.5 -90.5q99 126 186 126q47 0 66.5 -38.5t-10.5 -97.5l-150 -263q-16 -31 -11.5 -44t23.5 -13q60 0 194 156z" />
    <glyph glyph-name="n" unicode="n" 
d="M484 210l7 8q11 -5 22.5 -15.5t16.5 -20.5q-165 -192 -271 -192q-62 0 -83.5 45t12.5 103l135 235q26 44 5 55q-27 15 -99 -52q-42 -38 -91 -99l-159 -277h-105l289 500h104l-39 -68q75 78 144 78q47 0 66.5 -38.5t-10.5 -97.5l-150 -263q-16 -31 -11.5 -44t23.5 -13
q60 0 194 156z" />
    <glyph glyph-name="o" unicode="o" horiz-adv-x="453" 
d="M279 81h-23q-68 -85 -159 -95q-77 -8 -116 42q-49 63 8 171q3 6 7 13l45 77l51 89q43 75 91 105.5t111 30.5q49 0 82 -30.5t37 -78t-26 -103.5l-98 -169q88 2 157 77l7 8q11 -5 22.5 -15.5t16.5 -20.5q-38 -45 -100.5 -73t-112.5 -28zM165 149q0 26 18 44t43 18h5l76 130
q36 61 11 93q-21 26 -61 4q-33 -18 -60 -64l-50 -85l-79 -137q-35 -62 -3 -85q27 -20 67 3q26 14 42 42l1 2q-10 17 -10 35z" />
    <glyph glyph-name="p" unicode="p" horiz-adv-x="451" 
d="M-147 -220h-105l415 720h104l-21 -36q31 28 67.5 39.5t65 4.5t47.5 -26.5t16.5 -57.5t-30.5 -85l-115 -197q-5 -8 -19 -35.5t-24 -42.5q93 33 190 146l7 8q28 -8 39 -36q-76 -89 -154 -139.5t-181 -52.5h-6q-42 0 -70.5 21t-36.5 42l-7 21l59 28q15 -28 38 -26t37 26
l157 272q15 26 -5 43q-28 23 -81 -16q-37 -26 -76 -80z" />
    <glyph glyph-name="q" unicode="q" horiz-adv-x="431" 
d="M445 410l-202 -346q104 57 181 146l7 8q11 -5 22.5 -15.5t16.5 -20.5q-112 -129 -272 -194l-1 -2q5 0 7 -1q30 -12 40.5 -57t-15.5 -96l-37 -65q-56 -99 -125 -105q-50 -4 -73 39q-28 53 11 121l140 245q-87 -77 -146 -77q-53 0 -65.5 44t25.5 113l141 243q32 55 83 87.5
t95 32.5q46 0 77.5 -32.5t31.5 -67.5h58zM51 74q32 -13 154 99l109 190q14 45 -19 59q-34 14 -74 -19q-18 -15 -32 -39l-125 -218q-1 -2 -3 -5q-34 -57 -10 -67zM121 -224l46 81q35 64 2 81l-77 -133q-30 -51 -16 -64q11 -11 34 18q6 8 11 17z" />
    <glyph glyph-name="r" unicode="r" horiz-adv-x="424" 
d="M121 138l110 191q17 29 -6 59l-14 17q-117 -159 -172 -223q-26 17 -39 36q66 78 176 233l-9 12q-29 35 -22.5 78t49.5 82l54 -59q-30 -29 -6 -60l58 -70q19 -23 27.5 -41t6.5 -44t-19 -56l-104 -182q-16 -31 -11.5 -44t23.5 -13q60 0 194 156l7 8q11 -5 22.5 -15.5
t16.5 -20.5q-165 -192 -271 -192q-62 0 -83.5 45t12.5 103z" />
    <glyph glyph-name="s" unicode="s" horiz-adv-x="351" 
d="M69 -10q-42 0 -70.5 21t-36.5 42l-7 21l65 34l5 -10.5t15.5 -17t28.5 -10.5q34 0 54.5 33.5t26.5 76t15.5 101.5t21.5 91q-113 -150 -148 -190q-26 17 -39 36q33 38 71.5 87.5l62 82l58 80.5l39.5 55l78 -42q-28 -58 -43 -131t-25 -144.5t-22 -108.5q70 48 125 113l7 8
q28 -8 39 -36q-146 -170 -289 -189q-1 0 -3 -1q-20 -2 -29 -2z" />
    <glyph glyph-name="t" unicode="t" horiz-adv-x="257" 
d="M68 500l30 50h94l98 170h104l-98 -170h86l-30 -50h-85l-223 -389q-16 -31 -11.5 -44t23.5 -13q60 0 194 156l7 8q11 -5 22.5 -15.5t16.5 -20.5q-165 -192 -271 -192q-62 0 -83.5 45t12.5 103l209 362h-95z" />
    <glyph glyph-name="u" unicode="u" 
d="M484 210l7 8q11 -5 22.5 -15.5t16.5 -20.5q-165 -192 -271 -192q-48 0 -72.5 28.5t-16.5 71.5q-104 -100 -171 -100q-53 0 -65.5 44t25.5 113l204 353h104l-203 -354q-1 -2 -3 -5q-34 -57 -10 -67q31 -14 160 103l185 323h104l-222 -389q-16 -31 -11.5 -44t23.5 -13
q60 0 194 156z" />
    <glyph glyph-name="v" unicode="v" horiz-adv-x="373" 
d="M113 500h105l-139 -347q-30 -74 -24 -74.5t54 71.5l233 350h94l-169 -252q-35 -72 3 -83q32 -9 77 27q10 8 19 18l7 8q11 -5 22.5 -15.5t16.5 -20.5q-41 -48 -86 -65t-77 -6t-47 40l-54 -81q-23 -35 -56.5 -56t-62 -22t-51.5 13t-26 48.5t16 85.5z" />
    <glyph glyph-name="w" unicode="w" horiz-adv-x="662" 
d="M374 149q0 26 18 44t43 18q13 0 25 -6q83 122 144 295h67q-80 -238 -176 -367q89 0 160 77l7 8q11 -5 22.5 -15.5t16.5 -20.5q-38 -45 -100.5 -73t-112.5 -28q-25 0 -37 2q-90 -93 -192 -93q-39 0 -62.5 18.5t-28.5 48.5q-82 -67 -143 -67q-63 0 -84 45t13 103l210 362
h103l-223 -389q-16 -31 -11.5 -44t23.5 -13q34 0 79.5 38.5t91.5 112.5l171 295h103l-223 -389q-16 -31 -11.5 -44t23.5 -13q39 0 95 58q-11 16 -11 37z" />
    <glyph glyph-name="x" unicode="x" horiz-adv-x="480" 
d="M473 210l7 8q11 -5 22.5 -15.5t16.5 -20.5q-80 -93 -139 -142.5t-114 -49.5q-60 0 -79.5 38.5t-9.5 109.5v4l-131 -141h-70l215 238l23 165q-129 -169 -175 -222q-26 17 -39 36q75 88 169 214q50 78 96 78q34 0 44.5 -28t0.5 -90l-10 -63l149 171h77l-242 -277l-17 -112
q-8 -55 27 -52q53 4 155 123q12 13 24 28z" />
    <glyph glyph-name="y" unicode="y" horiz-adv-x="464" 
d="M51 74q32 -14 162 106l184 320h104l-285 -488q110 47 241 198l7 8q11 -5 22.5 -15.5t16.5 -20.5q-162 -188 -328 -240l-80 -137q-22 -37 -52.5 -59.5t-60.5 -27t-56 2t-42.5 27.5t-16.5 50q0 110 229 178l57 98q-94 -84 -154 -84q-53 0 -65.5 44t25.5 113l204 353h104
l-203 -354q-1 -2 -3 -5q-34 -57 -10 -67zM-49 -183q0 -14 9.5 -20t23.5 0.5t24 24.5l48 84q-105 -41 -105 -89z" />
    <glyph glyph-name="z" unicode="z" horiz-adv-x="464" 
d="M38 33l1 1l-7 62q81 27 162.5 93.5t120.5 134t9 97.5q-45 45 -223 -166q-12 -13 -33 -38q-21 -26 -29 -35q-26 17 -39 36l57 70.5t67.5 81.5t65.5 67t78 55t78 18q75 0 87 -70q14 -77 -53 -182q-80 -127 -219 -194q-6 -3 -11 -5l-4 -1q28 -23 32 -59q71 22 136.5 72.5
t142.5 138.5l7 8q11 -5 22.5 -15.5t16.5 -20.5q-164 -189 -331 -241q-5 -17 -18 -41l-55 -96q-21 -37 -52 -59.5t-61.5 -27t-57.5 2.5t-44 28t-17 50q0 109 231 179q12 25 -7.5 41.5t-49.5 14.5h-2h-1zM-49 -183q0 -14 9.5 -20t23 0.5t24.5 24.5l49 84q-106 -41 -106 -89z
" />
    <glyph glyph-name="braceleft" unicode="{" horiz-adv-x="472" 
d="M282 504l166 282q33 57 86.5 86.5t108.5 29.5h96l-47 -82h-46q-42 0 -67.5 -16t-51.5 -60l-146 -248q-19 -32 -46.5 -54t-43.5 -28t-21 -6q6 -4 11 -11.5t4.5 -33t-18.5 -57.5l-194 -344q-20 -37 -6.5 -63.5t50.5 -26.5h29l-47 -82h-14q-44 0 -77 31.5t-39 75.5t16 89
l183 326q11 20 15.5 37t2.5 27t-7 18t-8 10.5t-5 3.5q9 3 24.5 10t44.5 31t47 55z" />
    <glyph glyph-name="bar" unicode="|" horiz-adv-x="252" 
d="M-64 0l404 700h92l-404 -700h-92z" />
    <glyph glyph-name="braceright" unicode="}" horiz-adv-x="510" 
d="M282 188l-166 -282q-33 -57 -86.5 -86.5t-108.5 -29.5h-96l47 82h46q42 0 67.5 16t51.5 60l157 270q19 32 46.5 54t43.5 28t21 6q-6 4 -11 11.5t-4.5 33t18.5 57.5l183 322q20 37 6.5 63.5t-50.5 26.5h-29l47 82h14q44 0 77 -31.5t39 -75.5t-16 -89l-183 -326
q-11 -20 -15.5 -37t-2.5 -27t7 -18t8 -10.5t5 -3.5q-9 -3 -24.5 -10t-44.5 -31t-47 -55z" />
    <glyph glyph-name="breve" unicode="&#x2d8;" horiz-adv-x="833" 
 />
    <glyph glyph-name="endash" unicode="&#x2013;" horiz-adv-x="615" 
d="M65 228l40 70h458l-40 -70h-458z" />
    <glyph glyph-name="emdash" unicode="&#x2014;" horiz-adv-x="820" 
d="M65 228l40 70h658l-40 -70h-658z" />
    <glyph glyph-name="quoteleft" unicode="&#x2018;" horiz-adv-x="192" 
d="M152 720l-2 -40h-6q-18 0 -37.5 -10t-28.5 -24q23 -4 36.5 -17.5t13.5 -32.5q0 -27 -16 -41t-37 -14q-23 0 -41 15t-18 41q0 51 41 87t88 36h7z" />
    <glyph glyph-name="quoteright" unicode="&#x2019;" horiz-adv-x="204" 
d="M100 535l2 40h6q18 0 37.5 10t28.5 24q-23 4 -36.5 17.5t-13.5 32.5q0 27 16 41t37 14q23 0 41 -15t18 -41q0 -51 -41 -87t-88 -36h-7z" />
    <glyph glyph-name="quotedblleft" unicode="&#x201c;" horiz-adv-x="227" 
d="M307 720l-2 -40h-6q-18 0 -37.5 -10t-28.5 -24q23 -4 36.5 -17.5t13.5 -32.5q0 -27 -16 -41t-37 -14q-23 0 -41 15t-18 41q0 51 41 87t88 36h7zM157 720l-2 -40h-6q-18 0 -37.5 -10t-28.5 -24q23 -4 36.5 -17.5t13.5 -32.5q0 -27 -16 -41t-37 -14q-23 0 -41 15t-18 41
q0 51 41 87t88 36h7z" />
    <glyph glyph-name="quotedblright" unicode="&#x201d;" horiz-adv-x="354" 
d="M100 541l2 40h6q18 0 37.5 10t28.5 24q-23 4 -36.5 17.5t-13.5 32.5q0 27 16 41t37 14q23 0 41 -15t18 -41q0 -51 -41 -87t-88 -36h-7zM250 541l2 40h6q18 0 37.5 10t28.5 24q-23 4 -36.5 17.5t-13.5 32.5q0 27 16 41t37 14q23 0 41 -15t18 -41q0 -51 -41 -87t-88 -36h-7
z" />
    <glyph glyph-name="bullet" unicode="&#x2022;" horiz-adv-x="317" 
d="M67 247q0 38 27 65t65 27t65 -27t27 -65t-27 -65t-65 -27t-65 27t-27 65z" />
    <glyph glyph-name="g.alt" horiz-adv-x="464" 
d="M-133 -202q0 108 228 178l29 49q-56 -35 -99 -35q-62 0 -83.5 45t12.5 103l146 252q32 55 83 87.5t95 32.5q46 0 77.5 -32.5t31.5 -67.5h61l-233 -398q111 47 242 198l7 8q11 -5 22.5 -15.5t16.5 -20.5q-161 -188 -329 -240l-79 -137q-22 -37 -52.5 -59.5t-60.5 -27
t-56 2t-42.5 27.5t-16.5 50zM189 364l-145 -253q-16 -31 -11.5 -44t23.5 -13q34 0 79 38.5t91 111.5l79 138q28 52 -1 75q-27 21 -67 -3q-29 -16 -48 -50zM-49 -183q0 -14 9.5 -20t23.5 0.5t24 24.5l47 84q-104 -41 -104 -89z" />
    <glyph glyph-name="d.alt" 
d="M484 210l7 8q11 -5 22.5 -15.5t16.5 -20.5q-165 -192 -271 -192q-39 0 -62.5 18.5t-27.5 49.5q-83 -68 -144 -68q-62 0 -83.5 45t12.5 103l146 252q32 55 83 87.5t95 32.5q61 0 95 -54l135 232q-98 52 -186.5 80t-193.5 28q-66 0 -121 -12t-90.5 -31.5t-63.5 -43
t-42.5 -47.5t-24 -43.5t-12.5 -31.5l-2 -12l-88 14q1 6 3.5 17t15 41.5t30.5 58.5t53.5 62.5t79.5 59t112.5 41.5t149.5 17q116 0 217 -32t210 -89q110 161 267.5 260t328.5 99q164 0 249.5 -75t85.5 -186q0 -64 -31 -127.5t-87.5 -115.5t-145.5 -84.5t-194 -32.5
q-64 0 -123.5 10.5t-118 34t-97.5 43t-102 54.5l-309 -534q-16 -31 -11.5 -44t23.5 -13q60 0 194 156zM1151 1034q-146 0 -282.5 -86.5t-234.5 -226.5q110 -60 202 -94t192 -34q165 0 266.5 83.5t101.5 186.5q0 73 -63 122t-182 49zM189 364l-145 -253q-16 -31 -11.5 -44
t23.5 -13q35 0 80.5 39t90.5 113l79 136h-1q28 52 -1 75q-27 21 -67 -3q-29 -16 -48 -50z" />
    <glyph glyph-name="r.start" horiz-adv-x="467" 
d="M164 138l110 191q17 29 -6 59l-14 18q-248 -334 -310 -406q-26 17 -39 36q80 94 313 416l-8 11q-29 35 -22.5 78t49.5 82l54 -59q-30 -29 -6 -60l58 -70q19 -23 27.5 -41t6.5 -44t-19 -56l-104 -182q-16 -31 -11.5 -44t23.5 -13q60 0 194 156l7 8q11 -5 22.5 -15.5
t16.5 -20.5q-165 -192 -271 -192q-62 0 -83.5 45t12.5 103z" />
    <glyph glyph-name="s.start" horiz-adv-x="396" 
d="M-62 0q-26 17 -39 36q61 72 194 245l183 242l78 -42q-28 -58 -43 -131t-25 -144.5t-22 -108.5q70 48 125 113l7 8q28 -8 39 -36q-146 -170 -289 -189l-1 -1h-2q-20 -2 -29 -2q-42 0 -70.5 21t-35.5 42l-8 21l65 34l5 -10.5t15.5 -17t28.5 -10.5q34 0 54.5 33.5t26.5 76
t15.5 101.5t21.5 91l-148 -190.5t-146 -181.5z" />
    </font>
</defs>
</svg>
