<?xml version="1.0" standalone="no"?>
<!DOCTYPE svg PUBLIC "-//W3C//DTD SVG 1.1//EN" "http://www.w3.org/Graphics/SVG/1.1/DTD/svg11.dtd" >
<svg>
<metadata>
Created by FontForge 20090622 at Wed Apr 27 08:09:02 2016
 By deploy user
Copyright (c) 2009 by &#194;&#169; 2009 Designed by Svetoslav Simov &#194;&#169; Fontfabric, Inc. All rights reserved.
</metadata>
<defs>
<font id="ZagRegular" horiz-adv-x="461" >
  <font-face 
    font-family="Zag Regular"
    font-weight="400"
    font-stretch="normal"
    units-per-em="1000"
    panose-1="2 0 5 3 3 0 0 2 0 4"
    ascent="800"
    descent="-200"
    x-height="478"
    cap-height="700"
    bbox="-96 -206 822.027 892"
    underline-thickness="20"
    underline-position="-113"
    unicode-range="U+0020-U+2122"
  />
<missing-glyph horiz-adv-x="500" 
 />
    <glyph glyph-name=".notdef" horiz-adv-x="500" 
 />
    <glyph glyph-name=".null" horiz-adv-x="0" 
 />
    <glyph glyph-name="nonmarkingreturn" horiz-adv-x="333" 
 />
    <glyph glyph-name="space" unicode=" " horiz-adv-x="275" 
 />
    <glyph glyph-name="exclam" unicode="!" horiz-adv-x="184" 
d="M10 124v561h64v-561h-64zM2 39q0 19 11.5 30t27.5 11q19 0 32 -11t13 -30q0 -18 -13 -31.5t-32 -13.5q-16 0 -27.5 13.5t-11.5 31.5z" />
    <glyph glyph-name="quotedbl" unicode="&#x22;" horiz-adv-x="260" 
d="M1 464v221h63v-221h-63zM112 464v221h64v-221h-64z" />
    <glyph glyph-name="numbersign" unicode="#" horiz-adv-x="506" 
d="M246 426h-83q-6 -30 -16.5 -91.5t-17.5 -97.5h85zM2 488h106l36 197h67l-35 -197h81l37 197h65l-35 -197h90v-62h-102l-1 -9l-31 -178l1 -2h99v-63h-114l-33 -174h-67l34 174h-82l-31 -174h-66l30 174h-88v63h99l37 189h-97v62z" />
    <glyph glyph-name="dollar" unicode="$" horiz-adv-x="439" 
d="M205 -5v-45h-63v45q-63 10 -103.5 55t-39.5 122h63q0 -54 33 -84t78 -30t79.5 25.5t34.5 69.5v74q0 24 -9.5 41t-29 26.5t-36 14t-44.5 9.5q-33 7 -50.5 11.5t-43.5 16t-39.5 26.5t-24.5 41.5t-11 62.5v58q0 67 41.5 108t104.5 48v50h63v-52q60 -12 101.5 -56.5
t41.5 -116.5h-64q0 53 -33.5 83.5t-78.5 30.5q-46 0 -79.5 -25.5t-33.5 -69.5v-58q0 -72 120 -95q37 -8 60.5 -15.5t52 -24t42.5 -45t14 -69.5v-74q0 -67 -41.5 -108t-104.5 -50z" />
    <glyph glyph-name="percent" unicode="%" horiz-adv-x="619" 
d="M430 686h73l-154 -242l-284 -445h-72l257 403zM445 158q2 42 -17.5 73.5t-50.5 32.5q-33 1 -50.5 -26.5t-19.5 -70.5q-1 -43 17.5 -73.5t49.5 -31.5q33 -1 51 26t20 70zM506 159q-2 -70 -36.5 -116t-95.5 -45q-57 0 -93 49.5t-35 118.5q1 71 35.5 118t95.5 46
q58 -1 94 -51t35 -120zM186 508q1 42 -18 73t-49 32q-33 1 -50.5 -26.5t-19.5 -69.5q0 -44 17.5 -74t48.5 -31q33 -1 51 26.5t20 69.5zM248 508q-2 -69 -36.5 -115t-95.5 -45q-58 0 -94 49.5t-35 118.5q1 70 35.5 117.5t96.5 46.5q58 -1 94 -51.5t35 -120.5z" />
    <glyph glyph-name="ampersand" unicode="&#x26;" horiz-adv-x="449" 
d="M251 160v166h-100q-35 0 -61 -28t-26 -63v-78q0 -39 27.5 -67t65.5 -28q40 0 67 28.5t27 69.5zM314 160q0 -95 75 -95v-64q-41 0 -74 22.5t-39 61.5q-6 -37 -43.5 -62t-75.5 -25q-67 0 -112 45.5t-45 113.5v78q0 36 19.5 69t50.5 54q-63 42 -63 122v52q0 66 42.5 109
t108.5 43q39 0 75.5 -23t62.5 -60l-52 -38q-36 57 -86 57q-37 0 -62.5 -25.5t-25.5 -62.5v-52q0 -35 23.5 -62.5t58.5 -27.5h99v47h63v-47h66v-64h-66v-166z" />
    <glyph glyph-name="quotesingle" unicode="'" horiz-adv-x="168" 
d="M8 454v231h63v-231h-63z" />
    <glyph glyph-name="parenleft" unicode="(" horiz-adv-x="237" 
d="M183 -8l-36 -52q-70 57 -107.5 167.5t-37.5 234.5t37.5 233.5t108.5 167.5l38 -50q-56 -47 -88 -144.5t-32 -207.5t30.5 -205t86.5 -144z" />
    <glyph glyph-name="parenright" unicode=")" horiz-adv-x="242" 
d="M-5 -60l-35 52q56 49 86.5 144t30.5 205q0 111 -31.5 208t-88.5 144l37 50q71 -58 108.5 -167.5t37.5 -233.5t-37.5 -234.5t-107.5 -167.5z" />
    <glyph glyph-name="asterisk" unicode="*" horiz-adv-x="419" 
d="M185 340h-63l3 121q-15 -12 -49.5 -36.5t-46.5 -34.5l-15 26l-18 34l101 54l-102 54l34 56l97 -65q-1 20 -2.5 65.5t-1.5 51.5h63l-5 -115l98 64l17 -26l16 -32l-101 -51l102 -57l-35 -58l-99 73q1 -21 3.5 -63t3.5 -61z" />
    <glyph glyph-name="plus" unicode="+" horiz-adv-x="376" 
d="M169 362h113v-63h-113v-118h-63v118h-113v63h113v119h63v-119z" />
    <glyph glyph-name="comma" unicode="," horiz-adv-x="141" 
d="M66 14l-36 -74l-43 15l17 49q-14 9 -14 31q0 16 11.5 28t29.5 12q20 0 32.5 -18t2.5 -43z" />
    <glyph glyph-name="hyphen" unicode="-" horiz-adv-x="406" 
d="M-6 326h301v-64h-301v64z" />
    <glyph glyph-name="period" unicode="." horiz-adv-x="124" 
d="M26 85q20 0 32.5 -12.5t12.5 -31.5t-12.5 -31t-32.5 -12q-19 0 -30.5 12t-11.5 31t11.5 31.5t30.5 12.5z" />
    <glyph glyph-name="slash" unicode="/" horiz-adv-x="374" 
d="M265 712l-245 -750h-66l242 750h69z" />
    <glyph glyph-name="zero" unicode="0" horiz-adv-x="459" 
d="M1 154v372q0 75 52.5 116t126.5 41q72 0 125 -41.5t53 -115.5v-372q0 -76 -53 -118t-125 -42q-74 0 -126.5 41.5t-52.5 118.5zM64 526v-372q0 -45 34 -70.5t82 -25.5q46 0 80 25.5t34 70.5v372q0 43 -34.5 68t-79.5 25q-47 0 -81.5 -25t-34.5 -68z" />
    <glyph glyph-name="one" unicode="1" horiz-adv-x="214" 
d="M-32 685h110q35 0 35 -37v-648h-63v621h-82v64z" />
    <glyph glyph-name="two" unicode="2" horiz-adv-x="448" 
d="M347 526v-96q-1 -72 -47 -113.5t-121 -41.5q-48 0 -82.5 -24.5t-34.5 -69.5v-118h271v-63h-298q-23 0 -29 7t-6 30v144q0 76 52 116.5t127 40.5q46 0 75 24t29 68v96q0 44 -32.5 69t-76.5 25q-45 0 -78 -29.5t-34 -82.5h-62q0 83 51.5 129.5t122.5 46.5q70 0 121.5 -41.5
t51.5 -116.5z" />
    <glyph glyph-name="three" unicode="3" horiz-adv-x="453" 
d="M-1 171h63q0 -54 34.5 -84t81.5 -30q46 0 79.5 25t33.5 70v85q0 38 -33 65t-79 27v65q46 0 79 28t33 66v36q0 45 -33.5 70t-79.5 25q-47 0 -81.5 -29.5t-34.5 -83.5h-63q0 84 52.5 131t125.5 47q72 0 125 -42t53 -118v-36q0 -34 -22.5 -70.5t-56.5 -55.5
q34 -18 56.5 -54.5t22.5 -70.5v-85q0 -76 -53 -117.5t-125 -41.5q-73 0 -125.5 47t-52.5 131z" />
    <glyph glyph-name="four" unicode="4" horiz-adv-x="433" 
d="M272 685h63v-685h-63v259h-235q-36 0 -36 35v391h64v-363h207v363z" />
    <glyph glyph-name="five" unicode="5" horiz-adv-x="442" 
d="M343 258v-103q0 -76 -53 -118.5t-126 -42.5q-70 0 -119.5 45t-50.5 126h63q0 -50 31.5 -78.5t75.5 -28.5q46 0 80.5 26t34.5 71v103q0 37 -27 63.5t-64 26.5h-149q-15 0 -26.5 10.5t-11.5 26.5v262q0 17 11.5 27t26.5 10h270v-64h-244v-208h123q62 0 108.5 -46.5
t46.5 -107.5z" />
    <glyph glyph-name="six" unicode="6" horiz-adv-x="452" 
d="M0 154v377q0 76 50.5 116t124.5 40q44 0 78.5 -13t70.5 -50l-25 -21q-2 -1 -5 -3.5t-4 -3.5l-2 -1l-2 -2l-10 -10q-42 41 -101 41q-47 0 -80 -24.5t-33 -68.5v-155q14 31 48 47t67 16q74 0 125.5 -40t51.5 -115v-130q0 -75 -53 -117t-124 -42q-73 0 -125 41.5t-52 117.5z
M290 154v130q0 44 -33 68t-80 24q-48 0 -81.5 -24.5t-33.5 -70.5v-127q0 -45 34 -70t80 -25q45 0 79 25t35 70z" />
    <glyph glyph-name="seven" unicode="7" horiz-adv-x="425" 
d="M41 0v147q0 57 30 100l26 36l61 83q9 14 34 48l52 73q21 30 21 58v76h-288v64h316q34 0 34 -35v-106q0 -49 -32 -96l-172 -236q-19 -30 -19 -65v-147h-63z" />
    <glyph glyph-name="eight" unicode="8" horiz-adv-x="445" 
d="M5 539q0 74 51.5 114.5t123.5 40.5q70 0 122 -41t52 -114v-57q0 -41 -23 -79.5t-63 -44.5q40 -6 65 -45.5t25 -80.5v-79q0 -77 -53.5 -119.5t-125.5 -42.5q-74 0 -126.5 42.5t-52.5 119.5v79q0 37 26 76t60 48q-34 12 -57.5 50.5t-23.5 75.5v57zM290 539q0 43 -33 67.5
t-77 24.5q-46 0 -79 -24.5t-33 -67.5v-57q0 -40 25 -67t65 -28q21 -2 43 0q38 1 63.5 28.5t25.5 66.5v57zM204 326h-50q-38 -2 -64.5 -29t-26.5 -65v-79q0 -46 34.5 -72t81.5 -26q46 0 80.5 26.5t34.5 71.5v79q0 38 -26 65t-64 29z" />
    <glyph glyph-name="nine" unicode="9" horiz-adv-x="453" 
d="M354 527v-377q0 -76 -51 -116.5t-124 -40.5q-88 0 -150 64l50 42q40 -42 100 -42q46 0 79 24.5t33 68.5v156q-18 -65 -114 -65q-75 0 -126 40t-51 117v129q0 76 52.5 117.5t124.5 41.5t124.5 -41.5t52.5 -117.5zM62 527v-129q0 -44 33.5 -68.5t81.5 -24.5q47 0 80.5 25
t33.5 71v126q0 44 -34 69.5t-79 25.5q-46 0 -80.5 -25t-35.5 -70z" />
    <glyph glyph-name="colon" unicode=":" horiz-adv-x="166" 
d="M34 179q18 0 30 -12.5t12 -28.5q0 -19 -11.5 -29.5t-30.5 -10.5q-17 0 -27.5 10.5t-10.5 29.5q0 16 10.5 28.5t27.5 12.5zM34 391q18 0 30 -12t12 -28q0 -18 -11.5 -29t-30.5 -11q-17 0 -27.5 11t-10.5 29q0 16 10.5 28t27.5 12z" />
    <glyph glyph-name="semicolon" unicode=";" horiz-adv-x="166" 
d="M34 391q18 0 30 -12t12 -28q0 -18 -11.5 -29t-30.5 -11q-17 0 -27.5 11t-10.5 29q0 16 10.5 28t27.5 12zM34 179q18 0 30 -12.5t12 -28.5q0 -4 -5 -19q0 -2 -12 -36q-5 -20 -15 -45l-44 6l12 59q-19 10 -19 34q0 17 11.5 29.5t29.5 12.5z" />
    <glyph glyph-name="less" unicode="&#x3c;" horiz-adv-x="378" 
d="M245 129l-231 136q-15 10 -15.5 28.5t17.5 27.5h-1l230 135v-74l-86 -46l-36.5 -19.5t-41.5 -23.5q6 -3 18 -8.5t17 -8.5q90 -48 129 -73v-74z" />
    <glyph glyph-name="equal" unicode="=" horiz-adv-x="430" 
d="M0 323h304v-63h-304v63zM0 441h304v-63h-304v63z" />
    <glyph glyph-name="greater" unicode="&#x3e;" horiz-adv-x="324" 
d="M229 265l-229 -136v75q44 27 119 66l43 23q-70 36 -162 89v74l229 -135h-1q18 -9 17.5 -28t-16.5 -28z" />
    <glyph glyph-name="question" unicode="?" horiz-adv-x="405" 
d="M308 523v-56q0 -90 -87 -142q-46 -27 -46 -78v-111h-64v111q0 89 77 136q56 32 56 85v55q0 38 -27.5 65t-66.5 27q-37 0 -64.5 -33.5t-28.5 -79.5l-65 9q4 72 49.5 120.5t108.5 48.5q65 0 111.5 -45.5t46.5 -111.5zM145 82q16 0 28.5 -13t12.5 -32q0 -16 -13 -29.5
t-28 -13.5q-20 0 -32.5 13t-12.5 30q0 20 12 32.5t33 12.5z" />
    <glyph glyph-name="at" unicode="@" horiz-adv-x="603" 
d="M-3 148v174q-1 113 78.5 188t176.5 75q60 0 117 -25.5t98 -80t42 -126.5v-305q0 -47 -38.5 -69.5t-81 -6t-51.5 63.5q-31 -27 -85 -27q-57 -2 -100.5 40.5t-43.5 100.5v174q0 57 43.5 98.5t100.5 41.5q50 0 83 -29v13l70 5q-23 31 -68 49t-88 18q-72 0 -132 -58t-58 -140
v-174q0 -84 60 -136t142 -52q26 0 81 16l18 -63q-59 -17 -99 -17q-109 0 -187 68t-78 184zM444 353q0 43 -36 97l-8 -403q0 -14 11 -21t22 -0.5t11 22.5v305zM173 150q0 -31 24 -55t56 -23q34 0 58.5 15t24.5 42v208q0 30 -24 47t-59 18q-32 0 -56 -23t-24 -55v-174z" />
    <glyph glyph-name="A" unicode="A" horiz-adv-x="512" 
d="M376 0l-64 246h-188q-56 -217 -63 -246h-69l168 659q7 23 24 36t35 13q17 0 34 -13.5t23 -34.5l171 -660h-71zM222 642l-3 4l2 -9q0 3 1 5zM296 310l-75 327l-82 -327h157z" />
    <glyph glyph-name="B" unicode="B" horiz-adv-x="463" 
d="M64 643l-8 -8h8v8zM199 635h-135v-227h146q36 0 60 28t24 67v36q0 40 -28 68t-67 28zM359 503q0 -24 -7.5 -48.5t-28.5 -47.5t-52 -30q48 -8 73.5 -48.5t25.5 -84.5v-85q0 -63 -48.5 -111t-109.5 -49h-156q-26 0 -41 15.5t-15 42.5v586q0 26 15 41.5t41 15.5h143
q65 -1 112.5 -47t47.5 -114v-36zM64 57v7h-6q6 -2 6 -7zM212 64q37 2 65 29.5t28 65.5v85q0 40 -28 69t-67 29h-146v-278h148z" />
    <glyph glyph-name="C" unicode="C" horiz-adv-x="458" 
d="M301 178h67q-1 -86 -56 -135t-128 -49q-76 0 -130 43.5t-54 122.5v382q0 79 53.5 122.5t129.5 43.5q73 0 128.5 -49t56.5 -135h-67q0 55 -34.5 87t-82.5 32q-49 0 -84 -27t-35 -74v-382q1 -47 36 -74t83 -27t82.5 32t34.5 87z" />
    <glyph glyph-name="D" unicode="D" horiz-adv-x="464" 
d="M64 644l-8 -9h8v9zM213 635h-149l2 -570h147q38 0 65.5 28t27.5 67v378q0 39 -28 68t-65 29zM56 0q-25 0 -40.5 16.5t-15.5 40.5v587q0 25 16 40.5t40 15.5h157q63 0 110.5 -48t47.5 -113v-379q0 -68 -47 -114t-111 -46h-157z" />
    <glyph glyph-name="E" unicode="E" horiz-adv-x="411" 
d="M307 700v-65l-242 -2v-242h231v-65h-231v-164q0 -39 28 -68t67 -29h147v-65h-147q-65 0 -112.5 48.5t-47.5 113.5v481q0 24 17.5 40.5t40.5 16.5h249z" />
    <glyph glyph-name="F" unicode="F" horiz-adv-x="396" 
d="M307 700v-65l-241 -2v-241h225v-65h-225v-327h-65v643q0 24 17.5 40.5t40.5 16.5h248z" />
    <glyph glyph-name="G" unicode="G" horiz-adv-x="463" 
d="M187 322v64h126q25 0 41 -15t16 -40v-174q0 -77 -54.5 -120t-129.5 -43q-76 0 -131 44t-55 123v383q0 78 54 121.5t130 43.5q74 0 128.5 -48.5t55.5 -134.5h-66q0 55 -35 86.5t-83 31.5q-49 0 -84.5 -26.5t-35.5 -73.5v-383q1 -48 37 -75t85 -27q48 0 83 26t36 72v165
h-118z" />
    <glyph glyph-name="H" unicode="H" horiz-adv-x="435" 
d="M344 0h-65v314h-214v-314h-65v700h65v-322h214v322h65v-700z" />
    <glyph glyph-name="I" unicode="I" horiz-adv-x="177" 
d="M76 0h-66v700h66v-700z" />
    <glyph glyph-name="J" unicode="J" horiz-adv-x="459" 
d="M183 700h126q24 0 41 -16.5t17 -39.5v-483q0 -80 -55.5 -126t-130.5 -46q-76 0 -130 50.5t-54 140.5h66q0 -58 35.5 -91t84.5 -33q48 0 83 28t35 77l-2 474h-116v65z" />
    <glyph glyph-name="K" unicode="K" horiz-adv-x="457" 
d="M0 0v700h64v-311h56q43 0 77.5 25.5t46.5 69.5l59 216h70l-16 -58l-18 -65l-30 -110q-11 -40 -39 -72t-73 -37q46 -8 73.5 -40.5t38.5 -73.5v1q9 -32 25.5 -98.5t19.5 -76.5q2 -6 8 -33t9 -37h-67l-31 119v-1q-7 25 -29 112v-1q-13 44 -47.5 69.5t-76.5 25.5h-56v-324
h-64z" />
    <glyph glyph-name="L" unicode="L" horiz-adv-x="385" 
d="M316 0h-255q-23 -2 -42 14.5t-19 41.5v644h66l1 -635h249v-65z" />
    <glyph glyph-name="M" unicode="M" horiz-adv-x="523" 
d="M361 4v500l7 91l-114 -345q-12 -32 -44 -32q-29 0 -43 29l-110 355l7 -98v-504h-64v648q0 24 14 38t32.5 14.5t35.5 -10t22 -29.5q25 -76 59.5 -205l45.5 -168q21 64 57.5 191.5t55.5 184.5q7 21 24 31.5t34 9t31 -15.5t15 -39v-650h-64v4h-1z" />
    <glyph glyph-name="N" unicode="N" horiz-adv-x="460" 
d="M93 670l229 -603l-15 93l-5 540h65v-651q0 -23 -13.5 -36t-31.5 -13q-31 0 -44 31l-71.5 182l-86 227.5l-69.5 183.5l13 -103v-521h-64v652q-1 23 13.5 37t34.5 14q16 0 29 -9.5t17 -25.5z" />
    <glyph glyph-name="O" unicode="O" 
d="M0 159v383q0 77 54.5 120.5t129.5 43.5t129.5 -43.5t54.5 -120.5v-383q0 -78 -54.5 -121.5t-129.5 -43.5t-129.5 43.5t-54.5 121.5zM64 542v-383q0 -47 35.5 -73.5t84.5 -26.5q48 0 83.5 26.5t35.5 73.5v383q0 46 -35.5 72.5t-83.5 26.5q-49 0 -84.5 -26.5t-35.5 -72.5z
" />
    <glyph glyph-name="P" unicode="P" horiz-adv-x="430" 
d="M56 700h144q64 0 110.5 -48.5t46.5 -112.5v-103q0 -64 -46.5 -112t-110.5 -48h-136v-276h-64v643q0 24 17 40.5t39 16.5zM64 633v-292h136q38 0 65 28t27 67v103q0 39 -27.5 67.5t-64.5 28.5z" />
    <glyph glyph-name="Q" unicode="Q" horiz-adv-x="460" 
d="M367 160q0 -54 -27 -92l12 -11.5t13.5 -13.5t8.5 -9l-49 -48l-23 27q-1 1 -5 4.5t-7 6.5q-53 -30 -106 -30q-75 0 -129.5 44t-54.5 122v382q0 78 54 121t130 43q74 0 128.5 -43.5t54.5 -120.5v-382zM183 59q29 0 58 12q-8 9 -33 31l47 48l35 -34q12 22 12 44v382
q0 46 -34.5 72.5t-82.5 26.5q-49 0 -84.5 -26.5t-36.5 -72.5v-384q1 -46 36 -72.5t83 -26.5z" />
    <glyph glyph-name="R" unicode="R" horiz-adv-x="442" 
d="M0 643q0 26 16 42t41 16h140q69 0 114.5 -45.5t45.5 -114.5v-107q0 -40 -32.5 -81.5t-75.5 -47.5q47 -6 79 -48t32 -83v-174h-65v174q0 40 -37.5 69t-79.5 29h-114v-272h-64v643zM59 636h5v4q-2 -4 -5 -4zM197 636h-133v-299h114q41 0 77.5 28.5t36.5 68.5v107
q0 39 -27.5 67t-67.5 28z" />
    <glyph glyph-name="S" unicode="S" horiz-adv-x="442" 
d="M0 545q0 77 53 120t127 43q72 0 125.5 -48.5t53.5 -132.5h-65q0 54 -34 85t-80 31q-47 0 -81.5 -26t-34.5 -72v-59q0 -24 10.5 -41.5t31 -28.5t37.5 -16t44 -11q30 -6 49.5 -11t45 -17t40.5 -27.5t26 -42t11 -60.5v-74q0 -77 -54 -120.5t-127 -43.5q-74 0 -126.5 48
t-51.5 134h64q0 -55 33.5 -85.5t80.5 -30.5t81.5 26.5t34.5 71.5v74q0 33 -19.5 53.5t-41.5 27.5t-60 13q-33 7 -51.5 11.5t-45 16.5t-40.5 27.5t-25 42.5t-11 63v59z" />
    <glyph glyph-name="T" unicode="T" horiz-adv-x="492" 
d="M-7 700h397v-65h-168v-635h-65v635h-164v65z" />
    <glyph glyph-name="U" unicode="U" 
d="M303 700h65v-543q0 -78 -54.5 -121.5t-129.5 -43.5t-129.5 43.5t-54.5 121.5v543h64q0 -486 -1 -543q3 -45 39.5 -72.5t82.5 -27.5q48 0 83 26.5t35 73.5v543z" />
    <glyph glyph-name="V" unicode="V" horiz-adv-x="507" 
d="M369 700h70l-172 -661q-7 -22 -23 -34.5t-33 -12.5q-42 0 -57 48l-169 660h69l149 -599l8 -67l8 64q16 58 77 312.5t73 289.5z" />
    <glyph glyph-name="W" unicode="W" horiz-adv-x="629" 
d="M315 50l-44 310l-3 82h-6l-4 -81q-6 -38 -14 -109t-12 -97l-14 -106q-4 -23 -18 -36.5t-31 -13.5t-31.5 13t-20.5 36q-5 29 -34 176l-26 138q-14 75 -19 99l-45 239h65l44 -224q12 -63 44 -250q7 -58 13 -90l7 -75h4l4 75q4 25 9.5 76.5t8.5 76.5q1 9 10 75t14 97
q8 35 49 35t50 -30l44 -330l4 -75h4l6 72l98 567h68l-126 -651q-5 -23 -19 -37t-31 -14t-30.5 14t-17.5 38z" />
    <glyph glyph-name="X" unicode="X" horiz-adv-x="437" 
d="M304 0l-128 288l-41 -95.5t-45 -102.5l-43 -90h-71l64 133l101 215l-168 352h72q3 -6 12.5 -26.5t13.5 -30.5l105 -238l130 295h73l-167 -355l75 -160l86 -185h-69z" />
    <glyph glyph-name="Y" unicode="Y" horiz-adv-x="437" 
d="M380 700l-169 -397v-303h-66v304l-68 160l-100 236h70q57 -130 114 -276l17 -68l17 69q67 169 113 275h72z" />
    <glyph glyph-name="Z" unicode="Z" horiz-adv-x="413" 
d="M42 0q-33 0 -46 21.5t0 55.5l277 558h-260v65h283q36 0 47.5 -20t-3.5 -52l-278 -563h271v-65h-291z" />
    <glyph glyph-name="bracketleft" unicode="[" horiz-adv-x="199" 
d="M0 705q0 16 7 23.5t25 7.5h137v-64h-106v-656h106v-63h-137q-18 0 -25 7t-7 24v721z" />
    <glyph glyph-name="backslash" unicode="\" horiz-adv-x="344" 
d="M23 712l244 -754h-66q-3 7 -15 43l-17 52l-68 213q-144 438 -146 446h68z" />
    <glyph glyph-name="bracketright" unicode="]" horiz-adv-x="196" 
d="M106 -16q0 -17 -7 -24t-25 -7h-127v63h95v656h-95v64h127q18 0 25 -7.5t7 -23.5v-721z" />
    <glyph glyph-name="asciicircum" unicode="^" horiz-adv-x="341" 
d="M216 562l-93 72q-6 -5 -21.5 -16.5l-23.5 -17.5q-35 -27 -48 -38l-44 50l114 83q23 18 43 0l112 -82z" />
    <glyph glyph-name="underscore" unicode="_" horiz-adv-x="525" 
d="M-7 52h438v-65h-438v65z" />
    <glyph glyph-name="grave" unicode="`" horiz-adv-x="396" 
d="M120 800l82 -151l-68 -1l-82 111z" />
    <glyph glyph-name="a" unicode="a" horiz-adv-x="406" 
d="M154 -6q-63 0 -108.5 46.5t-45.5 109.5v36q0 62 45.5 108t108.5 46q29 0 56 -13.5t37 -41.5l-2 45q0 37 -26.5 63.5t-64.5 26.5q-36 0 -75 -37l-37 55q52 47 112 47q63 0 109 -45.5t46 -109.5v-330h-56l-6 44q-26 -50 -93 -50zM64 150q0 -38 26.5 -65t63.5 -27
q36 0 63.5 18t27.5 49v76q0 35 -26 55t-65 20q-38 0 -64 -26t-26 -64v-36z" />
    <glyph glyph-name="b" unicode="b" horiz-adv-x="409" 
d="M154 -7q-69 0 -91 51l-8 -44h-55v689h64v-254q12 24 38 36.5t52 13.5q63 1 110 -45t47 -106v-189q0 -61 -47.5 -106.5t-109.5 -45.5zM247 145v189q0 36 -27.5 61t-65.5 25q-42 0 -65.5 -22.5t-24.5 -59.5v-204q0 -32 26 -54.5t64 -22.5t65.5 26.5t27.5 61.5z" />
    <glyph glyph-name="c" unicode="c" horiz-adv-x="406" 
d="M246 169h64q-1 -72 -45 -123t-109 -51q-64 0 -110 46t-46 109v181q0 65 46 110t110 45q62 0 107.5 -50.5t46.5 -123.5h-64q0 46 -26 77.5t-64 31.5t-65 -26.5t-27 -63.5v-181q0 -38 27 -64.5t65 -26.5q37 0 63.5 32.5t26.5 77.5z" />
    <glyph glyph-name="d" unicode="d" horiz-adv-x="408" 
d="M157 -7q-62 0 -109.5 45.5t-47.5 106.5v189q0 60 47 106t110 45q26 -1 52 -13.5t38 -36.5v254h64v-689h-55l-8 44q-22 -51 -91 -51zM64 334v-189q0 -35 27.5 -61.5t65.5 -26.5t64 22.5t26 54.5v204q-1 37 -24.5 59.5t-65.5 22.5q-38 0 -65.5 -25t-27.5 -61z" />
    <glyph glyph-name="e" unicode="e" horiz-adv-x="398" 
d="M302 331q0 -65 -45 -106t-109 -41h-91v-34q0 -37 26.5 -63.5t64.5 -26.5q54 0 88 47l53 -38q-51 -73 -141 -73q-64 0 -109.5 44.5t-45.5 109.5v180q0 63 45 109.5t110 46.5q63 0 108.5 -45.5t45.5 -109.5zM57 239h91q37 0 63.5 27t26.5 65q0 37 -26 63.5t-64 26.5
t-64.5 -27t-26.5 -65v-90z" />
    <glyph glyph-name="f" unicode="f" horiz-adv-x="236" 
d="M63 307v-307h-63v534q0 67 52.5 112t125.5 45v-63q-47 0 -81 -27.5t-34 -66.5v-164h103v-63h-103z" />
    <glyph glyph-name="g" unicode="g" horiz-adv-x="408" 
d="M312 -51q0 -65 -46.5 -109.5t-110.5 -44.5q-27 0 -61 12.5t-58 34.5l37 51q39 -33 82 -33q38 0 65.5 26t27.5 63v100q-13 -27 -39 -39.5t-52 -12.5q-64 0 -110.5 41t-46.5 108v189q0 59 47.5 105t109.5 46q68 0 93 -55l9 50h53v-532zM64 335v-189q-3 -55 51 -77
q50 -20 94 4q39 20 39 63v209q0 31 -28.5 53.5t-62.5 23.5q-37 0 -65 -26t-28 -61z" />
    <glyph glyph-name="h" unicode="h" horiz-adv-x="407" 
d="M156 420q-38 0 -65 -27t-27 -65v-328h-64v685h64l1 -263q10 28 35.5 45t55.5 17q71 0 112 -45.5t41 -110.5l1 -328h-64v328q0 38 -26.5 65t-63.5 27z" />
    <glyph glyph-name="i" unicode="i" horiz-adv-x="169" 
d="M38 599q18 0 31 -12t13 -31q0 -18 -13 -30t-31 -12q-17 0 -29 12t-12 30q0 19 12 31t29 12zM70 480v-480h-63v480h63z" />
    <glyph glyph-name="j" unicode="j" horiz-adv-x="187" 
d="M10 -51v532h64v-532q0 -65 -47.5 -109.5t-117.5 -44.5l1 65q43 0 71.5 26t28.5 63zM42 597q18 0 31 -12t13 -31q0 -18 -13 -30t-31 -12q-17 0 -29 12t-12 30q0 19 12 31t29 12z" />
    <glyph glyph-name="k" unicode="k" horiz-adv-x="395" 
d="M80 208h-16v-208h-64v684h64v-413h16q72 0 95 53l73 157h68q-17 -40 -36 -77l-47 -106q-8 -19 -28 -37.5t-44 -22.5q25 -3 44.5 -20t27.5 -36l82 -182h-68l-72 156q-23 52 -95 52z" />
    <glyph glyph-name="l" unicode="l" horiz-adv-x="225" 
d="M63 158q0 -39 30.5 -67t75.5 -28v-63q-72 0 -120.5 44.5t-48.5 113.5v527h63v-527z" />
    <glyph glyph-name="m" unicode="m" horiz-adv-x="673" 
d="M63 331v-331h-63v480h52l9 -48q13 27 40 41t55 14q40 0 73.5 -20.5t48.5 -65.5q29 86 124 86q61 0 106.5 -47.5t45.5 -108.5v-331h-63v331q0 37 -27 64t-64 27t-64 -27t-27 -64v-331h-63v331q0 37 -27 64t-65 27q-37 0 -64 -27t-27 -64z" />
    <glyph glyph-name="n" unicode="n" horiz-adv-x="406" 
d="M154 422q-37 0 -63.5 -27t-26.5 -64v-331h-64v481h54l8 -48q13 26 40 40t53 14q62 0 108.5 -47.5t46.5 -108.5v-331h-64v331q0 37 -27 64t-65 27z" />
    <glyph glyph-name="o" unicode="o" horiz-adv-x="402" 
d="M307 332v-182q0 -74 -47.5 -114.5t-111.5 -40.5q-65 0 -112 40.5t-47 114.5v182q0 74 47 114.5t112 40.5t112 -40.5t47 -114.5zM243 150v182q0 42 -28 66.5t-67 24.5q-38 0 -66.5 -24.5t-28.5 -66.5v-182q0 -42 28.5 -66t66.5 -24q39 0 67 23.5t28 66.5z" />
    <glyph glyph-name="p" unicode="p" horiz-adv-x="407" 
d="M154 490q62 0 109.5 -45.5t47.5 -106.5v-189q0 -60 -47 -106t-110 -45q-26 1 -52 13.5t-38 36.5v-254h-64v689h55l8 -44q22 51 91 51zM247 149v189q0 35 -27.5 61.5t-65.5 26.5t-64 -22.5t-26 -54.5v-204q1 -37 24.5 -59.5t65.5 -22.5q38 0 65.5 25t27.5 61z" />
    <glyph glyph-name="q" unicode="q" horiz-adv-x="398" 
d="M157 490q69 0 91 -51l8 44h55v-689h-64v254q-12 -24 -38 -36.5t-52 -13.5q-63 -1 -110 45t-47 106v189q0 61 47.5 106.5t109.5 45.5zM64 338v-189q0 -36 27.5 -61t65.5 -25q42 0 65.5 22.5t24.5 59.5v204q0 32 -26 54.5t-64 22.5t-65.5 -26.5t-27.5 -61.5z" />
    <glyph glyph-name="r" unicode="r" horiz-adv-x="275" 
d="M64 0h-64v478h57l7 -46q23 52 82 52q35 0 75 -22l-22 -57q-42 26 -86.5 10t-48.5 -65v-350z" />
    <glyph glyph-name="s" unicode="s" horiz-adv-x="371" 
d="M287 406l-54 -36q-37 54 -83 54q-42 0 -69 -30q-22 -20 -22 -57q-1 -31 21.5 -44.5t61.5 -15.5q63 -2 107 -38t44 -102q1 -69 -45.5 -106.5t-110.5 -37.5q-42 0 -83.5 23.5t-66.5 66.5l55 29q34 -55 96 -55q37 0 64 21.5t27 58.5q0 35 -25.5 54.5t-62.5 20.5
q-66 2 -106 32t-40 93q-1 69 45.5 109.5t108.5 40.5q84 0 138 -81z" />
    <glyph glyph-name="t" unicode="t" horiz-adv-x="243" 
d="M63 482h104v-64h-104v-260q0 -39 33.5 -67t79.5 -28v-63q-72 0 -124 45t-52 113v527h63v-203z" />
    <glyph glyph-name="u" unicode="u" horiz-adv-x="399" 
d="M152 -5q-64 0 -108 45.5t-44 108.5v331h64v-331q0 -38 25.5 -64t62.5 -26t63 26t26 64v331h63v-331q0 -64 -43 -109t-109 -45z" />
    <glyph glyph-name="v" unicode="v" horiz-adv-x="408" 
d="M4 480h68l111 -403l3 -40h5l2 41l110 402h67l-126 -440q-13 -46 -57 -46q-19 0 -35 12t-21 35v-1z" />
    <glyph glyph-name="w" unicode="w" horiz-adv-x="522" 
d="M70 481l59 -360l4 -66h4l7 65q1 3 2.5 9.5t2.5 9.5q16 57 38 127q12 35 46 35q33 0 47 -37l23 -78q7 -32 17 -66l10 -65h4l2 65q38 242 60 361h67q-5 -31 -12.5 -69.5l-16.5 -87l-14 -73.5q-28 -142 -39 -208q-4 -21 -18.5 -32.5t-31.5 -11.5q-16 0 -30.5 10.5
t-19.5 28.5q-19 88 -39 155l-6 59h-6l-5 -59q-8 -29 -19 -73q-22 -76 -23 -80q-6 -18 -20.5 -29.5t-29.5 -11.5q-37 0 -49 44q-5 31 -17 92.5t-17 91.5q-25 130 -46 254h66z" />
    <glyph glyph-name="x" unicode="x" horiz-adv-x="362" 
d="M267 0l-104 189l-104 -189h-75l142 241l-138 237h74l100 -182l102 182h74l-139 -237l143 -241h-75z" />
    <glyph glyph-name="y" unicode="y" horiz-adv-x="406" 
d="M309 -51q-1 -65 -46 -109.5t-107 -44.5q-27 0 -62 14.5t-62 36.5l42 49q43 -35 82 -35q37 0 63 26t26 63v98q-12 -28 -37.5 -39.5t-50.5 -11.5q-62 0 -109.5 44.5t-47.5 106.5v333h64v-333q0 -36 28 -62t65 -25q37 0 62.5 19t25.5 53v348h64v-531z" />
    <glyph glyph-name="z" unicode="z" horiz-adv-x="399" 
d="M46 0q-33 0 -46.5 22.5t2.5 52.5l239 345q-39 0 -121 -1.5t-120 -1.5v64h261q24 0 38 -12.5t14 -32.5q0 -18 -12 -36l-238 -340q38 0 116.5 1.5t117.5 1.5v-63h-251z" />
    <glyph glyph-name="braceleft" unicode="{" horiz-adv-x="256" 
d="M116 436q-7 -66 -38 -97q31 -28 38 -92q9 -72 36 -143.5t72 -107.5l-29 -58q-60 48 -97 135t-46 168q-3 30 -20.5 50t-50.5 20v61q33 0 50.5 20.5t20.5 48.5q9 85 44.5 171t97.5 130l33 -50q-49 -41 -76.5 -113t-34.5 -143z" />
    <glyph glyph-name="bar" unicode="|" horiz-adv-x="177" 
d="M74 754v-857h-63v857h63z" />
    <glyph glyph-name="braceright" unicode="}" horiz-adv-x="265" 
d="M61 247q5 60 41 95q-36 34 -41 94q-9 72 -36.5 142.5t-74.5 109.5l33 55q60 -46 96.5 -133t45.5 -169q2 -28 19 -48.5t50 -20.5v-61q-33 0 -50 -20t-19 -50q-12 -85 -47.5 -171.5t-93.5 -129.5l-34 51q94 73 111 256z" />
    <glyph glyph-name="asciitilde" unicode="~" horiz-adv-x="368" 
d="M111 320q32 28 63 28q50 0 95 -67l-51 -38q-30 41 -44 41q-8 0 -18 -10q-32 -32 -68 -32q-46 0 -91 68l56 29q21 -32 34 -32q11 0 24 13z" />
    <glyph glyph-name="nbspace" unicode="&#xa0;" horiz-adv-x="300" 
 />
    <glyph glyph-name="exclamdown" unicode="&#xa1;" horiz-adv-x="184" 
d="M78 -7v561h-64v-561h64zM86 639q0 -19 -11.5 -30t-27.5 -11q-19 0 -32 11t-13 30q0 18 13 31.5t32 13.5q16 0 27.5 -13.5t11.5 -31.5z" />
    <glyph glyph-name="cent" unicode="&#xa2;" horiz-adv-x="410" 
d="M2 429q0 67 47.5 112.5t112.5 45.5q25 0 41 -4q9 25 17 50t9 29l8 24l67 -9q-16 -56 -42 -124q59 -43 59 -142h-65q-1 47 -28.5 79t-65.5 32q-39 0 -67 -27.5t-28 -65.5v-186q0 -38 28 -65t67 -27t66.5 32.5t27.5 80.5h65q0 -74 -47 -126t-112 -52q-26 0 -42 5
q-9 -24 -10 -27q-3 -8 -10.5 -32.5t-11.5 -34.5l-63 15l36 109q-57 51 -59 122v186z" />
    <glyph glyph-name="sterling" unicode="&#xa3;" horiz-adv-x="462" 
d="M344 0h-372l25 63h47v204h-50v64h50v200q0 65 45 109.5t111 44.5q69 0 113.5 -55t41.5 -130h-62q2 49 -25 85t-68 36q-38 0 -65.5 -26.5t-27.5 -63.5v-200h128v-64h-128v-204h237v-63z" />
    <glyph glyph-name="currency" unicode="&#xa4;" horiz-adv-x="467" 
d="M72 420h105v-63h-105v-43h105v-64h-105v-96q1 -45 34.5 -70.5t79.5 -25.5t80 30t34 84h65q0 -84 -53 -131t-125 -47q-73 0 -126 42t-53 118v96h-37v64h37v43h-37v63h37v103q0 75 53 116.5t126 41.5q72 0 125 -46.5t53 -129.5h-64q0 53 -34 82.5t-80 29.5q-47 0 -81 -24.5
t-34 -69.5v-103z" />
    <glyph glyph-name="yen" unicode="&#xa5;" horiz-adv-x="464" 
d="M276 263h-70v-34h70v-64h-70v-165h-65v165h-65v64h65v34h-65v63h50l-75 179l-75 180l68 2q89 -213 131 -325q37 105 132 324l68 -2l-153 -358h54v-63z" />
    <glyph glyph-name="section" unicode="&#xa7;" horiz-adv-x="408" 
d="M153 341q-56 1 -97 28q-3 -11 -3 -22q0 -28 25.5 -44.5t65.5 -18.5q55 -3 101 -36q1 5 1 13q0 34 -27 56t-66 24zM307 262q0 -43 -17 -74q7 -22 9 -47q0 -71 -46.5 -109.5t-111.5 -38.5q-42 0 -84.5 23.5t-70.5 64.5l55 34q41 -58 100 -58q38 0 65.5 22.5t28.5 61.5
q0 37 -26.5 57t-64.5 21q-68 2 -110 38t-42 92q0 31 19 72q-8 23 -9 48q0 69 48 111.5t112 42.5q84 0 141 -89l-55 -29q-39 54 -87 54q-40 0 -72 -30q-21 -23 -23 -60q0 -59 88 -63q64 -2 108.5 -39t44.5 -105z" />
    <glyph glyph-name="dieresis" unicode="&#xa8;" horiz-adv-x="397" 
d="M77 736q17 0 28.5 -13t11.5 -29q0 -18 -11 -28.5t-29 -10.5t-29.5 10.5t-11.5 28.5q0 19 11.5 30.5t29.5 11.5zM199 736q17 0 28 -13t11 -29q0 -18 -11 -28.5t-28 -10.5q-19 0 -30.5 10.5t-11.5 28.5q0 19 11.5 30.5t30.5 11.5z" />
    <glyph glyph-name="copyright" unicode="&#xa9;" horiz-adv-x="619" 
d="M440 424q0 89 -55.5 139.5t-131.5 50.5q-75 0 -130.5 -50.5t-56.5 -139.5v-166q1 -91 56.5 -142.5t130.5 -51.5q76 0 131.5 51.5t55.5 142.5v166zM335 278h61q0 -67 -42 -114.5t-101 -47.5t-100 42t-41 104v155q0 62 41.5 104t99.5 42t100.5 -47t42.5 -115h-61
q0 43 -23.5 71.5t-58.5 28.5q-34 0 -56.5 -24t-22.5 -60v-155q0 -36 22 -61t57 -25t58.5 30t23.5 72zM504 424v-166q0 -122 -74.5 -189.5t-177.5 -67.5q-102 0 -176.5 67.5t-74.5 189.5v166q0 122 74 189t177 67t177.5 -67t74.5 -189z" />
    <glyph glyph-name="ordfeminine" unicode="&#xaa;" horiz-adv-x="391" 
d="M139 191q-61 0 -107 47t-46 110v34q0 62 46 108.5t107 46.5q28 0 54.5 -13t38.5 -37v39q0 37 -27.5 64t-65.5 27q-32 0 -75 -38l-35 56q52 46 110 46q63 0 109.5 -45t46.5 -110v-330h-50l-13 46q-14 -22 -40.5 -36t-52.5 -15zM49 348q0 -38 26.5 -65t63.5 -27
q38 1 65 18.5t27 48.5v76q0 34 -26.5 53.5t-65.5 20.5q-37 0 -63.5 -27t-26.5 -64v-34zM303 75h-298v65h298v-65z" />
    <glyph glyph-name="guillemotleft" unicode="&#xab;" horiz-adv-x="364" 
d="M172 485l-115 -153q1 -2 4.5 -5.5t4.5 -5.5l15 -22l90 -121l-51 -43l-124 173q-1 1 -4 6v-1q-9 14 -8.5 20.5t11.5 20.5l20 27t22 31q17 22 28 38q6 7 17 21.5t15 20.5l22 30zM289 485l-115 -153q3 -4 12 -17q0 -1 5.5 -6.5t7.5 -9.5l89 -121l-51 -43l-125 173q-1 0 -4 5
q-9 12 -8.5 20t12.5 22v-1q7 11 22.5 31t22.5 30q21 27 25 35q28 36 53 72z" />
    <glyph glyph-name="registered" unicode="&#xae;" horiz-adv-x="612" 
d="M379 397q0 -49 -42 -86q42 -37 42 -83v-83h-64v81q0 22 -20.5 37.5t-44.5 15.5h-63v-134h-62v350q0 19 13 33.5t33 14.5h92q47 0 81.5 -34t34.5 -82v-30zM263 479h-76v-136h63q23 0 43 15.5t20 38.5v32q0 21 -14.5 35.5t-35.5 14.5zM433 258v166q0 89 -55.5 139.5
t-131.5 50.5t-131.5 -50.5t-55.5 -139.5v-166q0 -91 55.5 -142.5t131.5 -51.5t131.5 51.5t55.5 142.5zM497 424v-166q0 -122 -74.5 -189.5t-177.5 -67.5q-102 0 -176.5 67.5t-74.5 189.5v166q0 122 74 189t177 67t177.5 -67t74.5 -189z" />
    <glyph glyph-name="macron" unicode="&#xaf;" horiz-adv-x="418" 
d="M-7 702h307v-65h-307v65z" />
    <glyph glyph-name="degree" unicode="&#xb0;" horiz-adv-x="471" 
d="M369 512q0 -78 -56.5 -133t-133.5 -55q-79 0 -133 54.5t-54 133.5q0 77 54.5 133t132.5 56q76 0 133 -56.5t57 -132.5zM304 512q0 52 -36.5 88.5t-88.5 36.5q-51 0 -87.5 -36.5t-36.5 -88.5t36.5 -88.5t87.5 -36.5q53 0 89 36.5t36 88.5z" />
    <glyph glyph-name="acute" unicode="&#xb4;" horiz-adv-x="297" 
d="M28 641l84 139l73 -32l-88 -107h-69z" />
    <glyph glyph-name="mu" unicode="&#xb5;" horiz-adv-x="410" 
d="M304 167h-64v61q-40 -34 -93 -34q-62 0 -91 31v-229h-64v689h63q0 -58 1 -343q4 -34 30.5 -59.5t60.5 -25.5q39 0 66.5 26t27.5 63v338h64z" />
    <glyph glyph-name="paragraph" unicode="&#xb6;" horiz-adv-x="395" 
d="M300 640v-640h-63v269h-90q-64 0 -109.5 45.5t-45.5 108.5v101q0 63 45.5 108.5t109.5 45.5h115q18 0 28 -10.5t10 -27.5zM147 613q-38 0 -64.5 -26t-26.5 -63v-101q0 -37 26.5 -63.5t64.5 -26.5h90v280h-90z" />
    <glyph glyph-name="periodcentered" unicode="&#xb7;" horiz-adv-x="299" 
d="M85 424q35 0 57 -23.5t22 -57.5q0 -35 -21.5 -56.5t-57.5 -21.5q-34 0 -56 21.5t-22 56.5q0 33 22.5 57t55.5 24z" />
    <glyph glyph-name="periodcentered" unicode="&#x2219;" horiz-adv-x="299" 
d="M85 424q35 0 57 -23.5t22 -57.5q0 -35 -21.5 -56.5t-57.5 -21.5q-34 0 -56 21.5t-22 56.5q0 33 22.5 57t55.5 24z" />
    <glyph glyph-name="cedilla" unicode="&#xb8;" horiz-adv-x="434" 
d="M89 42l64 9q-2 -42 17.5 -71t49.5 -29q12 0 41 12l7 -72q-30 -7 -48 -7q-59 0 -100 46t-31 112z" />
    <glyph glyph-name="guillemotright" unicode="&#xbb;" horiz-adv-x="371" 
d="M221 332l-113 153l53 37l51 -70q47 -60 73 -98q11 -14 11.5 -20t-9.5 -21h1q-3 -5 -13.5 -19t-15.5 -22l-99 -137l-50 43l53 74q39 52 58 80zM110 332l-115 153l54 37q32 -46 57 -78l66 -90v1q13 -15 13.5 -21.5t-9.5 -20.5l-63 -86l-66 -92l-51 43l65 87z" />
    <glyph glyph-name="questiondown" unicode="&#xbf;" horiz-adv-x="399" 
d="M-6 153v57q0 93 88 139l-1 -1q47 31 47 81v130h63v-130q0 -89 -76 -136q-57 -31 -57 -84v-56q0 -38 28 -65.5t66 -27.5t65.5 32.5t28.5 80.5l65 -8q-4 -72 -50.5 -120.5t-108.5 -48.5q-65 0 -111.5 45t-46.5 112zM160 614q-15 0 -27 12.5t-12 30.5q0 17 11.5 29t27.5 12
t27.5 -12t11.5 -29q0 -18 -12 -30.5t-27 -12.5z" />
    <glyph glyph-name="Agrave" unicode="&#xc0;" horiz-adv-x="491" 
d="M350 0l-64 246h-188q-56 -217 -63 -246h-69l168 659q7 23 24 36t35 13q17 0 34 -13.5t23 -34.5l171 -660h-71zM196 642l-3 4l2 -9q0 3 1 5zM270 310l-75 327l-82 -327h157zM152 892l82 -151l-68 -1l-82 111z" />
    <glyph glyph-name="Aacute" unicode="&#xc1;" horiz-adv-x="485" 
d="M286 246l64 -246h71l-171 660q-6 21 -23 34.5t-34 13.5q-18 0 -35 -13t-24 -36l-168 -659h69q7 29 63 246h188zM196 642l-3 4l2 -9q0 3 1 5zM195 637l75 -327h-157zM161 741l84 139l73 -32l-88 -107h-69z" />
    <glyph glyph-name="Acircumflex" unicode="&#xc2;" horiz-adv-x="491" 
d="M350 0l-64 246h-188q-56 -217 -63 -246h-69l168 659q7 23 24 36t35 13q17 0 34 -13.5t23 -34.5l171 -660h-71zM196 642l-3 4l2 -9q0 3 1 5zM270 310l-75 327l-82 -327h157zM270 727l-76 59q-7 -4 -20.5 -15t-19.5 -15q-6 -5 -14.5 -11.5l-17 -13t-11.5 -8.5l-38 50l99 73
q21 16 44 0l35 -26q38 -25 60 -46z" />
    <glyph glyph-name="Atilde" unicode="&#xc3;" horiz-adv-x="491" 
d="M350 0l-64 246h-188q-56 -217 -63 -246h-69l168 659q7 23 24 36t35 13q17 0 34 -13.5t23 -34.5l171 -660h-71zM196 642l-3 4l2 -9q0 3 1 5zM270 310l-75 327l-82 -327h157zM172 802q27 25 51 25q35 0 76 -56l-45 -34q-12 12 -21 24q-10 15 -22 3q-28 -26 -49 -26
q-36 0 -73 50l45 32l21 -21v1q8 -6 13 -2z" />
    <glyph glyph-name="Adieresis" unicode="&#xc4;" horiz-adv-x="491" 
d="M286 246l64 -246h71l-171 660q-6 21 -23 34.5t-34 13.5q-18 0 -35 -13t-24 -36l-168 -659h69q7 29 63 246h188zM196 642l-3 4l2 -9q0 3 1 5zM195 637l75 -327h-157zM133 823q17 0 28.5 -13t11.5 -29q0 -18 -11 -28.5t-29 -10.5t-29.5 10.5t-11.5 28.5q0 19 11.5 30.5
t29.5 11.5zM255 823q17 0 28 -13t11 -29q0 -18 -11 -28.5t-28 -10.5q-19 0 -30.5 10.5t-11.5 28.5q0 19 11.5 30.5t30.5 11.5z" />
    <glyph glyph-name="Aring" unicode="&#xc5;" horiz-adv-x="491" 
d="M297 770q0 -41 -31 -71t-73 -30q-43 0 -72 30t-29 71q0 43 29 73t72 30q42 0 73 -30.5t31 -72.5zM233 770q0 17 -11.5 28.5t-28.5 11.5q-15 0 -26.5 -11.5t-11.5 -28.5q0 -16 11.5 -27.5t26.5 -11.5q17 0 28.5 11.5t11.5 27.5zM353 10l-64 246h-188q-56 -217 -63 -246
h-69l168 659q7 23 24 36t35 13q17 0 34 -13.5t23 -34.5l171 -660h-71zM199 652l-3 4l2 -9q0 3 1 5zM273 320l-75 327l-82 -327h157z" />
    <glyph glyph-name="AE" unicode="&#xc6;" horiz-adv-x="729" 
d="M386 700h249v-65l-240 -2v-242h232v-65h-232q0 -50 1 -72v-45q0 -8 0.5 -23.5t0.5 -23.5q1 -47 29 -72t63 -25h146v-65h-146q-61 0 -107 42t-50 112v-2q-7 22 -12.5 42l-8 29.5t-4.5 13.5v-1q-4 8 -4 9h-189l-65 -254l-65 14q49 199 75 295v-1l92 359q15 50 59 50
q42 0 57 -50l71 -306q0 33 -3.5 140t-3.5 151q0 24 16.5 40.5t38.5 16.5zM130 310h157l-78 302l-40.5 -156t-38.5 -146z" />
    <glyph glyph-name="Ccedilla" unicode="&#xc7;" horiz-adv-x="458" 
d="M301 178h67q-1 -86 -56 -135t-128 -49q-76 0 -130 43.5t-54 122.5v382q0 79 53.5 122.5t129.5 43.5q73 0 128.5 -49t56.5 -135h-67q0 55 -34.5 87t-82.5 32q-49 0 -84 -27t-35 -74v-382q1 -47 36 -74t83 -27t82.5 32t34.5 87zM148 32l64 9q-2 -42 17.5 -71t49.5 -29
q12 0 41 12l7 -72q-30 -7 -48 -7q-59 0 -100 46t-31 112z" />
    <glyph glyph-name="Egrave" unicode="&#xc8;" horiz-adv-x="398" 
d="M308 700v-65l-242 -2v-242h231v-65h-231v-164q0 -39 28 -68t67 -29h147v-65h-147q-65 0 -112.5 48.5t-47.5 113.5v481q0 24 17.5 40.5t40.5 16.5h249zM131 885l82 -151l-68 -1l-82 111z" />
    <glyph glyph-name="Eacute" unicode="&#xc9;" horiz-adv-x="398" 
d="M308 635v65h-249q-23 0 -40.5 -16.5t-17.5 -40.5v-481q0 -65 47.5 -113.5t112.5 -48.5h147v65h-147q-39 0 -67 29t-28 68v164h231v65h-231v242zM129 733l84 139l73 -32l-88 -107h-69z" />
    <glyph glyph-name="Ecircumflex" unicode="&#xca;" horiz-adv-x="391" 
d="M308 700v-65l-242 -2v-242h231v-65h-231v-164q0 -39 28 -68t67 -29h147v-65h-147q-65 0 -112.5 48.5t-47.5 113.5v481q0 24 17.5 40.5t40.5 16.5h249zM237 735l-76 59q-6 -4 -20 -15t-20 -15q-8 -7 -25 -20l-18 -13l-38 50l99 73q21 16 44 0l35 -26q38 -25 60 -46z" />
    <glyph glyph-name="Edieresis" unicode="&#xcb;" horiz-adv-x="389" 
d="M308 635v65h-249q-23 0 -40.5 -16.5t-17.5 -40.5v-481q0 -65 47.5 -113.5t112.5 -48.5h147v65h-147q-39 0 -67 29t-28 68v164h231v65h-231v242zM102 829q17 0 28.5 -13t11.5 -29q0 -18 -11 -28.5t-29 -10.5t-29.5 10.5t-11.5 28.5q0 19 11.5 30.5t29.5 11.5zM224 829
q17 0 28 -13t11 -29q0 -18 -11 -28.5t-28 -10.5q-19 0 -30.5 10.5t-11.5 28.5q0 19 11.5 30.5t30.5 11.5z" />
    <glyph glyph-name="Igrave" unicode="&#xcc;" horiz-adv-x="151" 
d="M68 0h-66v700h66v-700zM-7 891l82 -151l-68 -1l-82 111z" />
    <glyph glyph-name="Iacute" unicode="&#xcd;" horiz-adv-x="145" 
d="M-4 0h66v700h-66v-700zM-13 735l84 139l73 -32l-88 -107h-69z" />
    <glyph glyph-name="Icircumflex" unicode="&#xce;" horiz-adv-x="145" 
d="M62 0h-66v700h66v-700zM101 735l-76 59q-7 -4 -20.5 -15t-19.5 -15q-8 -7 -25 -20l-18 -13l-38 50l99 73q21 16 44 0l35 -26q38 -25 60 -46z" />
    <glyph glyph-name="Idieresis" unicode="&#xcf;" horiz-adv-x="145" 
d="M-4 0h66v700h-66v-700zM-34 823q17 0 28.5 -13t11.5 -29q0 -18 -11 -28.5t-29 -10.5t-29.5 10.5t-11.5 28.5q0 19 11.5 30.5t29.5 11.5zM88 823q17 0 28 -13t11 -29q0 -18 -11 -28.5t-28 -10.5q-19 0 -30.5 10.5t-11.5 28.5q0 19 11.5 30.5t30.5 11.5z" />
    <glyph glyph-name="Eth" unicode="&#xd0;" horiz-adv-x="465" 
d="M65 644l-9 -9h9v9zM212 635h-147l1 -570h146q39 0 66.5 28t27.5 67v378q0 39 -27.5 68t-66.5 29zM56 0q-25 0 -41 17t-16 40v587q0 24 17 40t40 16h156q63 0 111 -48t48 -113v-379q0 -68 -47.5 -114t-111.5 -46h-156zM-33 382h201v-65h-201v65z" />
    <glyph glyph-name="Ntilde" unicode="&#xd1;" horiz-adv-x="460" 
d="M93 670l229 -603l-15 93l-5 540h65v-651q0 -23 -13.5 -36t-31.5 -13q-31 0 -44 31l-71.5 182l-86 227.5l-69.5 183.5l13 -103v-521h-64v652q-1 23 13.5 37t34.5 14q16 0 29 -9.5t17 -25.5zM167 807q27 29 55 29q36 0 82 -64l-49 -38q-12 12 -22 27q-7 9 -10.5 10.5
t-13.5 -7.5q-31 -29 -53 -29q-39 0 -78 57l48 36l14 -14.5t9 -9.5v1q4 -4 5.5 -4.5t4.5 0.5t8 6z" />
    <glyph glyph-name="Ograve" unicode="&#xd2;" 
d="M0 159v383q0 77 54.5 120.5t129.5 43.5t129.5 -43.5t54.5 -120.5v-383q0 -78 -54.5 -121.5t-129.5 -43.5t-129.5 43.5t-54.5 121.5zM64 542v-383q0 -47 35.5 -73.5t84.5 -26.5q48 0 83.5 26.5t35.5 73.5v383q0 46 -35.5 72.5t-83.5 26.5q-49 0 -84.5 -26.5t-35.5 -72.5z
M148 887l82 -151l-68 -1l-82 111z" />
    <glyph glyph-name="Oacute" unicode="&#xd3;" 
d="M0 542v-383q0 -78 54.5 -121.5t129.5 -43.5t129.5 43.5t54.5 121.5v383q0 77 -54.5 120.5t-129.5 43.5t-129.5 -43.5t-54.5 -120.5zM64 159v383q0 46 35.5 72.5t84.5 26.5q48 0 83.5 -26.5t35.5 -72.5v-383q0 -47 -35.5 -73.5t-83.5 -26.5q-49 0 -84.5 26.5t-35.5 73.5z
M148 732l84 139l73 -32l-88 -107h-69z" />
    <glyph glyph-name="Ocircumflex" unicode="&#xd4;" 
d="M0 159v383q0 77 54.5 120.5t129.5 43.5t129.5 -43.5t54.5 -120.5v-383q0 -78 -54.5 -121.5t-129.5 -43.5t-129.5 43.5t-54.5 121.5zM64 542v-383q0 -47 35.5 -73.5t84.5 -26.5q48 0 83.5 26.5t35.5 73.5v383q0 46 -35.5 72.5t-83.5 26.5q-49 0 -84.5 -26.5t-35.5 -72.5z
M259 736l-76 59q-6 -4 -20 -15t-20 -15q-6 -5 -14.5 -11.5l-17 -13t-11.5 -8.5l-38 50l99 73q21 16 44 0l35 -26q38 -25 60 -46z" />
    <glyph glyph-name="Otilde" unicode="&#xd5;" 
d="M0 159v383q0 77 54.5 120.5t129.5 43.5t129.5 -43.5t54.5 -120.5v-383q0 -78 -54.5 -121.5t-129.5 -43.5t-129.5 43.5t-54.5 121.5zM64 542v-383q0 -47 35.5 -73.5t84.5 -26.5q48 0 83.5 26.5t35.5 73.5v383q0 46 -35.5 72.5t-83.5 26.5q-49 0 -84.5 -26.5t-35.5 -72.5z
M157 813q27 29 55 29q36 0 82 -64l-49 -38q-12 12 -22 27q-7 9 -10.5 10.5t-13.5 -7.5q-31 -29 -53 -29q-39 0 -78 57l48 36l14 -14.5t9 -9.5v1q4 -4 5.5 -4.5t4.5 0.5t8 6z" />
    <glyph glyph-name="Odieresis" unicode="&#xd6;" 
d="M0 542v-383q0 -78 54.5 -121.5t129.5 -43.5t129.5 43.5t54.5 121.5v383q0 77 -54.5 120.5t-129.5 43.5t-129.5 -43.5t-54.5 -120.5zM64 159v383q0 46 35.5 72.5t84.5 26.5q48 0 83.5 -26.5t35.5 -72.5v-383q0 -47 -35.5 -73.5t-83.5 -26.5q-49 0 -84.5 26.5t-35.5 73.5z
M123 829q17 0 28.5 -13t11.5 -29q0 -18 -11 -28.5t-29 -10.5t-29.5 10.5t-11.5 28.5q0 19 11.5 30.5t29.5 11.5zM245 829q17 0 28 -13t11 -29q0 -18 -11 -28.5t-28 -10.5q-19 0 -30.5 10.5t-11.5 28.5q0 19 11.5 30.5t30.5 11.5z" />
    <glyph glyph-name="Oslash" unicode="&#xd8;" 
d="M0 159v383q0 77 54.5 120.5t129.5 43.5t129.5 -43.5t54.5 -120.5v-383q0 -78 -54.5 -121.5t-129.5 -43.5t-129.5 43.5t-54.5 121.5zM64 542v-383q0 -47 35.5 -73.5t84.5 -26.5q48 0 83.5 26.5t35.5 73.5v383q0 46 -35.5 72.5t-83.5 26.5q-49 0 -84.5 -26.5t-35.5 -72.5z
M344 712l-245 -750h-66l242 750h69z" />
    <glyph glyph-name="Ugrave" unicode="&#xd9;" 
d="M303 700h65v-543q0 -78 -54.5 -121.5t-129.5 -43.5t-129.5 43.5t-54.5 121.5v543h64q0 -486 -1 -543q3 -45 39.5 -72.5t82.5 -27.5q48 0 83 26.5t35 73.5v543zM158 889l82 -151l-68 -1l-82 111z" />
    <glyph glyph-name="Uacute" unicode="&#xda;" 
d="M368 700h-65v-543q0 -47 -35 -73.5t-83 -26.5q-46 0 -82.5 27.5t-39.5 72.5q1 57 1 543h-64v-543q0 -78 54.5 -121.5t129.5 -43.5t129.5 43.5t54.5 121.5v543zM136 733l84 139l73 -32l-88 -107h-69z" />
    <glyph glyph-name="Ucircumflex" unicode="&#xdb;" 
d="M303 700h65v-543q0 -78 -54.5 -121.5t-129.5 -43.5t-129.5 43.5t-54.5 121.5v543h64q0 -486 -1 -543q3 -45 39.5 -72.5t82.5 -27.5q48 0 83 26.5t35 73.5v543zM271 737l-76 59q-7 -4 -20.5 -15t-19.5 -15q-6 -5 -14.5 -11.5l-17 -13t-11.5 -8.5l-38 50l99 73q21 16 44 0
l35 -26q38 -25 60 -46z" />
    <glyph glyph-name="Udieresis" unicode="&#xdc;" 
d="M368 700h-65v-543q0 -47 -35 -73.5t-83 -26.5q-46 0 -82.5 27.5t-39.5 72.5q1 57 1 543h-64v-543q0 -78 54.5 -121.5t129.5 -43.5t129.5 43.5t54.5 121.5v543zM123 825q17 0 28.5 -13t11.5 -29q0 -18 -11 -28.5t-29 -10.5t-29.5 10.5t-11.5 28.5q0 19 11.5 30.5
t29.5 11.5zM245 825q17 0 28 -13t11 -29q0 -18 -11 -28.5t-28 -10.5q-19 0 -30.5 10.5t-11.5 28.5q0 19 11.5 30.5t30.5 11.5z" />
    <glyph glyph-name="Yacute" unicode="&#xdd;" horiz-adv-x="439" 
d="M213 303l169 397h-72q-46 -106 -113 -275l-17 -69l-17 68q-57 146 -114 276h-70l100 -236l68 -160v-304h66v303zM147 731l84 139l73 -32l-88 -107h-69z" />
    <glyph glyph-name="Thorn" unicode="&#xde;" horiz-adv-x="432" 
d="M66 699v-129h117q67 0 114 -48t47 -114v-107q0 -65 -47 -112.5t-114 -47.5h-117v-139l-65 -1v698h65zM183 505h-117v-299h117q40 0 68 28t28 67v107q0 40 -28 68.5t-68 28.5z" />
    <glyph glyph-name="germandbls" unicode="&#xdf;" horiz-adv-x="387" 
d="M2 533q0 66 45 107.5t114 40.5q66 -1 109 -44t43 -110v-45q0 -79 -57 -125q64 -46 64 -124v-75q0 -68 -46 -114.5t-114 -46.5h-74v64h74q40 0 68 28t28 68v76q0 38 -28 65t-67 27h-78v64h77q39 0 64.5 26.5t25.5 64.5v47q0 39 -25.5 65t-63.5 25q-41 0 -68 -22t-27 -61
v-532h-64v531z" />
    <glyph glyph-name="agrave" unicode="&#xe0;" horiz-adv-x="405" 
d="M153 -6q-63 0 -108.5 46.5t-45.5 109.5v36q0 62 45.5 108t108.5 46q29 0 56 -13.5t37 -41.5l-2 45q0 37 -26.5 63.5t-64.5 26.5q-36 0 -75 -37l-37 55q52 47 112 47q63 0 109 -45.5t46 -109.5v-330h-56l-6 44q-26 -50 -93 -50zM63 150q0 -38 26.5 -65t63.5 -27
q36 0 63.5 18t27.5 49v76q0 35 -26 55t-65 20q-37 0 -63.5 -26t-26.5 -64v-36zM129 649l80 -132l-67 -1l-80 97z" />
    <glyph glyph-name="aacute" unicode="&#xe1;" horiz-adv-x="406" 
d="M154 -6q-63 0 -108.5 46.5t-45.5 109.5v36q0 62 45.5 108t108.5 46q29 0 56 -13.5t37 -41.5l-2 45q0 37 -26.5 63.5t-64.5 26.5q-36 0 -75 -37l-37 55q52 47 112 47q63 0 109 -45.5t46 -109.5v-330h-56l-6 44q-26 -50 -93 -50zM64 150q0 -38 26.5 -65t63.5 -27
q36 0 63.5 18t27.5 49v76q0 35 -26 55t-65 20q-38 0 -64 -26t-26 -64v-36zM128 518l74 124l63 -29l-76 -95h-61z" />
    <glyph glyph-name="acircumflex" unicode="&#xe2;" horiz-adv-x="407" 
d="M155 -6q-63 0 -108.5 46.5t-45.5 109.5v36q0 62 45.5 108t108.5 46q29 0 56 -13.5t37 -41.5l-2 45q0 37 -26.5 63.5t-64.5 26.5q-36 0 -75 -37l-37 55q52 47 112 47q63 0 109 -45.5t46 -109.5v-330h-56l-6 44q-26 -50 -93 -50zM65 150q0 -38 26.5 -65t63.5 -27
q36 0 63.5 18t27.5 49v76q0 35 -26 55t-65 20q-37 0 -63.5 -26t-26.5 -64v-36zM237 510l-72 56l-38 -29q-12 -10 -40 -31l-36 47l93 69q20 16 42 0l33 -24q39 -28 57 -44z" />
    <glyph glyph-name="atilde" unicode="&#xe3;" horiz-adv-x="406" 
d="M154 -6q-63 0 -108.5 46.5t-45.5 109.5v36q0 62 45.5 108t108.5 46q29 0 56 -13.5t37 -41.5l-2 45q0 37 -26.5 63.5t-64.5 26.5q-36 0 -75 -37l-37 55q52 47 112 47q63 0 109 -45.5t46 -109.5v-330h-56l-6 44q-26 -50 -93 -50zM64 150q0 -38 26.5 -65t63.5 -27
q36 0 63.5 18t27.5 49v76q0 35 -26 55t-65 20q-38 0 -64 -26t-26 -64v-36zM139 586q26 26 50 26q33 0 75 -58l-45 -35q-5 5 -20 25q-10 15 -22 3q-27 -27 -48 -27q-36 0 -71 52l44 33q5 -5 11.5 -12.5t9.5 -9.5v1q4 -5 7 -4.5t9 6.5z" />
    <glyph glyph-name="adieresis" unicode="&#xe4;" horiz-adv-x="406" 
d="M154 -6q-63 0 -108.5 46.5t-45.5 109.5v36q0 62 45.5 108t108.5 46q29 0 56 -13.5t37 -41.5l-2 45q0 37 -26.5 63.5t-64.5 26.5q-36 0 -75 -37l-37 55q52 47 112 47q63 0 109 -45.5t46 -109.5v-330h-56l-6 44q-26 -50 -93 -50zM64 150q0 -38 26.5 -65t63.5 -27
q36 0 63.5 18t27.5 49v76q0 35 -26 55t-65 20q-38 0 -64 -26t-26 -64v-36zM106 598q17 0 28.5 -13t11.5 -29q0 -18 -11 -28.5t-29 -10.5t-29.5 10.5t-11.5 28.5q0 19 11.5 30.5t29.5 11.5zM228 598q17 0 28 -13t11 -29q0 -18 -11 -28.5t-28 -10.5q-19 0 -30.5 10.5
t-11.5 28.5q0 19 11.5 30.5t30.5 11.5z" />
    <glyph glyph-name="aring" unicode="&#xe5;" horiz-adv-x="406" 
d="M154 -6q-63 0 -108.5 46.5t-45.5 109.5v36q0 62 45.5 108t108.5 46q29 0 56 -13.5t37 -41.5l-2 45q0 37 -26.5 63.5t-64.5 26.5q-36 0 -75 -37l-37 55q52 47 112 47q63 0 109 -45.5t46 -109.5v-330h-56l-6 44q-26 -50 -93 -50zM64 150q0 -38 26.5 -65t63.5 -27
q36 0 63.5 18t27.5 49v76q0 35 -26 55t-65 20q-38 0 -64 -26t-26 -64v-36zM269 527q0 -40 -31 -70t-72 -30q-42 0 -71 29.5t-29 70.5t29 71t71 30q41 0 72 -30.5t31 -70.5zM206 527q0 16 -11.5 27.5t-28.5 11.5q-15 0 -26 -11.5t-11 -27.5t11 -27.5t26 -11.5q17 0 28.5 11.5
t11.5 27.5z" />
    <glyph glyph-name="ae" unicode="&#xe6;" horiz-adv-x="662" 
d="M155 -7q-63 0 -108.5 47t-45.5 110v36q0 62 45.5 108t108.5 46q62 0 91 -33v23q0 37 -27 63.5t-64 26.5q-32 0 -75 -37l-38 55q54 47 113 47q39 0 74.5 -22.5t47.5 -68.5q11 45 46 68.5t77 23.5q63 0 108.5 -45.5t45.5 -109.5q0 -66 -45.5 -110.5t-108.5 -44.5h-91v-30
q2 -35 29 -60.5t62 -25.5q54 0 88 47l53 -37q-51 -74 -141 -74q-27 0 -53 14t-38 39l-9 -50h-44l-10 49q-12 -26 -39.5 -40t-51.5 -15zM64 150q0 -38 26.5 -65t64.5 -27q36 1 63 18.5t27 48.5v76q0 35 -25.5 54.5t-64.5 20.5q-38 0 -64.5 -26.5t-26.5 -63.5v-36zM309 239h91
q38 0 64.5 27t26.5 65q0 37 -26.5 63.5t-64.5 26.5q-36 0 -62.5 -26t-28.5 -63v-93z" />
    <glyph glyph-name="ccedilla" unicode="&#xe7;" horiz-adv-x="406" 
d="M246 169h64q-1 -61 -34.5 -107.5t-83.5 -60.5q9 -16 28.5 -23.5t40.5 -0.5l29 -56q-38 -15 -60 -15q-41 0 -71 24.5t-34 67.5q-54 11 -89.5 53.5t-35.5 98.5v181q0 65 46 110t110 45q62 0 107.5 -50.5t46.5 -123.5h-64q0 46 -26 77.5t-64 31.5t-65 -26.5t-27 -63.5v-181
q0 -38 27 -64.5t65 -26.5q37 0 63.5 32.5t26.5 77.5z" />
    <glyph glyph-name="egrave" unicode="&#xe8;" horiz-adv-x="387" 
d="M309 331q0 -65 -45 -106t-109 -41h-91v-34q0 -37 26.5 -63.5t64.5 -26.5q54 0 88 47l53 -38q-51 -73 -141 -73q-64 0 -109.5 44.5t-45.5 109.5v180q0 63 45 109.5t110 46.5q63 0 108.5 -45.5t45.5 -109.5zM64 239h91q37 0 63.5 27t26.5 65q0 37 -26.5 63.5t-63.5 26.5
q-38 0 -64.5 -27t-26.5 -65v-90zM116 650l74 -136l-61 -1l-74 100z" />
    <glyph glyph-name="eacute" unicode="&#xe9;" horiz-adv-x="378" 
d="M301 331q0 -65 -45 -106t-109 -41h-91v-34q0 -37 26.5 -63.5t64.5 -26.5q54 0 88 47l53 -38q-51 -73 -141 -73q-64 0 -109.5 44.5t-45.5 109.5v180q0 63 45 109.5t110 46.5q63 0 108.5 -45.5t45.5 -109.5zM56 239h91q37 0 63.5 27t26.5 65q0 37 -26.5 63.5t-63.5 26.5
q-38 0 -64.5 -27t-26.5 -65v-90zM107 514l75 124l65 -29l-79 -95h-61z" />
    <glyph glyph-name="ecircumflex" unicode="&#xea;" horiz-adv-x="387" 
d="M310 331q0 -65 -45 -106t-109 -41h-91v-34q0 -37 26.5 -63.5t64.5 -26.5q54 0 88 47l53 -38q-51 -73 -141 -73q-64 0 -109.5 44.5t-45.5 109.5v180q0 63 45 109.5t110 46.5q63 0 108.5 -45.5t45.5 -109.5zM65 239h91q37 0 63.5 27t26.5 65q0 37 -26 63.5t-64 26.5
t-64.5 -27t-26.5 -65v-90zM229 507l-67 52q-6 -4 -19 -14t-16 -13q-34 -25 -38 -29l-33 44l87 65q18 13 38 0l31 -23q36 -24 53 -41z" />
    <glyph glyph-name="edieresis" unicode="&#xeb;" horiz-adv-x="391" 
d="M310 331q0 -65 -45 -106t-109 -41h-91v-34q0 -37 26.5 -63.5t64.5 -26.5q54 0 88 47l53 -38q-51 -73 -141 -73q-64 0 -109.5 44.5t-45.5 109.5v180q0 63 45 109.5t110 46.5q63 0 108.5 -45.5t45.5 -109.5zM65 239h91q37 0 63.5 27t26.5 65q0 37 -26 63.5t-64 26.5
t-64.5 -27t-26.5 -65v-90zM107 593q17 0 28.5 -13t11.5 -29q0 -18 -11 -28.5t-29 -10.5t-29.5 10.5t-11.5 28.5q0 19 11.5 30.5t29.5 11.5zM229 593q17 0 28 -13t11 -29q0 -18 -11 -28.5t-28 -10.5q-19 0 -30.5 10.5t-11.5 28.5q0 19 11.5 30.5t30.5 11.5z" />
    <glyph glyph-name="igrave" unicode="&#xec;" horiz-adv-x="154" 
d="M76 481v-481h-64v481h64zM4 665l74 -144l-62 -1l-75 106z" />
    <glyph glyph-name="iacute" unicode="&#xed;" horiz-adv-x="150" 
d="M75 0v481h-64v-481h64zM14 522l73 126l65 -29l-78 -97h-60z" />
    <glyph glyph-name="icircumflex" unicode="&#xee;" horiz-adv-x="152" 
d="M74 481v-481h-63v481h63zM117 511l-76 59q-6 -4 -20 -15t-20 -15q-6 -5 -14.5 -11.5l-17 -13t-11.5 -8.5l-38 50l99 73q21 16 44 0l35 -26q38 -25 60 -46z" />
    <glyph glyph-name="idieresis" unicode="&#xef;" horiz-adv-x="152" 
d="M74 0v481h-63v-481h63zM-9 625q17 0 28.5 -13t11.5 -29q0 -18 -11 -28.5t-29 -10.5t-29.5 10.5t-11.5 28.5q0 19 11.5 30.5t29.5 11.5zM113 625q17 0 28 -13t11 -29q0 -18 -11 -28.5t-28 -10.5q-19 0 -30.5 10.5t-11.5 28.5q0 19 11.5 30.5t30.5 11.5z" />
    <glyph glyph-name="eth" unicode="&#xf0;" horiz-adv-x="449" 
d="M350 527v-377q0 -76 -51 -116.5t-124 -40.5q-88 0 -150 64l50 42q40 -42 100 -42q46 0 79 24.5t33 68.5v156q-18 -65 -114 -65q-75 0 -126 40t-51 117v129q0 76 52.5 117.5t124.5 41.5t124.5 -41.5t52.5 -117.5zM58 527v-129q0 -44 33.5 -68.5t81.5 -24.5q47 0 80.5 25
t33.5 71v126q0 44 -34 69.5t-79 25.5q-46 0 -80.5 -25t-35.5 -70z" />
    <glyph glyph-name="ntilde" unicode="&#xf1;" horiz-adv-x="407" 
d="M155 422q-37 0 -63.5 -27t-26.5 -64v-331h-64v481h54l8 -48q13 26 40 40t53 14q62 0 108.5 -47.5t46.5 -108.5v-331h-64v331q0 37 -27 64t-65 27zM134 586q26 26 52 26q34 0 77 -58l-46 -34q-9 9 -21 24q-6 9 -9.5 10t-12.5 -7q-29 -26 -50 -26q-37 0 -73 51l45 33
q6 -5 13 -13t8 -9v1q5 -5 8 -4.5t9 6.5z" />
    <glyph glyph-name="ograve" unicode="&#xf2;" horiz-adv-x="413" 
d="M327 332v-182q0 -74 -47.5 -114.5t-111.5 -40.5q-65 0 -112 40.5t-47 114.5v182q0 74 47 114.5t112 40.5t112 -40.5t47 -114.5zM263 150v182q0 42 -28 66.5t-67 24.5q-38 0 -66.5 -24.5t-28.5 -66.5v-182q0 -42 28.5 -66t66.5 -24q39 0 67 23.5t28 66.5zM118 639l77 -121
l-64 -1l-77 89z" />
    <glyph glyph-name="oacute" unicode="&#xf3;" horiz-adv-x="413" 
d="M327 332v-182q0 -74 -47.5 -114.5t-111.5 -40.5q-65 0 -112 40.5t-47 114.5v182q0 74 47 114.5t112 40.5t112 -40.5t47 -114.5zM263 150v182q0 42 -28 66.5t-67 24.5q-38 0 -66.5 -24.5t-28.5 -66.5v-182q0 -42 28.5 -66t66.5 -24q39 0 67 23.5t28 66.5zM126 519l85 120
l74 -27l-89 -93h-70z" />
    <glyph glyph-name="ocircumflex" unicode="&#xf4;" horiz-adv-x="414" 
d="M328 332v-182q0 -74 -47.5 -114.5t-111.5 -40.5q-65 0 -112 40.5t-47 114.5v182q0 74 47 114.5t112 40.5t112 -40.5t47 -114.5zM264 150v182q0 42 -28 66.5t-67 24.5q-38 0 -66.5 -24.5t-28.5 -66.5v-182q0 -42 28.5 -66t66.5 -24q39 0 67 23.5t28 66.5zM239 520l-76 59
q-7 -4 -20.5 -15t-19.5 -15q-6 -5 -14.5 -11.5l-17 -13t-11.5 -8.5l-38 50l99 73q21 16 44 0l35 -26q38 -25 60 -46z" />
    <glyph glyph-name="otilde" unicode="&#xf5;" horiz-adv-x="413" 
d="M327 332v-182q0 -74 -47.5 -114.5t-111.5 -40.5q-65 0 -112 40.5t-47 114.5v182q0 74 47 114.5t112 40.5t112 -40.5t47 -114.5zM263 150v182q0 42 -28 66.5t-67 24.5q-38 0 -66.5 -24.5t-28.5 -66.5v-182q0 -42 28.5 -66t66.5 -24q39 0 67 23.5t28 66.5zM129 594
q27 29 55 29q36 0 82 -64l-49 -38q-12 12 -22 27q-7 9 -10.5 10.5t-13.5 -7.5q-31 -29 -53 -29q-39 0 -78 57l48 36l14 -14.5t9 -9.5v1q4 -4 5.5 -4.5t4.5 0.5t8 6z" />
    <glyph glyph-name="odieresis" unicode="&#xf6;" horiz-adv-x="415" 
d="M329 332v-182q0 -74 -47.5 -114.5t-111.5 -40.5q-65 0 -112 40.5t-47 114.5v182q0 74 47 114.5t112 40.5t112 -40.5t47 -114.5zM265 150v182q0 42 -28 66.5t-67 24.5q-38 0 -66.5 -24.5t-28.5 -66.5v-182q0 -42 28.5 -66t66.5 -24q39 0 67 23.5t28 66.5zM100 606
q17 0 28.5 -13t11.5 -29q0 -18 -11 -28.5t-29 -10.5t-29.5 10.5t-11.5 28.5q0 19 11.5 30.5t29.5 11.5zM222 606q17 0 28 -13t11 -29q0 -18 -11 -28.5t-28 -10.5q-19 0 -30.5 10.5t-11.5 28.5q0 19 11.5 30.5t30.5 11.5z" />
    <glyph glyph-name="oslash" unicode="&#xf8;" horiz-adv-x="412" 
d="M320 340v-180q0 -74 -47.5 -114.5t-111.5 -40.5q-29 0 -48 5q-2 -7 -7 -20.5l-8.5 -23.5l-5.5 -16l-57 23l22 65q-55 45 -55 122v180q0 74 47 115t112 41q27 0 50 -6q1 4 3.5 12.5t4.5 12.5q1 1 3 8t2 9l60 -15l-18 -56q54 -45 54 -121zM66 160q0 -34 14 -54l42 119
l68 204q-18 4 -29 4q-38 0 -66.5 -25t-28.5 -68v-180zM256 160v180q0 26 -13 52q-2 -5 -12 -33.5l-15 -43.5l-36 -103l-48 -139q18 -4 29 -4q39 0 67 24t28 67z" />
    <glyph glyph-name="ugrave" unicode="&#xf9;" horiz-adv-x="400" 
d="M153 -5q-64 0 -108 45.5t-44 108.5v331h64v-331q0 -38 25.5 -64t62.5 -26t63 26t26 64v331h63v-331q0 -64 -43 -109t-109 -45zM124 645l74 -136l-62 -1l-74 100z" />
    <glyph glyph-name="uacute" unicode="&#xfa;" horiz-adv-x="399" 
d="M152 -5q66 0 109 45t43 109v331h-63v-331q0 -38 -26 -64t-63 -26t-62.5 26t-25.5 64v331h-64v-331q0 -63 44 -108.5t108 -45.5zM119 508l70 115l60 -26l-73 -89h-57z" />
    <glyph glyph-name="ucircumflex" unicode="&#xfb;" horiz-adv-x="399" 
d="M152 -5q-64 0 -108 45.5t-44 108.5v331h64v-331q0 -38 25.5 -64t62.5 -26t63 26t26 64v331h63v-331q0 -64 -43 -109t-109 -45zM233 528l-69 54q-6 -4 -18.5 -13.5t-18.5 -13.5l-39 -30l-34 45l90 67q19 15 40 0l32 -24q37 -26 55 -42z" />
    <glyph glyph-name="udieresis" unicode="&#xfc;" horiz-adv-x="400" 
d="M153 -5q66 0 109 45t43 109v331h-63v-331q0 -38 -26 -64t-63 -26t-62.5 26t-25.5 64v331h-64v-331q0 -63 44 -108.5t108 -45.5zM92 607q17 0 28.5 -13t11.5 -29q0 -18 -11 -28.5t-29 -10.5t-29.5 10.5t-11.5 28.5q0 19 11.5 30.5t29.5 11.5zM214 607q17 0 28 -13t11 -29
q0 -18 -11 -28.5t-28 -10.5q-19 0 -30.5 10.5t-11.5 28.5q0 19 11.5 30.5t30.5 11.5z" />
    <glyph glyph-name="yacute" unicode="&#xfd;" horiz-adv-x="406" 
d="M309 -51v531h-64v-348q0 -34 -25.5 -53t-62.5 -19q-37 -1 -65 25t-28 62v333h-64v-333q0 -62 47.5 -106.5t109.5 -44.5q25 0 50.5 11.5t37.5 39.5v-98q0 -37 -26 -63t-63 -26q-39 0 -82 35l-42 -49q27 -22 62 -36.5t62 -14.5q62 0 107 44.5t46 109.5zM94 523l84 139
l73 -32l-88 -107h-69z" />
    <glyph glyph-name="thorn" unicode="&#xfe;" horiz-adv-x="403" 
d="M65 84v-183q0 -5 -32.5 -5t-32.5 5v753h65v-132q33 36 88 36q63 0 109 -47t46 -109v-199q0 -63 -46 -109t-109 -46q-56 0 -88 36zM65 408v-213q0 -15 14 -39v-1q25 -43 74 -43q37 0 64 27t27 64v199q0 38 -27 64.5t-64 26.5q-35 0 -61.5 -25t-26.5 -60zM80 150l-1 3z" />
    <glyph glyph-name="ydieresis" unicode="&#xff;" horiz-adv-x="406" 
d="M309 -51v531h-64v-348q0 -34 -25.5 -53t-62.5 -19q-37 -1 -65 25t-28 62v333h-64v-333q0 -62 47.5 -106.5t109.5 -44.5q25 0 50.5 11.5t37.5 39.5v-98q0 -37 -26 -63t-63 -26q-39 0 -82 35l-42 -49q27 -22 62 -36.5t62 -14.5q62 0 107 44.5t46 109.5zM95 606
q17 0 29 -12.5t12 -27.5q0 -17 -11.5 -27t-29.5 -10q-19 0 -31 10t-12 27t12 28.5t31 11.5zM221 606q17 0 28.5 -12t11.5 -28q0 -17 -11 -27t-29 -10q-20 0 -32 10t-12 27t12.5 28.5t31.5 11.5z" />
    <glyph glyph-name="OE" unicode="&#x152;" horiz-adv-x="752" 
d="M370 700h241v-65l-241 -2v-242h231v-65h-231v-164q0 -39 28 -68t66 -29h147v-65h-147q-38 0 -75.5 26t-49.5 67q-16 -46 -60.5 -72t-93.5 -26q-74 0 -129.5 43.5t-55.5 120.5v383q0 77 55.5 120.5t129.5 43.5q76 0 125 -47q7 21 24.5 31t35.5 10zM67 542v-383
q0 -47 35 -73.5t83 -26.5q49 0 85 26.5t36 73.5v383q0 46 -36 72.5t-85 26.5q-48 0 -83 -26.5t-35 -72.5z" />
    <glyph glyph-name="oe" unicode="&#x153;" horiz-adv-x="681" 
d="M568 331q0 -66 -45.5 -110.5t-108.5 -44.5h-91v-26q0 -37 26.5 -63.5t64.5 -26.5q53 0 89 47l53 -38q-52 -73 -142 -73q-37 0 -71 19.5t-52 52.5q-21 -33 -55.5 -52t-71.5 -19q-64 0 -110.5 40t-46.5 113v182q0 73 47 113.5t111 40.5q37 0 72 -19.5t55 -54.5
q19 35 51.5 54.5t70.5 19.5q63 0 108.5 -45.5t45.5 -109.5zM260 150v182q0 42 -28.5 66.5t-66.5 24.5q-39 0 -67 -24.5t-28 -66.5v-182q0 -43 28 -66.5t67 -23.5q38 0 66.5 24t28.5 66zM323 239h91q38 0 64.5 27t26.5 65q0 37 -26.5 63.5t-64.5 26.5t-64.5 -27t-26.5 -65
v-90z" />
    <glyph glyph-name="Scaron" unicode="&#x160;" horiz-adv-x="438" 
d="M109 881l66 -54l44 36l19 14l46 -45l-87 -65q-23 -18 -45 0l-44 33l-13.5 10l-17.5 12.5t-12 9.5zM0 564q0 77 53 120t127 43q72 0 125.5 -48.5t53.5 -132.5h-65q0 54 -34 85t-80 31q-47 0 -81.5 -26t-34.5 -72v-59q0 -24 10.5 -41.5t31 -28.5t37.5 -16t44 -11
q30 -6 49.5 -11t45 -17t40.5 -27.5t26 -42t11 -60.5v-74q0 -77 -54 -120.5t-127 -43.5q-74 0 -126.5 48t-51.5 134h64q0 -55 33.5 -85.5t80.5 -30.5t81.5 26t34.5 72v74q0 33 -19.5 53.5t-41.5 27.5t-60 13q-33 7 -51.5 11.5t-45 16.5t-40.5 27.5t-25 42.5t-11 63v59z" />
    <glyph glyph-name="scaron" unicode="&#x161;" horiz-adv-x="377" 
d="M93 643l56 -43q31 24 59 41l41 -35l-79 -63q-22 -14 -41 1q-4 4 -20 15t-24 18q-27 19 -37 28zM297 425l-54 -36q-37 54 -83 54q-42 0 -69 -30q-22 -20 -22 -57q-1 -31 21.5 -44.5t61.5 -15.5q63 -2 107 -38t44 -102q1 -69 -45.5 -106.5t-110.5 -37.5q-42 0 -83.5 23.5
t-66.5 66.5l55 29q34 -55 96 -55q37 0 64 21.5t27 58.5q0 35 -25.5 54.5t-62.5 20.5q-66 2 -106 32t-40 93q-1 69 45.5 109.5t108.5 40.5q84 0 138 -81z" />
    <glyph glyph-name="Ydieresis" unicode="&#x178;" horiz-adv-x="421" 
d="M195 303l169 397h-72q-46 -106 -113 -275l-17 -69l-17 68q-57 146 -114 276h-70l100 -236l68 -160v-304h66v303zM98 814q17 0 28.5 -13t11.5 -29q0 -18 -11 -28.5t-29 -10.5t-29.5 10.5t-11.5 28.5q0 19 11.5 30.5t29.5 11.5zM220 814q17 0 28 -13t11 -29
q0 -18 -11 -28.5t-28 -10.5q-19 0 -30.5 10.5t-11.5 28.5q0 19 11.5 30.5t30.5 11.5z" />
    <glyph glyph-name="_142" unicode="&#x17d;" horiz-adv-x="500" 
 />
    <glyph glyph-name="zcaron" unicode="&#x17e;" horiz-adv-x="396" 
d="M100 638l59 -43l56 42l44 -37l-80 -63q-21 -15 -40 0q-4 4 -48 37q-4 3 -11 7.5t-14.5 10.5t-9.5 7zM49 19q-33 0 -46.5 22.5t2.5 52.5l239 345q-39 0 -121 -1.5t-120 -1.5v64h261q24 0 38 -12.5t14 -32.5q0 -18 -12 -36l-238 -340q38 0 116.5 1.5t117.5 1.5v-63h-251z
" />
    <glyph glyph-name="florin" unicode="&#x192;" horiz-adv-x="384" 
d="M288 256h-101q-2 -28 -4 -42q-1 -1 -1 -3v-6q-1 -5 -1 -14q0 -2 -0.5 -7.5t-0.5 -8.5q-1 -4 -1 -12q0 -1 -0.5 -5.5t-0.5 -7.5q-8 -63 -62 -108.5t-122 -45.5v66q44 0 78.5 28t41.5 66q0 2 0.5 5t0.5 5q0 5 0.5 16t1.5 15q0 9 2 23q1 8 1 24v-1q1 8 2 13h-95l1 63h99v3
q0 11 1 15q0 5 2 17q0 3 1 8.5t1 8.5l3 36l3 37q2 38 6 77q7 63 62.5 108.5t123.5 45.5l-1 -63q-44 0 -79 -29t-42 -68q-4 -48 -11 -123l-3 -34.5t-3 -38.5h97v-63zM123 256h-1q0 -4 1 0z" />
    <glyph glyph-name="circumflex" unicode="&#x2c6;" horiz-adv-x="451" 
d="M258 625l-76 59q-6 -4 -20 -15t-20 -15q-6 -5 -14.5 -11.5l-17 -13t-11.5 -8.5l-38 50l99 73q21 16 44 0l35 -26q38 -25 60 -46z" />
    <glyph glyph-name="tilde" unicode="&#x2dc;" horiz-adv-x="365" 
d="M111 717q27 29 55 29q36 0 82 -64l-49 -38q-12 12 -22 27q-7 9 -10.5 10.5t-13.5 -7.5q-31 -29 -53 -29q-39 0 -78 57l48 36l14 -14.5t9 -9.5v1q4 -4 5.5 -4.5t4.5 0.5t8 6z" />
    <glyph glyph-name="endash" unicode="&#x2013;" horiz-adv-x="477" 
d="M5 326h362v-64h-362v64z" />
    <glyph glyph-name="emdash" unicode="&#x2014;" horiz-adv-x="837" 
d="M2 326h692v-64h-692v64z" />
    <glyph glyph-name="quoteleft" unicode="&#x2018;" horiz-adv-x="182" 
d="M6 609l37 100l51 -2l-17 -84q11 -15 11 -26q0 -17 -11.5 -29t-29.5 -12q-20 0 -32.5 15t-8.5 38z" />
    <glyph glyph-name="quoteright" unicode="&#x2019;" horiz-adv-x="177" 
d="M86 653l-28 -120l-43 2l9 98q-21 7 -21 31q0 16 12 28t30 12q20 0 33 -14.5t8 -36.5z" />
    <glyph glyph-name="quotesinglbase" unicode="&#x201a;" horiz-adv-x="162" 
d="M2 1v219l63 1v-221z" />
    <glyph glyph-name="quotedblleft" unicode="&#x201c;" horiz-adv-x="265" 
d="M6 609l37 100l51 -2l-20 -90q14 -3 14 -20t-11.5 -29t-29.5 -12q-20 0 -32.5 15t-8.5 38zM115 609l37 100l51 -2l-18 -90q12 -3 12 -20t-11.5 -29t-29.5 -12q-20 0 -32.5 15t-8.5 38z" />
    <glyph glyph-name="quotedblright" unicode="&#x201d;" horiz-adv-x="258" 
d="M198 655l-37 -100l-51 2l20 90q-14 3 -14 20t11.5 29t29.5 12q20 0 32.5 -15t8.5 -38zM89 655l-37 -100l-51 2l18 90q-12 3 -12 20t11.5 29t29.5 12q20 0 32.5 -15t8.5 -38z" />
    <glyph glyph-name="quotedblbase" unicode="&#x201e;" horiz-adv-x="273" 
d="M10 1v224l64 1v-226zM132 1v224l63 1v-226z" />
    <glyph glyph-name="dagger" unicode="&#x2020;" horiz-adv-x="384" 
d="M174 549h114l1 -63h-115v-485l-64 -1v486h-116l1 63h115v132h64v-132z" />
    <glyph glyph-name="daggerdbl" unicode="&#x2021;" horiz-adv-x="391" 
d="M117 131h-118l-1 63h119v292h-116v63h116v135l64 -1v-134h116l1 -63h-117v-292h114l-1 -63h-113v-131l-64 1v130z" />
    <glyph glyph-name="bullet" unicode="&#x2022;" horiz-adv-x="413" 
d="M321 345q0 -65 -47 -111t-112 -46t-111 45.5t-46 111.5q0 65 46 112t111 47q64 0 111.5 -47t47.5 -112zM257 345q0 39 -28 66.5t-67 27.5q-38 0 -65 -27.5t-27 -66.5q0 -38 27 -65.5t65 -27.5q39 0 67 27.5t28 65.5z" />
    <glyph glyph-name="ellipsis" unicode="&#x2026;" horiz-adv-x="389" 
d="M40 82q17 0 28 -12.5t11 -28.5q0 -18 -11 -29t-28 -11q-18 0 -29 11t-11 29q0 16 11.5 28.5t28.5 12.5zM163 82q17 0 28 -12.5t11 -28.5q0 -18 -11 -29t-28 -11q-19 0 -29.5 11t-10.5 29q0 17 11 29t29 12zM291 82q17 0 28 -12.5t11 -28.5q0 -18 -11 -29t-28 -11
q-18 0 -29 11t-11 29q0 16 11.5 28.5t28.5 12.5z" />
    <glyph glyph-name="perthousand" unicode="&#x2030;" horiz-adv-x="907" 
d="M446 686h71q-68 -114 -366 -575l-71 -112h-73l231 361zM470 158q2 42 -17.5 73.5t-49.5 32.5q-33 1 -50.5 -26.5t-19.5 -70.5q-1 -43 17 -73.5t49 -31.5q33 -1 51 26.5t20 69.5zM532 159q-2 -70 -36.5 -116t-95.5 -45q-58 0 -94 49.5t-35 118.5q1 70 36 117.5t96 46.5
q58 -1 94 -51t35 -120zM192 508q1 42 -18 73t-49 32q-33 1 -51 -26.5t-19 -69.5q-1 -43 17 -73.5t49 -31.5q33 -1 51 26.5t20 69.5zM254 508q-2 -69 -37 -115t-95 -45q-58 0 -94 49.5t-35 118.5q1 70 35.5 117.5t96.5 46.5q58 -1 94 -51.5t35 -120.5zM760 158
q2 42 -17.5 73.5t-49.5 32.5q-33 1 -50.5 -26.5t-19.5 -70.5q-1 -43 17 -73.5t49 -31.5q33 -1 51 26t20 70zM822 159q-2 -70 -36.5 -116t-95.5 -45q-58 0 -94 49.5t-35 118.5q1 71 35.5 118t96.5 46q58 -1 94 -51t35 -120z" />
    <glyph glyph-name="guilsinglleft" unicode="&#x2039;" horiz-adv-x="302" 
d="M187 487l-113 -153l56 -76l57 -77l-51 -44l-128 178v1q-10 13 -9 19.5t12 21.5l60 82l64 86z" />
    <glyph glyph-name="guilsinglright" unicode="&#x203a;" horiz-adv-x="315" 
d="M131 332l-114 153l54 37q11 -16 36.5 -50t26.5 -36l60 -82q10 -13 11 -20t-7 -20v-1l-30 -41l-99 -137l-51 43l64 87z" />
    <glyph glyph-name="trademark" unicode="&#x2122;" horiz-adv-x="708" 
d="M156 620v-301h-64v301h-81v64h230v-64h-85zM321 559l12 -243h-65v332q0 18 9 28t21 10q18 0 32 -21l101 -219l37 92l59 123q4 10 14 16.5t20 6.5q12 0 20.5 -9t8.5 -27v-332h-62l11 239l-48 -109l-29 -59q-11 -25 -31.5 -25t-30.5 24v-1q-17 34 -32.5 68.5l-27.5 62.5
l-15 35z" />
    <glyph glyph-name="NUL" horiz-adv-x="0" 
 />
    <glyph glyph-name="CR" horiz-adv-x="448" 
 />
    <glyph glyph-name="breve" horiz-adv-x="374" 
d="M129 647q-60 0 -108 73l54 27q25 -36 54 -36q31 0 57 35l53 -24q-24 -40 -49.5 -57.5t-60.5 -17.5z" />
    <glyph glyph-name="dotaccent" horiz-adv-x="366" 
d="M116 730q17 0 28 -12.5t11 -28.5q0 -18 -11 -29t-28 -11q-19 0 -29.5 11t-10.5 29q0 17 11 29t29 12z" />
    <glyph glyph-name="ring" horiz-adv-x="393" 
d="M239 712q0 -40 -31 -70t-72 -30q-42 0 -71 29.5t-29 70.5t29 71t71 30q41 0 72 -30.5t31 -70.5zM176 712q0 16 -11.5 27.5t-28.5 11.5q-15 0 -26 -11.5t-11 -27.5t11 -27.5t26 -11.5q17 0 28.5 11.5t11.5 27.5z" />
    <glyph glyph-name="cedilla.001" horiz-adv-x="374" 
d="M187 19l-70 -106l-63 30l85 115z" />
    <glyph glyph-name="hungarumlaut" horiz-adv-x="410" 
d="M1 655l94 138l63 -33l-82 -105h-75zM114 655l94 138l64 -33l-83 -105h-75z" />
    <glyph glyph-name="ogonek" horiz-adv-x="434" 
d="M216 -112q-58 0 -97 44t-31 108l-13 10l78 -1q-2 -39 17 -68t46 -29q9 0 44 10l9 -66q-36 -8 -53 -8z" />
    <glyph glyph-name="caron" horiz-adv-x="497" 
d="M100 762l74 -52q2 1 3.5 3t3.5 3l2 1q2 1 4.5 3t3.5 3q17 13 27 19q4 3 13.5 9.5t10.5 7.5l43 -44l-89 -69q-24 -17 -45 0q-16 14 -31 24q-2 1 -10.5 7t-12.5 10q-3 1 -9 6l-31 23z" />
    <glyph glyph-name="Lslash" horiz-adv-x="342" 
d="M311 0h-267q-25 -2 -42.5 13.5t-17.5 42.5v644h65l1 -635h261v-65zM136 332l-187 -55l-9 63l186 55z" />
    <glyph glyph-name="Omega" horiz-adv-x="429" 
d="M65 317v-316h-65v543q0 70 54 117t130 47v-65q-48 0 -83.5 -29t-35.5 -70v-162h135q4 0 4 -32.5t-4 -32.5h-135zM249 317v-316h-65v543q0 70 54 117t129 47v-65q-48 0 -83 -29t-35 -70v-162h104v-65h-104z" />
    <glyph glyph-name="fraction" horiz-adv-x="366" 
d="M-60 -36l247 760l62 -18l-143 -440l-62 -191l-20.5 -62t-18.5 -57z" />
    <glyph glyph-name="fl" horiz-adv-x="379" 
d="M51 307v-308h-64v528q0 67 52.5 112.5t125.5 45.5v-64q-46 0 -80 -27.5t-34 -66.5v-157h126q5 0 5 -31.5t-5 -31.5h-126zM227 685v-527q0 -39 31 -67t76 -28v-63q-74 0 -122.5 44.5t-48.5 113.5v527h64z" />
    <glyph glyph-name="approxequal" horiz-adv-x="511" 
d="M241 307v-306h-63v526q0 67 52.5 112.5t125.5 45.5v-64q-46 0 -80.5 -27.5t-34.5 -66.5v-157h180v-63h-180zM389 515q15 0 26.5 -10.5t11.5 -26.5q0 -14 -12 -26t-26 -12t-26 12t-12 26q0 16 11.5 26.5t26.5 10.5zM358 0v342q0 5 31.5 5.5t31.5 -5.5v-342h-63zM63 307
v-306h-63v526q0 67 52.5 112.5t125.5 45.5v-64q-46 0 -80.5 -27.5t-34.5 -66.5v-157h180v-63h-180z" />
    <glyph glyph-name="fi" horiz-adv-x="324" 
d="M65 307v-306h-63v526q0 67 52.5 112.5t125.5 45.5v-64q-46 0 -80.5 -27.5t-34.5 -66.5v-157h180v-63h-180zM213 515q15 0 26.5 -10.5t11.5 -26.5q0 -14 -12 -26t-26 -12t-26 12t-12 26q0 16 11.5 26.5t26.5 10.5zM182 0v342q0 5 31.5 5.5t31.5 -5.5v-342h-63z" />
    <glyph glyph-name="radical" horiz-adv-x="515" 
d="M53 310v-309h-64v532q0 68 53 113.5t128 45.5v-63q-48 0 -82.5 -28t-34.5 -68v-159h109q4 0 4 -32t-4 -32h-109zM207 310v-309h-64v532q0 68 53.5 115.5t126.5 47.5h45v-538q0 -39 31 -67t76 -28v-63q-74 0 -122.5 44.5t-48.5 113.5v152h-97zM207 533v-159h97v253
q-41 -6 -69 -32.5t-28 -61.5z" />
    </font>
</defs>
</svg>
