<?xml version="1.0" encoding="utf-8"?>
<!-- Generator: Adobe Illustrator 22.1.0, SVG Export Plug-In . SVG Version: 6.00 Build 0)  -->
<svg version="1.1" id="圖層_1" xmlns="http://www.w3.org/2000/svg" xmlns:xlink="http://www.w3.org/1999/xlink" x="0px" y="0px"
	 viewBox="0 0 450 450" style="enable-background:new 0 0 450 450;" xml:space="preserve">
<style type="text/css">
	.st0{fill:#333333;}
	.st1{fill:#ABBD81;}
	.st2{fill:#494B32;}
</style>
<g>
	<g>
		<g>
			<g>
				<g>
					<path class="st0" d="M411.7,9l-8.4-9l-9.5,8.4c-82.6,73.6-180.4,75.3-221.9,75.8c-5,0-9,0-12.9,0.6
						C74.1,88.8,14.6,153.9,14.6,243.2c0,94.4,73.1,160.6,177,160.6c109.5,0,184.8-75.8,216.3-141C427.4,223.6,453.3,52.8,411.7,9z
						 M192.1,378.1c-90.4,0-151.1-54-151.1-134.8c0-74.7,48.8-129.2,119.7-132.5c3.4,0,7.3,0,11.8-0.6
						c42.7-0.6,139.9-2.2,226.9-72.4c18.5,45.5,3.4,177.5-14,214.1C357.2,310.1,289.8,378.1,192.1,378.1z"/>
				</g>
				<g>
					<path class="st1" d="M399.3,37.6c-87,70.2-184.2,71.9-226.9,72.5c-4.5,0-8.4,0-11.8,0.6c-70.2,3.4-119.7,57.8-119.7,132.5
						c0,80.9,60.7,134.8,151.1,134.8c97.8,0,165.1-68,193.2-126.4C402.7,214.6,418.4,83.2,399.3,37.6z"/>
				</g>
				<g>
					<g>
						<g>
							<path class="st2" d="M41,449.4c-10.1-15.7-15.1-34.2-17.4-53.3c-1.7-19.1,0-38.7,5-57.8c10.1-37.6,34.2-73.6,68-96.7
								c8.4-5.6,17.4-10.6,26.4-14.6c9-3.9,18-7.3,27-10.1c18-5.6,35.4-9.5,52.2-12.9s33.1-6.7,49.5-11.8
								c16.2-5,31.5-11.2,47.2-21.4c-6.7,17.4-20.2,32-35.4,43.8c-15.1,11.8-32,20.7-48.3,28.1c-33.1,14.6-65.2,25.2-89.3,42.1
								s-44.3,40.5-59.6,68C51.6,380.8,42.6,412.9,41,449.4z"/>
						</g>
					</g>
				</g>
			</g>
		</g>
	</g>
</g>
</svg>
