<?xml version="1.0" standalone="no"?>
<!DOCTYPE svg PUBLIC "-//W3C//DTD SVG 1.1//EN" "http://www.w3.org/Graphics/SVG/1.1/DTD/svg11.dtd" >
<svg xmlns="http://www.w3.org/2000/svg">
<metadata></metadata>
<defs>
<font id="lobster_twoitalic" horiz-adv-x="993" >
<font-face units-per-em="2048" ascent="1638" descent="-410" />
<missing-glyph horiz-adv-x="440" />
<glyph unicode="&#xfb01;" horiz-adv-x="933" d="M-377 -340q0 55 26.5 101t73 84t104.5 70t124 58l250 1176q14 66 48 134.5t89 123.5t132 91t179 36q135 0 197.5 -62.5t62.5 -160.5q0 -70 -29.5 -113t-88.5 -43q-49 0 -74 27.5t-25 62.5t21.5 63.5t56.5 34.5q-2 57 -39 78t-82 21q-55 0 -96 -25.5t-70.5 -69.5 t-49 -102.5t-34.5 -122.5l-20 -98h164l-15 -72h-166l-235 -1116q-23 -111 -50.5 -178.5t-61 -105t-73.5 -51t-89 -13.5q-98 0 -164 42t-66 130zM-297 -328q0 -35 19.5 -56.5t54.5 -21.5q59 0 90 67t53 171l14 66q-113 -49 -172 -108.5t-59 -117.5zM506 215q0 37 5 76t13 76 l140 657h206l-149 -696q-10 -41 -10 -92q0 -35 12 -64t51 -29q49 0 99.5 59.5t95.5 164.5h75q-49 -129 -98 -204t-95 -114t-88 -50t-75 -11q-53 0 -88 18.5t-55.5 49t-29.5 71.5t-9 88z" />
<glyph unicode="&#xfb02;" horiz-adv-x="931" d="M-377 -328q0 51 30 95.5t77 83t105.5 69.5t115.5 53l250 1176q12 61 34.5 129t64.5 124t107.5 94t165.5 38q70 0 121 -7t93 -21.5t82 -33t89 -38.5l-239 -1106q-10 -41 -10 -92q0 -35 12 -64t51 -29q49 0 99.5 59.5t95.5 164.5h75q-49 -129 -98 -204t-95 -114t-88 -50 t-75 -11q-53 0 -88 18.5t-55.5 49t-29.5 71.5t-9 88q0 37 5 76t13 76l219 1028q-23 4 -45 7t-73 3q-55 0 -91 -20.5t-61 -57.5t-41 -89t-31 -116l-20 -98h164l-15 -72h-166l-235 -1116q-23 -111 -50.5 -178.5t-61 -105t-74.5 -51t-93 -13.5q-94 0 -159.5 42t-65.5 142z M-297 -326q0 -35 19.5 -57.5t56.5 -22.5q57 0 88 66t53 172l14 66q-113 -49 -172 -108.5t-59 -115.5z" />
<glyph unicode="&#xfb03;" horiz-adv-x="1427" d="M-375 -328q0 45 25.5 87t69.5 79t103.5 70t127.5 61l252 1180q12 61 34.5 129t64.5 124t107.5 94t165.5 38q94 0 149.5 -44t76.5 -114q55 68 139 113t201 45q135 0 197.5 -62.5t62.5 -160.5q0 -70 -30 -113t-89 -43q-49 0 -73.5 27.5t-24.5 62.5t21.5 63.5t56.5 34.5 q-2 57 -39 78t-82 21q-55 0 -96 -25.5t-71 -69.5t-49.5 -102.5t-33.5 -122.5l-21 -98h166l-14 -72h-168l-236 -1116q-20 -96 -51.5 -161.5t-71.5 -107.5t-86.5 -60.5t-95.5 -18.5q-68 0 -134 33t-122 92q-39 -76 -89 -100.5t-118 -24.5q-94 0 -159.5 42t-65.5 142z M-295 -326q0 -35 19.5 -57.5t56.5 -22.5q57 0 88 66t53 172l12 59q-229 -106 -229 -217zM84 -328q73 -78 149 -78q59 0 105.5 57.5t73.5 180.5l45 211q-86 -16 -160 -33.5t-139 -38.5l-29 -135q-23 -100 -45 -164zM174 47q82 23 158 40t139 28l221 1034q6 29 14.5 55.5 t22.5 55.5v18q0 47 -24.5 87t-79.5 40t-91 -20.5t-60.5 -57.5t-41 -89t-31.5 -116l-20 -98h164l-15 -72h-165zM999 215q0 37 5.5 76t13.5 76l139 657h207l-150 -696q-10 -41 -10 -92q0 -35 12.5 -64t51.5 -29q49 0 99 59.5t95 164.5h76q-49 -129 -98 -204t-95.5 -114 t-88.5 -50t-74 -11q-53 0 -88 18.5t-55.5 49t-30 71.5t-9.5 88z" />
<glyph unicode="&#xfb04;" horiz-adv-x="1419" d="M-375 -328q0 45 25.5 87t69.5 79t103.5 70t127.5 61l252 1180q12 61 34.5 129t64.5 124t107.5 94t165.5 38q84 0 137.5 -36t78.5 -93q41 55 106.5 92t163.5 37q70 0 121 -7t93 -21.5t82 -33t89 -38.5l-240 -1106q-10 -41 -10 -92q0 -35 12.5 -64t51.5 -29q49 0 99 59.5 t95 164.5h76q-49 -129 -98.5 -204t-95.5 -114t-88 -50t-74 -11q-53 0 -88 18.5t-55.5 49t-30 71.5t-9.5 88q0 37 5 76t14 76l219 1028q-23 4 -45.5 7t-73.5 3q-55 0 -91 -20.5t-60.5 -57.5t-41 -89t-30.5 -116l-21 -98h164l-14 -72h-166l-236 -1116q-20 -96 -52 -161.5 t-71.5 -107.5t-86 -60.5t-95.5 -18.5q-68 0 -134 31.5t-120 91.5q-39 -74 -89 -98.5t-116 -24.5q-94 0 -159.5 42t-65.5 142zM-295 -326q0 -35 19.5 -57.5t56.5 -22.5q57 0 88 66t53 172l12 59q-229 -106 -229 -217zM82 -330q37 -39 74.5 -57.5t72.5 -18.5q59 0 105.5 57.5 t73.5 180.5l45 211q-84 -16 -157 -33.5t-138 -38.5l-29 -135q-20 -96 -47 -166zM174 47q80 23 156 40t137 28l221 1034q8 35 17.5 70.5t23.5 72.5q-4 43 -28.5 78t-75.5 35q-55 0 -91 -20.5t-60.5 -57.5t-41 -89t-31.5 -116l-20 -98h164l-15 -72h-165z" />
<glyph horiz-adv-x="0" />
<glyph horiz-adv-x="682" />
<glyph unicode=" "  horiz-adv-x="440" />
<glyph unicode="&#x09;" horiz-adv-x="440" />
<glyph unicode="&#xa0;" horiz-adv-x="440" />
<glyph unicode="!" horiz-adv-x="495" d="M12 135q0 55 39 96t96 41q55 0 96.5 -41t41.5 -96q0 -57 -41 -96t-97 -39q-57 0 -96 39t-39 96zM145 473l146 961h229l-266 -961h-109z" />
<glyph unicode="&#x22;" horiz-adv-x="686" d="M190 1149l125 387h174l-186 -387h-113zM516 1149l125 387h174l-186 -387h-113z" />
<glyph unicode="#" horiz-adv-x="1075" d="M-8 289l28 135h246l45 258h-237l28 135h234l119 653h118l-145 -653h270l119 653h119l-145 -653h249l-26 -135h-252l-57 -258h253l-26 -135h-258l-76 -344h-55l61 344h-293l-75 -344h-56l62 344h-250zM342 424h287l45 258h-275z" />
<glyph unicode="$" horiz-adv-x="786" d="M43 451q0 86 40 131t89 45q47 0 86 -47q-23 -4 -38 -18.5t-25.5 -34t-14.5 -42t-4 -43.5q0 -66 36 -102.5t85 -46.5l74 418q-39 29 -79 57.5t-72 62t-52.5 72.5t-20.5 90q0 57 27 104.5t71 81t102.5 53t121.5 21.5l39 217h90l-49 -223q37 -6 70.5 -18t59.5 -32.5 t42 -51.5t16 -70q0 -23 -5 -48.5t-15 -49t-26.5 -38.5t-39.5 -15q-10 0 -29.5 7t-41.5 30q25 25 36 55.5t11 58.5q0 39 -22.5 70t-69.5 43l-78 -348q43 -27 86 -56.5t77.5 -67.5t56 -86t21.5 -112q0 -74 -29.5 -129t-80.5 -93t-121 -57.5t-148 -19.5l-59 -274h-27l50 276 q-106 10 -173 65.5t-67 164.5zM301 1024q0 -47 28.5 -82t71.5 -65l56 315q-43 -4 -73 -21.5t-48.5 -42t-26.5 -52t-8 -52.5zM336 289q78 0 133 53t55 141q0 61 -29.5 106.5t-74.5 84.5z" />
<glyph unicode="%" horiz-adv-x="1259" d="M139 995q0 94 24.5 175t67.5 140.5t103.5 93.5t132.5 34q92 0 130 -59.5t38 -166.5q0 -72 -19.5 -150.5t-59.5 -144t-102.5 -108.5t-146.5 -43q-51 0 -84 18.5t-51 49t-25.5 72.5t-7.5 89zM197 0l790 1536h123l-791 -1536h-122zM252 981q0 -25 4 -49.5t13.5 -43 t25.5 -30.5t43 -12q43 0 78 31.5t61.5 86t40.5 127t14 152.5q0 53 -13 91t-58 38q-43 0 -81 -30.5t-66.5 -85t-45 -125t-16.5 -150.5zM657 229q0 94 25 175t68 140.5t103 93.5t132 34q92 0 130 -59.5t38 -166.5q0 -72 -19.5 -150.5t-59.5 -144t-102.5 -108.5t-146.5 -43 q-51 0 -83.5 18.5t-51 49t-26 72.5t-7.5 89zM770 215q0 -25 4 -49.5t13.5 -43t25.5 -30.5t43 -12q43 0 78 31.5t61.5 86t41 127t14.5 152.5q0 53 -13.5 91t-58.5 38q-43 0 -81 -30.5t-66.5 -85t-45 -125t-16.5 -150.5z" />
<glyph unicode="&#x26;" horiz-adv-x="1323" d="M16 324q0 80 26 159.5t75 150.5t119.5 127t158.5 93q-66 47 -95.5 111.5t-29.5 134.5q0 80 33 157.5t93.5 141t142.5 102.5t180 39q61 0 114.5 -16.5t93.5 -49t62.5 -79.5t22.5 -111q0 -92 -45 -152.5t-107 -60.5q-55 0 -96 55q39 14 79 61.5t40 127.5q0 45 -13.5 73.5 t-33 45t-44 22.5t-47.5 6q-47 0 -96 -22.5t-91 -66.5t-68.5 -110.5t-26.5 -152.5q0 -41 7 -82t25.5 -75.5t50.5 -60.5t81 -36q-90 -18 -160 -65.5t-117 -112t-70.5 -141t-23.5 -156.5q0 -121 62.5 -188.5t195.5 -67.5q100 0 177 39t132.5 105.5t90 151.5t55.5 177 q-39 4 -77 8t-73 4q-135 0 -192 -92l-15 2q29 109 126.5 178.5t248.5 69.5q43 0 80 -5t76 -5q57 0 112.5 20.5t81.5 67.5h13q0 -39 -26 -81t-71 -77t-103 -59.5t-122 -30.5q-25 -129 -81 -244.5t-138 -203t-187.5 -137.5t-228.5 -50q-98 0 -169.5 30t-118 79t-68 114.5 t-21.5 137.5z" />
<glyph unicode="'" horiz-adv-x="360" d="M190 1149l125 387h174l-186 -387h-113z" />
<glyph unicode="(" horiz-adv-x="557" d="M25 205q0 201 47 406.5t134 387t211 322.5t275 215l13 -55q-119 -57 -220.5 -197.5t-176.5 -326t-116.5 -395.5t-41.5 -406q0 -182 35.5 -342t127.5 -277l-57 -49q-121 133 -176 319.5t-55 397.5z" />
<glyph unicode=")" horiz-adv-x="557" d="M-207 -457q119 57 220.5 197.5t176 326t116.5 395.5t42 406q0 182 -36 342t-128 277l58 49q121 -133 176 -319.5t55 -397.5q0 -201 -47 -406.5t-134 -387t-211 -322.5t-276 -215z" />
<glyph unicode="*" horiz-adv-x="835" d="M182 1014l244 141l-244 141l49 82l238 -137v299h106v-299l238 137l49 -82l-246 -141l246 -141l-49 -82l-238 137v-299h-106v299l-238 -137z" />
<glyph unicode="+" horiz-adv-x="878" d="M31 506l32 143h289l56 250h170l-56 -250h293l-31 -143h-292l-64 -293h-170l64 293h-291z" />
<glyph unicode="," horiz-adv-x="434" d="M-37 -223q0 25 12.5 49t27.5 49t28.5 48.5t13.5 45.5q0 29 -11 41.5t-23.5 23.5t-24 30.5t-11.5 60.5q0 68 42 102.5t94 34.5q70 0 99.5 -34.5t29.5 -88.5q0 -51 -22.5 -111.5t-59.5 -116.5t-83 -102.5t-93 -66.5q-18 12 -19 35z" />
<glyph unicode="-" horiz-adv-x="657" d="M84 473l33 143h409l-30 -143h-412z" />
<glyph unicode="." horiz-adv-x="436" d="M-25 125q0 55 39 96t97 41q55 0 96 -41t41 -96q0 -57 -41 -96t-96 -39q-57 0 -96.5 39t-39.5 96z" />
<glyph unicode="/" horiz-adv-x="399" d="M-98 -512l434 2048h102l-434 -2048h-102z" />
<glyph unicode="0" horiz-adv-x="1204" d="M100 510q0 213 49.5 399.5t138.5 325.5t214.5 220t281.5 81q197 0 282 -135t85 -375q0 -106 -16.5 -225t-52 -234.5t-90 -220t-130.5 -184.5t-174 -127t-219 -47q-113 0 -184.5 41t-112.5 111.5t-56.5 165.5t-15.5 204zM346 451q0 -55 8 -110.5t30 -99.5t58.5 -72 t94.5 -28q90 0 165.5 88t130 229.5t85 319.5t30.5 361q0 61 -6 115.5t-22.5 94.5t-48 62.5t-80.5 22.5q-90 0 -171 -85t-141.5 -224.5t-96.5 -315.5t-36 -358z" />
<glyph unicode="1" horiz-adv-x="632" d="M113 0l266 1266h-227l28 106q39 0 87 5t107.5 22.5t130 48.5t154.5 84l-325 -1532h-221z" />
<glyph unicode="2" horiz-adv-x="1067" d="M4 27.5v33.5q0 109 54.5 203t136 184.5t177 178.5t177.5 180t136 192.5t54 217.5t-54 167t-130 50q-31 0 -63.5 -11.5t-59 -33t-44 -55.5t-17.5 -79q0 -18 4 -38.5t13 -40t23.5 -36t37.5 -22.5q-57 -70 -121 -69q-53 0 -97.5 43t-44.5 133q0 55 20.5 110.5t68 99.5 t123 71.5t186.5 27.5q104 0 179 -23.5t121 -66.5t67.5 -104.5t21.5 -135.5q0 -125 -52.5 -226t-132 -187t-176 -161t-184.5 -145.5t-156.5 -143.5t-93.5 -153q31 9 74 9q88 0 185.5 -18.5t199.5 -18.5q55 0 96 8t73 25.5t58.5 44t55.5 63.5q2 -27 2 -47.5v-42.5 q0 -59 -9.5 -102t-37 -73t-76.5 -44.5t-129 -14.5q-78 0 -136.5 11.5t-113.5 26t-114.5 25.5t-135.5 11q-18 0 -39.5 -7t-43 -16.5t-43 -18.5t-36.5 -15q-4 16 -4 33.5z" />
<glyph unicode="3" horiz-adv-x="1095" d="M12 334q0 131 62.5 211t167.5 80q18 0 39.5 -3.5t41 -14.5t35 -30.5t21.5 -50.5q-55 -4 -90 -22.5t-55.5 -47t-27.5 -63.5t-7 -67q0 -61 19.5 -99.5t48 -60t64.5 -28.5t70 -7q88 0 151.5 35t105.5 89t62.5 120.5t20.5 132.5q0 63 -19.5 121.5t-60 106.5t-103 80 t-150.5 40q102 25 179 68t129 95t77.5 110.5t25.5 111.5q0 80 -48 135.5t-138 55.5q-102 0 -156.5 -52.5t-54.5 -117.5q0 -37 19.5 -75t60.5 -69q-35 -33 -71 -48t-66 -15q-53 0 -89 43t-36 121t35.5 137t95 99t133.5 59.5t151 19.5q70 0 135.5 -18.5t116.5 -55.5t82 -93 t31 -132q0 -115 -75 -218.5t-206 -162.5q137 -59 197.5 -158.5t60.5 -210.5q0 -90 -44 -179t-120.5 -159.5t-182 -114.5t-228.5 -44q-45 0 -114.5 10t-135.5 46t-113 104.5t-47 185.5z" />
<glyph unicode="4" horiz-adv-x="989" d="M18 594q27 84 82.5 172t108.5 183t94 196.5t41 214.5q0 31 -8 84t-17 88q37 0 71 -11.5t59.5 -36t41 -66.5t15.5 -103q0 -92 -37 -170t-87 -149.5t-104.5 -140.5t-89.5 -140h383l170 790l228 31l-176 -821h172l-31 -121h-166l-127 -594h-221l127 594h-529z" />
<glyph unicode="5" horiz-adv-x="1046" d="M20 291q0 66 18.5 118t48.5 89t68 57t78 20q47 0 83 -25.5t49 -78.5q-78 -4 -123 -48t-45 -122q0 -94 56 -138t134 -44q82 0 144.5 35.5t103.5 93t61.5 128t20.5 140.5q0 135 -80 210t-211 75q-72 0 -143.5 -29t-120.5 -61l168 788q92 -14 172 -23.5t155 -9.5 q82 0 162 14.5t170 53.5q2 -16 3 -33.5t1 -34.5q0 -90 -50 -147t-179 -57q-41 0 -88 6t-93 15t-88 17.5t-73 12.5l-92 -424q72 35 135 49t121 14q94 0 162.5 -32.5t113.5 -88t66.5 -128t21.5 -154.5q0 -106 -33.5 -206.5t-105.5 -179.5t-183.5 -127t-267.5 -48 q-59 0 -119.5 13t-109.5 47t-80 93.5t-31 149.5z" />
<glyph unicode="6" horiz-adv-x="1107" d="M84 428q0 133 21.5 267t64.5 257t105.5 229.5t144.5 185.5t180 124t215 45q137 0 203.5 -52t66.5 -116q0 -23 -8 -48.5t-24.5 -48t-41 -36.5t-59.5 -14q-14 0 -24 2t-25 6q16 16 26.5 39.5t10.5 46.5q0 57 -35 92t-86 35q-72 0 -138.5 -43t-123.5 -117t-104 -172 t-81 -206.5t-52.5 -221.5t-18.5 -217q0 -176 57.5 -249t173.5 -73q78 0 136.5 43t98.5 107.5t60.5 138.5t20.5 133q0 106 -49 166t-119 60q-74 0 -120 -36t-46 -106q0 -24 6 -51q-33 0 -52 8t-30.5 21.5t-15.5 30t-4 30.5q0 39 18.5 81t54 78t89 58.5t125.5 22.5 q80 0 137 -30t95 -78t56.5 -111.5t18.5 -130.5q0 -109 -38 -214.5t-109.5 -189.5t-173 -135t-226.5 -51q-115 0 -188.5 30.5t-116.5 88t-59.5 138.5t-16.5 183z" />
<glyph unicode="7" horiz-adv-x="1017" d="M170 1370q0 51 19.5 83t52 50.5t76.5 24.5t94 6q66 0 142.5 -8t156.5 -17.5t157.5 -17.5t147.5 -8q41 0 82 3t86 13q0 -39 -49.5 -110.5t-122 -168t-157.5 -212t-157.5 -242.5t-122 -260t-49.5 -262q0 -29 2 -54.5t6.5 -52t10.5 -56.5t16 -67q-35 -16 -67.5 -24t-61.5 -8 q-86 0 -127 72.5t-41 201.5q0 100 48 205.5t121 209t157 200t156.5 181.5t120.5 154.5t48 116.5q-31 6 -75.5 13t-96 12.5t-103.5 9.5t-95 4q-47 0 -90 -7t-77 -25.5t-55.5 -49.5t-25.5 -76q-55 2 -91 48t-36 118z" />
<glyph unicode="8" horiz-adv-x="1077" d="M45 387q0 70 21.5 141.5t65.5 134t111.5 112.5t157.5 79q-86 53 -123.5 126t-37.5 153q0 74 29.5 146.5t87 128.5t137 92t182.5 36q82 0 145.5 -24.5t107.5 -65.5t66.5 -95.5t22.5 -113.5q0 -104 -68.5 -208.5t-206.5 -174.5q66 -23 111 -59.5t72.5 -81.5t40 -95.5 t12.5 -97.5q0 -92 -40 -186t-110.5 -171t-170 -126t-216.5 -49q-96 0 -169.5 32.5t-125 88t-77 128t-25.5 150.5zM250 383q0 -43 12 -87t37 -80t63 -58.5t91 -22.5q61 0 113 31t91 80t61.5 110.5t22.5 122.5q0 92 -50 163t-140 136q-68 -23 -124 -64.5t-95 -96t-60.5 -115 t-21.5 -119.5zM442 1174q0 -72 36 -141.5t108 -114.5q59 33 105 76.5t78 92t48.5 98.5t16.5 95q0 33 -9.5 63.5t-28 55t-48 39t-68.5 14.5q-49 0 -93 -23.5t-76 -62.5t-50.5 -89t-18.5 -103z" />
<glyph unicode="9" horiz-adv-x="1120" d="M115 193q0 27 7 53t23.5 47.5t46 36t72.5 16.5q-16 -16 -19 -30.5t-3 -32.5t6 -43t22.5 -46.5t44 -36t70.5 -14.5q8 0 43 5.5t82 30t101.5 76.5t104.5 147.5t88 239.5t52 355q2 29 3 53.5t1 55.5q0 100 -15.5 166.5t-43 106.5t-65.5 56.5t-81 16.5q-72 0 -130 -40 t-99 -104.5t-64.5 -147.5t-23.5 -169q0 -31 5 -72.5t22.5 -79.5t50.5 -64.5t88 -26.5q49 0 93 41.5t69 119.5q31 -18 40 -48t9 -50q0 -41 -23.5 -75t-61.5 -58.5t-88 -38.5t-102 -14q-80 0 -135 30.5t-91 81.5t-52.5 117t-16.5 137q0 111 38 210t107.5 174t170 118t223.5 43 q111 0 186.5 -33t121.5 -95t66.5 -150.5t20.5 -198.5q0 -201 -52 -392.5t-145.5 -342t-222.5 -242.5t-284 -92q-72 0 -121 17.5t-80 46t-45 64.5t-14 75z" />
<glyph unicode=":" horiz-adv-x="520" d="M51 297q0 55 39 96t96 41q55 0 96.5 -41t41.5 -96q0 -57 -41 -96t-97 -39q-57 0 -96 39t-39 96zM150 791q0 55 38.5 96t96.5 41q55 0 96 -41t41 -96q0 -57 -41 -96.5t-96 -39.5q-57 0 -96 39.5t-39 96.5z" />
<glyph unicode=";" horiz-adv-x="509" d="M33 -53q0 25 12 49t27.5 49t29 48.5t13.5 45.5q0 29 -11.5 41.5t-23.5 23.5t-23.5 30.5t-11.5 60.5q0 68 42 102.5t93 34.5q53 0 95 -35t42 -102q0 -29 -20.5 -78t-56 -104.5t-83.5 -109.5t-106 -91q-18 12 -18 35zM143 791q0 55 39 96t97 41q55 0 96 -41t41 -96 q0 -57 -41 -96.5t-96 -39.5q-57 0 -96.5 39.5t-39.5 96.5z" />
<glyph unicode="&#x3c;" horiz-adv-x="733" d="M14 487l19 84l629 308l-21 -113l-494 -246l398 -196l-25 -117z" />
<glyph unicode="=" horiz-adv-x="966" d="M55 272l35 164h696l-32 -164h-699zM131 647l35 164h696l-33 -164h-698z" />
<glyph unicode="&#x3e;" horiz-adv-x="741" d="M23 207l28 117l492 196l-398 246l19 113l504 -308l-23 -110z" />
<glyph unicode="?" horiz-adv-x="856" d="M150 1104q0 51 23.5 109.5t75.5 107.5t133 81t198 32q86 0 147 -19.5t101 -53.5t59.5 -79t19.5 -96q0 -88 -32.5 -154.5t-83 -120t-110.5 -100.5t-117.5 -96t-102.5 -106.5t-66 -133.5h-94q0 72 30.5 130.5t77 109.5t99.5 100t99 103.5t77 118t31 145.5q0 86 -52.5 123.5 t-121.5 37.5q-41 0 -81 -13t-72 -38.5t-52.5 -60.5t-20.5 -78q0 -18 7.5 -38.5t23.5 -40t43 -35t66 -21.5q-27 -43 -67 -64.5t-83 -21.5q-59 0 -107 43t-48 129zM164 135q0 55 39 96t96 41q55 0 96 -41t41 -96q0 -57 -41 -96t-96 -39q-57 0 -96 39t-39 96z" />
<glyph unicode="@" horiz-adv-x="1124" d="M33 336q0 168 55 314.5t150.5 255t222.5 172t270 63.5q47 0 103.5 -10.5t105.5 -44t82 -97t33 -170.5q0 -100 -28 -196.5t-76 -173t-113.5 -123.5t-139.5 -47q-37 0 -61.5 14t-38.5 37q-23 -35 -56.5 -59.5t-76.5 -24.5q-55 0 -92 44t-37 136q0 68 22.5 147.5t60.5 149.5 t88 116t105 46q29 0 49.5 -10.5t30.5 -24.5l8 31l113 -13l-92 -393q-4 -12 -9 -32.5t-5 -41.5q0 -16 7 -28.5t23 -12.5q39 0 79 44.5t71 110t50 142t19 144.5q0 47 -11 92t-37.5 81t-70.5 57.5t-112 21.5q-117 0 -214 -64.5t-167 -164t-108.5 -219.5t-38.5 -228 q0 -66 15 -123t51 -98t96.5 -64.5t150.5 -23.5q109 0 192.5 46t118.5 119q29 -12 38 -37.5t9 -50.5q0 -49 -29.5 -90t-84 -70.5t-132 -46t-171.5 -16.5q-72 0 -147 20.5t-135 68.5t-98 127t-38 198zM442 459q0 -14 3.5 -32.5t9.5 -35t18 -28t31 -11.5q29 0 46.5 14t31.5 37 q0 20 6 39l88 344q-8 12 -18.5 21.5t-24.5 9.5q-41 0 -76 -41t-60.5 -98t-40 -118.5t-14.5 -100.5z" />
<glyph unicode="A" horiz-adv-x="1234" d="M-80 692q0 55 34 99.5t93 75t139 47t170 16.5q20 0 41 -1t43 -3q78 125 166 235.5t180.5 193.5t187.5 132t187 49q31 0 76 -6t82 -23l-322 -1507h-223l156 735q-70 39 -168 65.5t-199 37.5q-59 -119 -109.5 -245t-87 -248t-58 -234.5t-21.5 -204.5q0 -82 18 -139 q-39 0 -80 7t-74.5 30.5t-55 65.5t-21.5 114t23.5 170t64.5 211.5t99 236.5t130 244q-61 -2 -115.5 -12.5t-95.5 -26.5t-64.5 -39t-23.5 -49q29 -10 35 -24.5t6 -26.5q0 -47 -32.5 -64.5t-67.5 -17.5q-43 0 -78 23.5t-35 82.5zM598 905q100 -16 191.5 -45t152.5 -61l135 637 q-53 -2 -112.5 -44t-122 -114t-125 -167t-119.5 -206z" />
<glyph unicode="B" horiz-adv-x="1390" d="M115 993q0 106 61.5 203.5t164.5 173.5t237.5 121t279.5 45q113 0 195 -27.5t136 -72.5t79.5 -103.5t25.5 -122.5q0 -92 -53 -181t-156 -146q119 -27 182.5 -119t63.5 -209q0 -74 -21.5 -175t-73.5 -193.5t-138 -157t-215 -64.5q-92 0 -149.5 36t-57.5 105q0 23 7 51.5 t19 53.5q25 -47 64 -63.5t80 -16.5q68 0 113 39t73.5 99.5t40.5 130t12 130.5q0 57 -9 108.5t-34.5 88.5t-71.5 58.5t-118 21.5q-10 0 -45 -2t-70 -6l-170 -799h-225l283 1313l229 30l-98 -462h37q70 0 131 31.5t107 80.5t71.5 109.5t25.5 118.5q0 47 -19 91t-58 77.5 t-97.5 53t-136.5 19.5q-94 0 -188 -31.5t-171 -95t-125 -162t-48 -229.5q0 -63 12 -94t16 -45q-92 0 -145 42t-53 146z" />
<glyph unicode="C" horiz-adv-x="1036" d="M92 469q0 92 15.5 208t50.5 233.5t90 230t135 201t187.5 141.5t244.5 53q68 0 129.5 -15.5t106.5 -48t71.5 -86t26.5 -129.5q0 -78 -33 -131t-110 -53q-25 0 -48.5 9.5t-37.5 27.5q29 16 58.5 77.5t29.5 137.5q0 68 -40 102.5t-112 34.5q-82 0 -151.5 -43t-127 -116.5 t-101.5 -170t-74.5 -205t-46 -220t-15.5 -213.5q0 -72 10 -138.5t44 -119t97.5 -83t167.5 -30.5q141 0 239.5 60.5t178.5 185.5l47 -21q-41 -92 -106.5 -162.5t-145 -120t-172 -74t-186.5 -24.5q-201 0 -311.5 120t-110.5 382z" />
<glyph unicode="D" horiz-adv-x="1441" d="M115 995q0 104 61.5 202.5t164.5 173.5t239.5 120t287.5 45q152 0 257.5 -46t172 -128t96 -191.5t29.5 -236.5q0 -113 -22.5 -227.5t-63.5 -221t-95 -201t-117.5 -163t-133 -108.5t-139.5 -40q-61 0 -124.5 29t-133.5 90l-19 -92h-225l283 1313l229 30l-254 -1183 q66 -53 133 -54q76 0 138.5 42t112.5 114t86 165t60.5 195.5t37 207t12.5 198.5q0 121 -22.5 204t-67.5 134t-114 73.5t-159 22.5q-104 0 -205.5 -34.5t-180.5 -100t-127 -161t-48 -216.5q0 -63 26.5 -97t43.5 -48q-102 0 -160.5 43t-58.5 147z" />
<glyph unicode="E" horiz-adv-x="915" d="M25 324q0 80 25.5 159.5t74.5 150.5t119.5 127t158.5 93q-66 47 -95 111.5t-29 134.5q0 80 32.5 157.5t93 141t142.5 102.5t180 39q61 0 114.5 -16.5t93.5 -49t62.5 -79.5t22.5 -111q0 -92 -45 -152.5t-107 -60.5q-55 0 -96 55q39 14 79 61.5t40 127.5q0 45 -13.5 73.5 t-33 45t-44 22.5t-46.5 6q-47 0 -96.5 -22.5t-91.5 -66.5t-68.5 -110.5t-26.5 -152.5q0 -41 7 -82t25.5 -75.5t50.5 -60.5t81 -36q-90 -18 -159.5 -65.5t-117 -112t-71 -141t-23.5 -156.5q0 -121 62.5 -188.5t195.5 -67.5q72 0 138.5 19.5t122 53t99.5 77.5t72 94l47 -21 q-41 -90 -104 -161.5t-143 -121t-170 -76t-183 -26.5q-98 0 -169.5 30t-117.5 79t-67.5 114.5t-21.5 137.5z" />
<glyph unicode="F" horiz-adv-x="1134" d="M127 1012q0 98 40 192t123 168t209 119t298 45q53 0 97 -4t87 -8t87 -8.5t95 -4.5t97.5 5.5t89.5 19.5q-18 -72 -43 -114t-53.5 -63.5t-62.5 -28.5t-69 -7q-66 0 -132 11.5t-132 25.5l-100 -469h305l-29 -121h-303l-164 -770h-225l301 1397q-10 2 -20.5 2h-20.5 q-63 0 -122.5 -19.5t-104.5 -69.5t-72 -134t-27 -213q0 -66 11.5 -104t27.5 -54q-92 0 -140 45t-48 162z" />
<glyph unicode="G" horiz-adv-x="1210" d="M102 731q0 156 51.5 301.5t146.5 258t231.5 179t306.5 66.5q72 0 141.5 -14.5t123.5 -47t87 -87t33 -134.5q0 -72 -33 -126t-111 -54q-12 0 -30.5 2t-38 8.5t-39 16.5t-33.5 26q6 0 24.5 7.5t40 28t38 54t16.5 87.5q0 76 -40 117.5t-124 41.5q-115 0 -214 -64.5 t-173 -169t-116 -236.5t-42 -267q0 -160 61.5 -259t180.5 -99q129 0 228.5 124.5t164.5 366.5l199 -2l-168 -770q-25 -117 -65 -212t-99 -160.5t-140 -101.5t-188 -36q-92 0 -152.5 24.5t-97 63.5t-52 89t-15.5 104q0 53 14 103t47 90t85 64.5t128 24.5q20 0 51 -4 t58.5 -17.5t47 -41t19.5 -74.5q0 -37 -12 -82q-29 39 -65.5 57.5t-75.5 18.5q-61 0 -109.5 -47t-48.5 -125q0 -76 47 -122t119 -46q35 0 70.5 13.5t69.5 45t61.5 83.5t46.5 132l104 478q-70 -92 -160 -138.5t-194 -46.5q-90 0 -165 35t-128 99.5t-83 158.5t-30 215z" />
<glyph unicode="H" horiz-adv-x="1427" d="M119 993q0 109 58.5 207t150.5 173t207.5 119t230.5 44q23 0 43 -1t41 -3l-137 -641h440l125 577l238 64l-326 -1532h-225l163 770h-440l-164 -770h-225l305 1430q-147 -51 -238.5 -177.5t-91.5 -306.5q0 -66 12.5 -96.5t37.5 -44.5q-88 0 -146.5 43t-58.5 145z" />
<glyph unicode="I" horiz-adv-x="827" d="M115 993q0 109 64.5 207t167 173t230.5 119t254 44q23 0 43.5 -1t40.5 -3l-325 -1532h-225l301 1417q-86 -23 -156 -62.5t-120 -98t-77.5 -133t-27.5 -162.5q0 -72 15 -104t34 -52q-102 0 -160.5 42t-58.5 146z" />
<glyph unicode="J" horiz-adv-x="901" d="M-147 -147q0 57 16 109t50 91t88 62.5t130 23.5q20 0 48 -4t52.5 -17.5t42 -41t17.5 -74.5q0 -16 -6 -37.5t-12 -44.5q-20 33 -56.5 52.5t-64.5 19.5q-37 0 -67 -16.5t-50.5 -41t-31.5 -55.5t-11 -59q0 -68 49 -115t115 -47q29 0 66.5 13.5t75.5 44t70 82.5t48 132 l315 1487q-180 -41 -279.5 -164t-99.5 -288q0 -80 16.5 -113t33.5 -47q-102 0 -161 42t-59 146q0 109 64.5 207t167 173t230.5 119t257 44h82l-307 -1454q-25 -113 -64.5 -206t-101 -159.5t-146.5 -103.5t-200 -37q-88 0 -148.5 21.5t-98.5 59.5t-54 88t-16 108z" />
<glyph unicode="K" horiz-adv-x="1325" d="M115 993q0 109 64.5 207t167 173t230.5 119t254 44q23 0 43.5 -1t40.5 -3l-141 -662l508 656h180l-598 -658q27 2 49.5 3t38.5 1q78 0 129.5 -16t82 -46t43 -71t12.5 -88q0 -61 -15.5 -131.5t-35 -139.5t-35 -131.5t-15.5 -109.5q0 -51 21.5 -88t58.5 -51 q-66 -18 -105.5 -26.5t-76.5 -8.5q-78 0 -112 43t-34 90q0 53 18.5 122t41 141.5t41 142t18.5 125.5q0 96 -42 131t-107 35q-37 0 -84 -11l-166 -784h-225l303 1417q-88 -23 -161 -62.5t-125 -98t-81 -133t-29 -162.5q0 -72 12.5 -104t30.5 -52q-84 0 -142 43t-58 145z" />
<glyph unicode="L" horiz-adv-x="917" d="M111 973q0 109 64.5 207t166.5 172.5t230 119t255 44.5q23 0 43.5 -1.5t40.5 -3.5l-315 -1472q70 -18 141.5 -58t146 -81t153.5 -72t167 -31q39 0 81 6.5t89 26.5q-16 -129 -70.5 -200.5t-156.5 -71.5q-53 0 -108.5 29.5t-114 73.5t-120 95t-126 95.5t-133 74 t-142.5 29.5h-23t-24 -2l308 1444q-172 -43 -277.5 -161t-105.5 -296q0 -72 15 -103.5t34 -52.5q-102 0 -160.5 42t-58.5 147z" />
<glyph unicode="M" horiz-adv-x="1536" d="M117 0l530 1434q-174 -37 -265 -165t-91 -323q0 -74 9 -100.5t19 -40.5q-90 0 -144 42t-54 142q0 70 29.5 137.5t77.5 129t113 112.5t133.5 88t139 58.5t131.5 21.5q35 0 66 -6t55 -23l-53 -1190l498 1190h233l-215 -1507h-233l151 1069l-446 -1069h-219l47 1049 l-389 -1049h-123z" />
<glyph unicode="N" horiz-adv-x="1458" d="M123 1004q0 92 46 186t124 171t181.5 126t219.5 49q35 0 70 -6t67 -23l281 -1274l285 1299h157l-348 -1532h-262l-258 1104l-254 -1104h-153l321 1415q-150 -43 -239 -154.5t-89 -299.5q0 -72 16.5 -104t33.5 -52q-98 0 -148.5 44t-50.5 155z" />
<glyph unicode="O" horiz-adv-x="1427" d="M111 977q0 106 68.5 207.5t182 179.5t261 125t303.5 47q137 0 232 -38t153.5 -107.5t84 -165t25.5 -207.5q0 -100 -18.5 -216t-58 -229.5t-100 -220t-143.5 -187.5t-190.5 -129t-238.5 -48q-84 0 -152.5 22.5t-118 71.5t-76 127t-26.5 190q0 82 15.5 185.5t46 211 t76.5 209t108.5 180.5t139.5 127t171 48q23 0 49.5 -3.5t55.5 -13.5q-53 -29 -105.5 -88t-98.5 -139t-85 -173t-68 -189.5t-44 -190.5t-15 -172q0 -117 40 -182.5t140 -65.5q84 0 167 86t149.5 223.5t107.5 308.5t41 343q0 94 -15.5 162.5t-51.5 111.5t-96 63.5t-150 20.5 q-115 0 -222.5 -38t-191.5 -108.5t-135.5 -172t-51.5 -225.5q0 -53 4.5 -75t16.5 -38q-88 0 -137 39t-49 133z" />
<glyph unicode="P" horiz-adv-x="1230" d="M115 993q0 109 63.5 207t167 173t235.5 119t267 44q119 0 207 -34t146.5 -89t87 -129t28.5 -154q0 -96 -41 -193t-117 -176t-186.5 -128t-247.5 -49h-45l-125 -584h-225l282 1313l230 30l-150 -696q111 2 193 51.5t137 125t81.5 167.5t26.5 180q0 57 -14 110.5t-52 93.5 t-101.5 63.5t-161.5 23.5q-104 0 -200.5 -33.5t-169.5 -99t-117 -161t-44 -220.5q0 -68 16.5 -100.5t26.5 -42.5q-92 0 -145 42t-53 146z" />
<glyph unicode="Q" horiz-adv-x="1460" d="M111 975q0 109 68.5 210t182 179t259 125t297.5 47q139 0 235 -40t154.5 -110.5t84 -165t25.5 -200.5q0 -111 -25.5 -240t-75.5 -254t-127 -235.5t-179 -186.5q25 -33 51 -62.5t58 -52t72 -35.5t91 -13q16 0 26.5 1t22.5 3q-33 -72 -76 -101.5t-108 -29.5 q-59 0 -100 19.5t-70 50t-49.5 69.5t-38.5 80q-53 -23 -108.5 -34t-116.5 -11q-80 0 -146.5 22.5t-116 71.5t-76 127t-26.5 190q0 82 15.5 185.5t46 211t76.5 209t108.5 180.5t139.5 127t171 48q23 0 49.5 -3.5t55.5 -13.5q-53 -29 -105.5 -88t-98.5 -139t-85 -173 t-68 -189.5t-44 -188.5t-15 -168q0 -33 2 -61.5t8 -52.5q47 14 88 19t70 5q59 0 104 -19.5t80 -49.5q61 63 115.5 158.5t93.5 210t61.5 240.5t22.5 253q0 96 -15.5 164.5t-50 112.5t-94 64.5t-145.5 20.5q-117 0 -227.5 -36.5t-194.5 -107.5t-135.5 -175.5t-51.5 -241.5 q0 -33 4.5 -57.5t16.5 -38.5q-86 0 -136 39t-50 131zM578 223q41 -80 129 -80q55 0 108 31q-23 33 -54.5 52.5t-78.5 19.5q-23 0 -49.5 -5t-54.5 -18z" />
<glyph unicode="R" horiz-adv-x="1341" d="M115 993q0 106 61.5 203.5t164.5 173.5t236.5 121t274.5 45q109 0 192.5 -26.5t140 -71.5t85 -105.5t28.5 -126.5q0 -96 -60 -191t-175 -155q90 -20 123 -75.5t33 -133.5q0 -61 -15.5 -131.5t-35 -139.5t-35 -131.5t-15.5 -109.5q0 -51 21.5 -88t58.5 -51 q-66 -18 -105.5 -26.5t-76.5 -8.5q-78 0 -112 43t-34 90q0 53 18.5 122t41 141.5t41 142t18.5 125.5q0 96 -42 131t-107 35q-23 0 -57.5 -4.5t-61.5 -10.5l-166 -780h-225l282 1313l230 30l-103 -477h54q72 0 132 34t105 87t69.5 118.5t24.5 127.5q0 45 -14 86t-48 72.5 t-91.5 51t-145.5 19.5q-111 0 -209 -35.5t-171.5 -102.5t-116.5 -163t-43 -217q0 -72 7 -98.5t17 -40.5q-37 0 -71.5 10t-62.5 32.5t-44 58.5t-16 87z" />
<glyph unicode="S" horiz-adv-x="1015" d="M-2 307q0 84 27.5 147.5t70.5 105.5t94.5 63.5t98.5 21.5q53 0 95 -30.5t54 -104.5q-43 0 -86 -11.5t-77.5 -35t-57 -62.5t-22.5 -94q0 -49 17 -88t46 -64.5t66.5 -40t78.5 -14.5q49 0 97.5 17.5t86.5 54.5t62.5 92t24.5 129q0 88 -31 159t-78 131t-101 116.5t-101.5 113 t-78 119t-30.5 137.5q0 80 37 147.5t100.5 116t148.5 76t183 27.5q35 0 88 -7t103.5 -31.5t86 -73t35.5 -130.5q0 -94 -47 -152.5t-115 -58.5q-29 0 -46 10.5t-33 32.5q41 25 67.5 75t26.5 106q0 29 -8.5 57.5t-27.5 50t-52 34.5t-82 13q-113 0 -181.5 -54t-68.5 -159 q0 -78 34 -133t85 -104t111.5 -98.5t111.5 -112t85 -144.5t34 -198q0 -125 -41 -218.5t-111.5 -154.5t-164 -92t-195.5 -31q-80 0 -155 18.5t-134 60.5t-95 107.5t-36 157.5z" />
<glyph unicode="T" horiz-adv-x="1374" d="M127 1014q0 98 38 191t123 166t219 118t329 45q82 0 146.5 -7t122.5 -16.5t113.5 -16.5t118.5 -7q86 0 147.5 13t102.5 30q-4 -123 -68.5 -181.5t-193.5 -58.5q-74 0 -156 15.5t-170 31.5l-284 -1337h-226l295 1372q-20 2 -39.5 3t-39.5 1q-102 0 -183.5 -19.5 t-136.5 -65.5t-84 -122.5t-29 -193.5q0 -78 13.5 -115t27.5 -57q-41 0 -74.5 10t-58 34.5t-39 65.5t-14.5 101z" />
<glyph unicode="U" horiz-adv-x="1576" d="M113 993q0 109 64.5 207t169 173t235.5 119t264 44q27 0 46 -2t52 -8q-72 -264 -124 -453.5t-86 -324t-50 -224.5t-16 -157q0 -53 6 -94.5t25.5 -70t55.5 -44t95 -15.5q49 0 93 9.5t83 38t75 80t70.5 135t69.5 204.5t72 289l137 633h221l-135 -639 q-49 -233 -101.5 -404.5t-130 -283t-192.5 -165.5t-287 -54q-111 0 -186.5 21.5t-121.5 64.5t-66.5 104.5t-20.5 140.5q0 147 51 357.5t117 472.5l74 301q-190 -37 -301 -169t-111 -331q0 -76 12.5 -101.5t18.5 -39.5q-72 0 -125 46t-53 140z" />
<glyph unicode="V" horiz-adv-x="1351" d="M121 993q0 109 45 207t128 173t199.5 119t260.5 44q23 0 44 -2t42 -6l34 -1364l523 1362h116l-616 -1526h-227l-56 1419q-96 0 -163.5 -38t-110.5 -99t-63.5 -137t-20.5 -152q0 -106 43 -186q-35 0 -66.5 8t-56 29.5t-40 57.5t-15.5 91z" />
<glyph unicode="W" horiz-adv-x="2060" d="M121 993q0 109 45 207t128 173t199.5 119t260.5 44q23 0 44 -2t42 -6l34 -1364l523 1362h151l35 -1362l522 1362h117l-616 -1526h-228l-39 1094l-442 -1094h-227l-56 1419q-96 0 -163.5 -38t-110.5 -99t-63.5 -137t-20.5 -152q0 -106 43 -186q-35 0 -66.5 8t-56 29.5 t-40 57.5t-15.5 91z" />
<glyph unicode="X" horiz-adv-x="1296" d="M123 993q0 121 53 221.5t140 172t197 111.5t222 40q43 0 84 -6l170 -698l334 692h96l-401 -813l174 -713h-221l-158 627l-328 -627h-96l393 748l-178 714q-72 -18 -134 -65t-108.5 -112.5t-73 -145.5t-26.5 -164q0 -74 11.5 -104.5t21.5 -45.5q-78 0 -125 33t-47 135z " />
<glyph unicode="Y" horiz-adv-x="1257" d="M121 993q0 109 48 207t131 173t194.5 119t238.5 44q23 0 43.5 -1t40.5 -3l193 -797l329 791h95l-398 -895l-135 -631h-223l135 631l-213 831q-92 -25 -158.5 -74t-108.5 -112.5t-62.5 -136t-20.5 -140.5q0 -119 49 -194q-84 0 -131 42t-47 146z" />
<glyph unicode="Z" horiz-adv-x="1081" d="M8 0l725 1444q-23 2 -77 6t-113 4q-66 0 -120 -8t-63 -33q33 -27 33 -67q0 -39 -30.5 -71t-77.5 -32q-41 0 -77 32t-36 93q0 31 19.5 61.5t53.5 54t81 38t104 14.5h596l-719 -1427q47 0 120 -3.5t148 -3.5q43 0 83 2t73 6.5t56.5 13.5t31.5 21q-18 14 -26.5 34t-8.5 34 q0 47 34 73.5t81 26.5q39 0 75 -25.5t36 -72.5q0 -37 -19.5 -76t-55.5 -69.5t-84 -50t-103 -19.5h-740z" />
<glyph unicode="[" horiz-adv-x="587" d="M-98 -512l434 2048h395l-26 -127h-248l-381 -1794h248l-27 -127h-395z" />
<glyph unicode="\" horiz-adv-x="1032" d="M217 1536h102l435 -2048h-103z" />
<glyph unicode="]" horiz-adv-x="585" d="M-205 -512l27 127h248l381 1794h-248l26 127h396l-435 -2048h-395z" />
<glyph unicode="^" horiz-adv-x="862" d="M113 1149l411 342h43l125 -342h-45l-133 207l-332 -207h-69z" />
<glyph unicode="_" horiz-adv-x="903" d="M-45 0l33 143h717l-31 -143h-719z" />
<glyph unicode="`" horiz-adv-x="411" d="M63 1536h175l63 -387h-113z" />
<glyph unicode="a" d="M10 317q0 70 15.5 150t44 160t73.5 153.5t102.5 130t130.5 90t159 33.5q49 0 100 -22.5t67 -85.5l21 98h207l-150 -696q-10 -41 -10 -92q0 -35 12.5 -64t51.5 -29q49 0 99 59.5t95 164.5h76q-49 -129 -98.5 -204t-95.5 -114t-88 -50t-74 -11q-68 0 -112 47t-52 153 q-47 -84 -130 -142t-182 -58q-49 0 -96 17.5t-84 57t-59.5 102t-22.5 152.5zM229 346q0 -117 35 -160t94 -43q33 0 68 17.5t66.5 47.5t56 70.5t35.5 88.5l98 464q-6 35 -30.5 63t-71.5 28q-84 0 -149.5 -61.5t-111 -149.5t-68 -188.5t-22.5 -176.5z" />
<glyph unicode="b" horiz-adv-x="856" d="M18 219q0 66 17 148l223 1038l209 29l-105 -486q43 37 89.5 58.5t103.5 21.5q49 0 97 -11t88 -47t64.5 -101.5t24.5 -174.5q0 -119 -40.5 -243.5t-116.5 -228t-180.5 -169t-231.5 -65.5q-53 0 -98 11t-77 36.5t-49.5 71t-17.5 112.5zM215 236q0 -106 102 -107 q68 0 127.5 48t103.5 125t68.5 174.5t24.5 195.5q0 117 -37 183.5t-110 66.5q-41 0 -76 -19.5t-72 -50.5l-121 -539q-4 -23 -7 -41t-3 -36z" />
<glyph unicode="c" horiz-adv-x="745" d="M16 317q0 57 12.5 133t38 155t66.5 157t100.5 138.5t137.5 97t176 36.5q104 0 159.5 -47t55.5 -147q0 -72 -27.5 -122t-81.5 -50q-44 0 -67 43q27 16 44 57t17 76t-22.5 58.5t-69.5 23.5q-72 0 -130 -58.5t-99 -145.5t-63.5 -188.5t-22.5 -187.5q0 -106 39.5 -154.5 t140.5 -48.5q109 0 201 54.5t159 169.5h70q-41 -76 -98.5 -144.5t-126 -121t-146.5 -83t-160 -30.5q-59 0 -113 18.5t-96 57t-68 101t-26 152.5z" />
<glyph unicode="d" d="M10 317q0 70 15.5 150t44 160t73.5 153.5t102.5 130t130.5 90t159 33.5q51 0 101 -22.5t66 -87.5l103 481l213 29l-238 -1106q-10 -41 -10 -92q0 -35 12.5 -64t51.5 -29q49 0 99 59.5t95 164.5h76q-49 -129 -98.5 -204t-95.5 -114t-88 -50t-74 -11q-68 0 -112 47t-52 153 q-47 -84 -130 -142t-182 -58q-49 0 -96 17.5t-84 57t-59.5 102t-22.5 152.5zM229 346q0 -117 35 -160t94 -43q33 0 68 17.5t66.5 47.5t56 70.5t35.5 88.5l98 464q-4 33 -29.5 62t-72.5 29q-84 0 -149.5 -61.5t-111 -149.5t-68 -188.5t-22.5 -176.5z" />
<glyph unicode="e" horiz-adv-x="753" d="M16 315q0 57 12.5 133t38 156t67.5 158t99.5 138.5t132 97t169.5 36.5q43 0 81.5 -9t69.5 -32.5t49.5 -65t18.5 -104.5q0 -174 -136.5 -281.5t-375.5 -131.5q-2 -16 -2 -32v-32q0 -104 39.5 -153.5t138.5 -49.5q98 0 194.5 51.5t175.5 172.5h66q-41 -76 -98.5 -144.5 t-127 -121t-148.5 -83t-161 -30.5q-59 0 -113 18.5t-96 57t-68 101t-26 150.5zM252 489q172 27 274.5 121.5t102.5 233.5q0 35 -13.5 62.5t-62.5 27.5q-57 0 -106.5 -40t-87 -103.5t-65.5 -142.5t-42 -159z" />
<glyph unicode="f" horiz-adv-x="489" d="M-377 -328q0 51 30 95.5t77 83t105.5 69.5t115.5 53l250 1176q12 61 34.5 129t64.5 124t107.5 94t165.5 38q119 0 177.5 -68.5t58.5 -167.5q0 -37 -6 -69h-82q6 20 6 49q0 47 -24.5 87t-79.5 40t-91 -20.5t-61 -57.5t-41 -89t-31 -116l-20 -98h164l-15 -72h-166 l-235 -1116q-23 -111 -50.5 -178.5t-61 -105t-74.5 -51t-93 -13.5q-94 0 -159.5 42t-65.5 142zM-297 -326q0 -35 19.5 -57.5t56.5 -22.5q57 0 88 66t53 172l14 66q-113 -49 -172 -108.5t-59 -115.5z" />
<glyph unicode="g" d="M10 362q0 96 34 213t99.5 219.5t164 171t227.5 68.5q49 0 100 -22.5t67 -85.5l21 98h205l-209 -983q55 18 101 41.5t83 61.5t67.5 91.5t57.5 131.5h76q-37 -109 -77 -177.5t-89 -112.5t-107.5 -68.5t-128.5 -41.5l-26 -131q-23 -111 -50.5 -178.5t-61.5 -105t-74.5 -51 t-92.5 -13.5q-94 0 -159.5 42t-65.5 142q0 51 29.5 95.5t77 83t105.5 69.5t116 53l39 189q-53 -57 -122 -93t-145 -36q-49 0 -96 17.5t-84 57t-59.5 102t-22.5 152.5zM229 391q0 -117 35 -160t94 -43q29 0 64 15.5t66.5 41t58 61.5t39.5 79l96 449q-6 33 -30.5 60.5 t-71.5 27.5q-84 0 -149.5 -56.5t-111 -137.5t-68 -173t-22.5 -164zM252 -326q0 -35 19.5 -57.5t56.5 -22.5q57 0 87.5 66t53.5 172l14 66q-115 -49 -173 -108.5t-58 -115.5z" />
<glyph unicode="h" horiz-adv-x="956" d="M-45 0l301 1405l211 29l-121 -564q39 53 78 86t75 50.5t67.5 22.5t58.5 5q61 0 102 -18.5t65.5 -50t34 -73.5t9.5 -89q0 -68 -15.5 -141.5t-34 -145.5t-34 -141.5t-15.5 -130.5q0 -43 12.5 -72t49.5 -29q96 0 192 224h76q-49 -129 -98 -205t-95.5 -114t-86 -49t-70.5 -11 q-106 0 -151.5 66.5t-45.5 164.5q0 68 15.5 141.5t34 145.5t33.5 138.5t15 121.5q0 51 -18 82t-72 31q-131 0 -227 -220l-141 -659h-205z" />
<glyph unicode="i" horiz-adv-x="444" d="M16 215q0 37 5.5 76t13.5 76l139 657h207l-150 -696q-10 -41 -10 -92q0 -35 12.5 -64t51.5 -29q49 0 99 59.5t95 164.5h76q-49 -129 -98 -204t-95.5 -114t-88.5 -50t-74 -11q-53 0 -88 18.5t-55.5 49t-30 71.5t-9.5 88zM190 1319q0 55 39 96t97 41q55 0 96 -41t41 -96 q0 -57 -41 -96t-96 -39q-57 0 -96.5 39t-39.5 96z" />
<glyph unicode="j" horiz-adv-x="444" d="M-377 -328q0 51 30 95.5t77 83t105.5 69.5t115.5 53l223 1051h205l-209 -983q55 18 101 41.5t83 61.5t68 91.5t57 131.5h76q-37 -109 -77 -177.5t-89 -112.5t-107.5 -68.5t-127.5 -41.5l-27 -131q-23 -111 -50.5 -178.5t-61 -105t-74.5 -51t-93 -13.5q-94 0 -159.5 42 t-65.5 142zM-297 -326q0 -35 19.5 -57.5t56.5 -22.5q57 0 88 66t53 172l14 66q-113 -49 -172 -108.5t-59 -115.5zM190 1319q0 55 39 96t97 41q55 0 96 -41t41 -96q0 -57 -41 -96t-96 -39q-57 0 -96.5 39t-39.5 96z" />
<glyph unicode="k" horiz-adv-x="935" d="M-45 0l301 1405l211 29l-160 -742l422 332h199l-404 -279q8 0 15.5 1.5t15.5 1.5q61 0 102 -18.5t63.5 -50.5t32 -74t9.5 -89q0 -37 -7 -72.5t-15.5 -70.5t-15.5 -68t-7 -61q0 -43 12 -72t49 -29q96 0 193 224h76q-49 -129 -98.5 -205t-95.5 -114t-86 -49t-71 -11 q-106 0 -151 66.5t-45 164.5q0 33 7 69t15 70.5t15.5 65.5t7.5 55q0 51 -16.5 82t-69.5 31q-117 0 -207 -158l-92 -434h-205z" />
<glyph unicode="l" horiz-adv-x="442" d="M14 215q0 37 5.5 76t13.5 76l223 1038l213 29l-240 -1106q-10 -41 -10 -92q0 -35 12.5 -64t51.5 -29q49 0 99 59.5t95 164.5h76q-49 -129 -98 -204t-95.5 -114t-88.5 -50t-74 -11q-53 0 -88 18.5t-55.5 49t-30 71.5t-9.5 88z" />
<glyph unicode="m" horiz-adv-x="1419" d="M-45 0l217 1024h207l-29 -131q72 92 137.5 116.5t116.5 24.5q102 0 149.5 -49t57.5 -123q37 57 75 91t73.5 52.5t67.5 23.5t60 5q61 0 102.5 -18.5t66 -50t33.5 -73.5t9 -89q0 -68 -15 -141.5t-33.5 -145.5t-34 -141.5t-15.5 -130.5q0 -43 12.5 -72t49.5 -29 q96 0 192 224h76q-49 -129 -98.5 -205t-95.5 -114t-86 -49t-70 -11q-106 0 -151.5 66.5t-45.5 164.5q0 68 15.5 141.5t34 145.5t33.5 138.5t15 121.5q0 51 -18.5 82t-71.5 31q-66 0 -111.5 -53.5t-95.5 -166.5l-141 -659h-207l146 684q6 29 8 51.5t2 40.5q0 57 -22.5 80 t-61.5 23q-66 0 -112 -54.5t-95 -165.5l-141 -659h-205z" />
<glyph unicode="n" horiz-adv-x="956" d="M-45 0l217 1024h207l-33 -154q39 53 78 86t75 50.5t67.5 22.5t58.5 5q61 0 102 -18.5t65.5 -50t34 -73.5t9.5 -89q0 -68 -15.5 -141.5t-34 -145.5t-34 -141.5t-15.5 -130.5q0 -43 12.5 -72t49.5 -29q96 0 192 224h76q-49 -129 -98 -205t-95.5 -114t-86 -49t-70.5 -11 q-106 0 -151.5 66.5t-45.5 164.5q0 68 15.5 141.5t34 145.5t33.5 138.5t15 121.5q0 51 -18 82t-72 31q-127 0 -227 -220l-141 -659h-205z" />
<glyph unicode="o" horiz-adv-x="858" d="M16 311q0 59 10.5 135t35 157t64.5 158t100.5 138.5t140.5 98t186 36.5q123 0 176 -83t55 -240q182 0 336 123l19 -56q-57 -66 -152.5 -109.5t-206.5 -58.5q-10 -133 -45 -246.5t-92 -197.5t-135 -131t-172 -47q-68 0 -126 17.5t-101 56t-68 100t-25 149.5zM242 348 q0 -106 38 -155.5t134 -49.5q45 0 89 32t79.5 91.5t61.5 144.5t36 193q-51 0 -66.5 23.5t-15.5 60.5q0 53 24.5 76.5t63.5 28.5q-8 72 -40 100.5t-83 28.5t-95 -29t-80 -75t-63.5 -106.5t-46 -124t-27.5 -126t-9 -113.5z" />
<glyph unicode="p" horiz-adv-x="866" d="M-154 -512l342 1612h207l-35 -158q47 41 105.5 66.5t126.5 25.5q53 0 98 -18.5t78 -59.5t51.5 -105.5t18.5 -158.5q0 -66 -10.5 -143.5t-33 -156.5t-60.5 -151.5t-93 -129t-129 -90t-168 -33.5q-55 0 -95 27.5t-69 72.5l-117 -549zM201 190q23 -39 54.5 -55t55.5 -16 q92 0 153.5 62.5t99.5 151.5t54.5 186t16.5 169q0 61 -12.5 102t-33 66t-44.5 35t-51 10q-47 0 -87 -26.5t-75 -73.5z" />
<glyph unicode="q" horiz-adv-x="911" d="M10 317q0 70 15.5 150t44 160t73.5 153.5t102.5 130t130.5 90t159 33.5q49 0 99 -21.5t66 -82.5l21 94h207l-316 -1485l-217 -51l131 621q-49 -53 -114.5 -87t-139.5 -34q-49 0 -96 17.5t-84 57t-59.5 102t-22.5 152.5zM229 346q0 -117 35 -160t94 -43q29 0 61 14.5 t61.5 40t54 60.5t38.5 76l107 504q-6 31 -30.5 57.5t-69.5 26.5q-84 0 -149.5 -61.5t-111 -149.5t-68 -188.5t-22.5 -176.5z" />
<glyph unicode="r" horiz-adv-x="688" d="M-45 0l217 1024h207l-37 -168q29 33 59.5 64.5t64.5 57.5t70.5 41t79.5 15q61 0 88 -27.5t27 -68.5q0 -39 -13 -64.5t-31.5 -41t-39 -21.5t-35.5 -6q-18 0 -27.5 8t-18.5 17.5t-21.5 17.5t-34.5 8q-45 0 -95 -31.5t-93 -68.5l-162 -756h-205z" />
<glyph unicode="s" horiz-adv-x="700" d="M-31 250q0 72 34 121t75 69q86 154 145.5 304.5t106.5 302.5l215 40q10 -197 19 -319.5t16.5 -200.5t11.5 -126t4 -99q0 -18 -1 -35.5t-3 -34.5q39 23 76 47.5t67 47.5h86q-70 -76 -138.5 -127.5t-131.5 -89.5q-25 -45 -58.5 -76t-71.5 -50.5t-78 -27.5t-75 -8 q-78 0 -134 23.5t-93 60.5t-54.5 84t-17.5 94zM70 293q0 -72 32.5 -112t100.5 -40q78 0 128 45t50 154q0 43 -3 80t-9.5 92t-14.5 139t-16 217q-29 -115 -69 -219t-95 -215q12 -10 20.5 -26.5t8.5 -40.5q0 -49 -28 -76t-56 -27q-33 0 -49 29z" />
<glyph unicode="t" horiz-adv-x="483" d="M14 217q0 39 6.5 79t12.5 71l125 585h-68l14 72h68l61 283l213 28l-67 -311h158l-15 -72h-160l-133 -624q-4 -16 -9 -41t-5 -47q0 -37 15.5 -67t62.5 -30q55 0 114.5 59.5t110.5 164.5h76q-53 -113 -106.5 -187t-102.5 -117t-95 -59t-83 -16q-57 0 -94 19.5t-58.5 51 t-31 73.5t-9.5 85z" />
<glyph unicode="u" horiz-adv-x="929" d="M20 262q0 49 13 105l139 657h207l-150 -696q-8 -33 -8 -68q0 -59 26.5 -88t65.5 -29q59 0 122 58.5t85 165.5l139 657h207l-149 -696q-10 -41 -10 -92q0 -35 12 -64t51 -29q49 0 99.5 59.5t95.5 164.5h75q-49 -129 -98 -204t-95 -114t-88 -50t-75 -11q-66 0 -111 46 t-53 150q-59 -104 -132 -150t-142 -46q-47 0 -88 19.5t-72 54t-48.5 86t-17.5 114.5z" />
<glyph unicode="v" horiz-adv-x="817" d="M14 229q0 16 2 43t9 56l147 696h205l-148 -696q-8 -33 -8 -68q0 -51 20.5 -84t67.5 -33q57 0 105.5 38t89.5 100.5t71.5 141.5t51 160t32 155.5t11.5 131.5q-14 -12 -37 -14t-35 -2q-29 0 -45 26.5t-16 61.5q0 41 26.5 80t77.5 39q66 0 101.5 -45t35.5 -129 q0 -86 -17.5 -187.5t-49 -201t-77.5 -191.5t-103.5 -163.5t-124 -113.5t-140.5 -42q-117 0 -184.5 59t-67.5 182z" />
<glyph unicode="w" horiz-adv-x="1275" d="M20 262q0 49 13 105l139 657h207l-150 -696q-8 -33 -8 -68q0 -59 26.5 -88t65.5 -29q59 0 122 58.5t85 165.5l139 657h205l-147 -696q-8 -33 -8 -68q0 -51 20.5 -84t67.5 -33q57 0 105 39t86 102.5t66.5 142.5t48 160t29 155.5t9.5 127.5q-14 -12 -37 -14t-35 -2 q-29 0 -45 26.5t-16 61.5q0 41 26.5 80t77.5 39q66 0 97.5 -45t31.5 -129q0 -90 -16.5 -191.5t-47 -202t-74.5 -191.5t-97.5 -160.5t-118 -111.5t-133.5 -42q-100 0 -165 43t-81 131q-59 -92 -128 -133t-134 -41q-47 0 -88 19.5t-72 54t-48.5 86t-17.5 114.5z" />
<glyph unicode="x" horiz-adv-x="1019" d="M31 362q47 113 90 233t95 217t122 159.5t172 62.5q39 0 66.5 -22.5t46 -58t30 -79t17.5 -83.5l32 -226q113 127 171.5 218t62.5 157q-10 -2 -18.5 -3t-16.5 -1q-53 0 -72.5 34t-19.5 81t28.5 68.5t80.5 21.5q51 0 82.5 -38t31.5 -120q0 -53 -17.5 -106.5t-55 -116 t-97 -136t-143.5 -165.5l14 -94q16 -100 40 -161t77 -61q31 0 62.5 19.5t59 50.5t50 70t35.5 77h61q-33 -119 -79 -192.5t-98 -113.5t-104.5 -53t-95.5 -13q-78 0 -134 86t-85 280l-291 -354h-139l414 457l-33 239q-16 104 -32.5 144.5t-45.5 40.5q-59 0 -130.5 -131.5 t-158.5 -387.5h-75z" />
<glyph unicode="y" horiz-adv-x="929" d="M20 262q0 49 13 105l139 657h207l-150 -696q-8 -33 -8 -68q0 -59 26.5 -88t65.5 -29q59 0 122 58.5t85 165.5l139 657h205l-209 -983q55 18 101.5 41.5t83.5 61.5t67.5 91.5t57.5 131.5h75q-37 -109 -76.5 -177.5t-89 -112.5t-107.5 -68.5t-128 -41.5l-27 -131 q-23 -111 -50 -178.5t-61 -105t-75 -51t-92 -13.5q-94 0 -159.5 42t-65.5 142q0 51 29.5 95.5t76.5 83t105.5 69.5t115.5 53l27 129q-51 -59 -107.5 -86.5t-109.5 -27.5q-47 0 -88 19.5t-72 54t-48.5 86t-17.5 114.5zM188 -326q0 -35 19.5 -57.5t56.5 -22.5q57 0 88 66 t54 172l14 66q-115 -49 -173.5 -108.5t-58.5 -115.5z" />
<glyph unicode="z" horiz-adv-x="847" d="M35 0l522 913h-156q-47 0 -84.5 -5t-37.5 -27q0 -16 10 -28.5t10 -29.5q0 -23 -31.5 -45t-72.5 -22q-88 0 -89 121q0 31 11.5 58.5t39 46.5t73.5 30.5t114 11.5h487l-509 -881q12 0 43.5 -2t68.5 -4t73 -4t56 -2q37 0 61.5 12.5t30.5 30.5q-12 4 -19 18.5t-7 24.5 q0 37 32.5 57.5t67.5 20.5q37 0 65.5 -24.5t28.5 -77.5q0 -33 -20.5 -67t-56 -61.5t-86 -46t-109.5 -18.5h-516z" />
<glyph unicode="{" horiz-adv-x="550" d="M-12 -287q0 86 28.5 175t64.5 178.5t64.5 174.5t28.5 162q0 29 -17.5 46.5t-66.5 17.5q-27 0 -65 -6l24 117q37 -6 64 -7q49 0 76.5 21.5t41 55.5t16.5 74t3 77q0 86 -7 167t-7 158q0 57 17 129t55 135.5t100.5 105.5t154.5 42h88l-18 -102q-63 0 -107.5 -8.5 t-79.5 -45.5q-55 -61 -74.5 -129.5t-19.5 -152.5q0 -88 6.5 -175t6.5 -175q0 -90 -23 -143.5t-59 -84.5q25 -29 24 -74q0 -68 -28.5 -156.5t-63.5 -184t-63.5 -189.5t-28.5 -170q0 -39 3 -68.5t20.5 -51t52 -33t98.5 -11.5l-18 -92h-60q-115 0 -173 60.5t-58 162.5z" />
<glyph unicode="|" horiz-adv-x="561" d="M195 -512v2050h108v-2050h-108z" />
<glyph unicode="}" horiz-adv-x="546" d="M-164 -510l19 102q63 0 107 8.5t79 45.5q55 61 74.5 129.5t19.5 152.5q0 88 -6 175t-6 176q0 90 22.5 143t59.5 84q-25 29 -25 74q0 68 29 156.5t63.5 184t63.5 188.5t29 171q0 39 -4.5 68.5t-20.5 51t-51 33t-99 11.5l19 92h59q115 0 173.5 -60.5t58.5 -162.5 q0 -86 -29 -175t-64.5 -178.5t-64.5 -174.5t-29 -162q0 -29 17.5 -46.5t66.5 -17.5q25 0 66 6l-25 -116q-37 6 -63 6q-49 0 -77 -21.5t-41 -55.5t-16 -74t-3 -77q0 -86 7 -166.5t7 -158.5q0 -59 -17.5 -130t-55.5 -134.5t-100.5 -105.5t-154.5 -42h-88z" />
<glyph unicode="~" horiz-adv-x="829" d="M184 1212q45 90 124 135.5t184 45.5q51 0 90 -9.5t73.5 -20.5t67.5 -20.5t74 -9.5q35 0 65.5 10.5t50.5 30.5h11q-8 -33 -36 -65.5t-69 -59t-91 -43t-101 -16.5q-45 0 -85 10t-77 23.5t-74 23.5t-74 10q-72 0 -122 -49z" />
<glyph unicode="&#xa1;" horiz-adv-x="471" d="M-115 -508l267 961h108l-145 -961h-230zM121 791q0 57 41 96t96 39q57 0 96 -39t39 -96q0 -55 -39 -96.5t-96 -41.5q-55 0 -96 41t-41 97z" />
<glyph unicode="&#xa2;" horiz-adv-x="770" d="M63 588q0 72 20.5 173t70 198.5t131.5 172t202 95.5l45 243h119l-53 -239q80 -8 129 -50t49 -122q0 -63 -24.5 -109.5t-73.5 -46.5q-23 0 -37 11.5t-25 27.5q25 16 40.5 53t15.5 68q0 29 -27 53.5t-65 28.5l-158 -713h18q66 0 125.5 24.5t108.5 65.5q-8 -59 -39 -101 t-72 -68.5t-87 -40t-85 -17.5l-78 -350h-55l61 348q-51 4 -97 23.5t-82 55.5t-56.5 89t-20.5 127zM264 616q0 -135 84 -170l119 666q-49 -33 -87 -91t-63.5 -128t-39 -143t-13.5 -134z" />
<glyph unicode="&#xa3;" horiz-adv-x="954" d="M45 0l180 748h-12q-72 0 -123 -50l-10 4q57 113 174 158l147 613l209 45l-155 -641q35 -6 63.5 -14.5t56 -17.5t56 -15.5t61.5 -6.5q35 0 65.5 10.5t51.5 30.5h10q-8 -33 -35.5 -65.5t-68.5 -59t-91.5 -43t-101.5 -16.5q-57 0 -112 16l-142 -577q70 20 128.5 21t121 4 t134 21.5t169.5 76.5q-12 -111 -58 -176.5t-114 -65.5h-604z" />
<glyph unicode="&#xa4;" horiz-adv-x="980" d="M121 1008l78 73l114 -114q84 61 187 61q51 0 97 -15.5t85 -43.5l115 114l73 -73l-112 -113q61 -84 61 -188q0 -102 -61 -187l112 -112l-73 -74l-113 113q-39 -29 -85 -44.5t-99 -15.5q-104 0 -189 62l-114 -115l-74 74l115 114q-29 39 -44.5 85t-15.5 98q0 53 15.5 99 t44.5 85zM262 709q0 -49 18.5 -92.5t51.5 -76t76 -51t92 -18.5t92 18.5t75.5 51t51 75.5t18.5 93q0 49 -18.5 92t-51 75.5t-75.5 51t-92 18.5t-92 -18.5t-76 -51t-51.5 -75.5t-18.5 -92z" />
<glyph unicode="&#xa5;" horiz-adv-x="1069" d="M123 322l20 71h258l35 164h-262l21 72h258l-230 897h234l192 -791l330 791h94l-397 -897h311l-20 -72h-308l-34 -164h311l-21 -71h-307l-67 -322h-224l68 322h-262z" />
<glyph unicode="&#xa6;" horiz-adv-x="569" d="M199 455h108v-967h-108v967zM199 616v922h108v-922h-108z" />
<glyph unicode="&#xa7;" horiz-adv-x="1064" d="M-20 156q0 57 15 103t41.5 80t61.5 52.5t74 18.5q51 0 82 -29t57 -66q-82 -6 -120.5 -42.5t-38.5 -114.5q0 -100 54 -145.5t126 -45.5q37 0 78 12.5t74.5 41t55 72.5t21.5 110q0 78 -31.5 135t-80 103t-103.5 85t-103 82t-80 94.5t-32 118.5q0 94 60.5 167t154.5 110 q-12 39 -12 90q0 88 39 153.5t101.5 108.5t140 64.5t157.5 21.5q29 0 73 -5t86 -25.5t72.5 -60.5t30.5 -110q0 -66 -30.5 -112.5t-85.5 -46.5q-16 0 -36 6t-38 26q35 20 54.5 61.5t19.5 82.5q0 49 -32 89t-110 40q-51 0 -96 -19.5t-79 -53.5t-53.5 -77t-19.5 -90 q0 -63 35 -110.5t86 -88.5t112.5 -79.5t113 -87t86 -111t34.5 -148.5q0 -55 -15 -110t-46 -101.5t-75 -79t-101 -44.5v-13q0 -86 -31 -155.5t-88 -118.5t-139 -77t-185 -28q-45 0 -103 8.5t-109.5 36t-87 80t-35.5 142.5zM287 926q0 -45 29.5 -84t76.5 -77t102.5 -79 t106.5 -90t91 -108.5t57 -137.5q41 18 68.5 59.5t27.5 102.5q0 59 -26.5 106.5t-69.5 87t-96.5 75.5t-105.5 74t-99.5 80t-75.5 97q-37 -16 -61.5 -40.5t-24.5 -65.5z" />
<glyph unicode="&#xa8;" horiz-adv-x="802" d="M147 1315q0 45 31 76.5t76 31.5t76.5 -31.5t31.5 -76.5t-31.5 -76t-76.5 -31t-76 31t-31 76zM483 1315q0 45 31 76.5t76 31.5t76.5 -31.5t31.5 -76.5t-31.5 -76t-76.5 -31t-76 31t-31 76z" />
<glyph unicode="&#xa9;" horiz-adv-x="1155" d="M86 678q0 111 39 206t106.5 165.5t157.5 111.5t193 41q100 0 190 -40t157.5 -110.5t107.5 -165.5t40 -206t-40 -206t-107.5 -165.5t-157.5 -111.5t-190 -41q-102 0 -192.5 41t-158 111.5t-106.5 165.5t-39 204zM139 678q0 -102 36 -189.5t96.5 -152t141.5 -101t173 -36.5 q90 0 171 36.5t141 101t96 151.5t36 190q0 100 -36 188t-96 152.5t-141 101.5t-171 37q-92 0 -173 -37t-141.5 -101.5t-96.5 -152.5t-36 -188zM293 688q0 70 26.5 125t69.5 95t98.5 61.5t110.5 21.5q80 0 150.5 -47t101.5 -147l-76 -29q-14 66 -66.5 99.5t-113.5 33.5 q-51 0 -91 -18.5t-66.5 -48t-40 -67.5t-13.5 -77q0 -43 13.5 -85t40 -73.5t65.5 -52t90 -20.5q47 0 97 23.5t85 76.5l70 -47q-43 -66 -116 -102.5t-148 -36.5q-61 0 -114.5 25.5t-91.5 68.5t-59.5 100.5t-21.5 120.5z" />
<glyph unicode="&#xaa;" horiz-adv-x="681" d="M195 1141q0 55 17 121.5t53 125t91.5 98.5t130.5 40q29 0 57.5 -15.5t37.5 -52.5l12 58h115l-86 -371q-2 -10 -3.5 -21.5t-1.5 -23.5q0 -23 8.5 -40.5t35.5 -17.5q12 0 36 7q-14 -53 -36.5 -74t-55.5 -21q-37 0 -62.5 27t-29.5 88q-27 -47 -73 -81t-101 -34t-100 42 t-45 145zM317 1155q0 -66 21.5 -89.5t54.5 -23.5q35 0 73 36t48 89l55 244q-4 18 -17 34.5t-40 16.5q-53 0 -90 -32.5t-59.5 -81t-34 -101.5t-11.5 -92z" />
<glyph unicode="&#xab;" horiz-adv-x="1056" d="M16 520l443 400l86 -93l-359 -309l281 -287l-82 -90zM442 520l443 400l86 -93l-359 -309l281 -287l-82 -90z" />
<glyph unicode="&#xac;" horiz-adv-x="927" d="M43 473l33 143h715l-105 -512h-166l76 369h-553z" />
<glyph unicode="&#xad;" horiz-adv-x="657" d="M84 473l33 143h409l-30 -143h-412z" />
<glyph unicode="&#xae;" horiz-adv-x="1155" d="M88 684q0 111 39 206t106.5 165.5t157.5 111.5t193 41q100 0 190 -40t157.5 -110.5t107.5 -165.5t40 -206t-40 -206t-107.5 -165.5t-157.5 -111.5t-190 -41q-102 0 -192.5 41t-158 111.5t-106.5 165.5t-39 204zM141 684q0 -102 36 -189t96.5 -151.5t141.5 -101.5t173 -37 q90 0 171 37t141.5 101.5t96 151.5t35.5 189q0 100 -35.5 188.5t-96 153t-141.5 101t-171 36.5q-92 0 -173 -36.5t-141.5 -101t-96.5 -153t-36 -188.5zM395 393l2 596h201q96 0 150.5 -40t54.5 -132q0 -63 -32 -102t-85 -56l129 -256l-76 -12l-127 254h-143v-252h-74z M469 717h135q45 0 85 21.5t40 78.5q0 53 -39 73.5t-90 20.5h-131v-194z" />
<glyph unicode="&#xb0;" horiz-adv-x="651" d="M172 995q0 94 24.5 175t67.5 140.5t103.5 93.5t132.5 34q92 0 130 -59.5t38 -166.5q0 -72 -19.5 -150.5t-59.5 -144t-102.5 -108.5t-146.5 -43q-51 0 -84 18.5t-51.5 49t-25.5 72.5t-7 89zM285 981q0 -25 4 -49.5t13 -43t25.5 -30.5t43.5 -12q43 0 77.5 31.5t61.5 86 t41 127t14 152.5q0 53 -13 91t-58 38q-43 0 -81 -30.5t-67 -85t-45 -125t-16 -150.5z" />
<glyph unicode="&#xb1;" horiz-adv-x="980" d="M6 158l33 143h754l-31 -143h-756zM131 719l33 143h289l55 250h170l-55 -250h292l-30 -143h-293l-64 -293h-170l64 293h-291z" />
<glyph unicode="&#xb2;" horiz-adv-x="704" d="M133 739q0 59 33 110.5t82 99.5t105.5 95.5t105.5 97.5t81.5 105.5t32.5 120.5q0 59 -35.5 86t-78.5 27q-41 0 -76 -23.5t-35 -71.5q0 -20 8.5 -46.5t26.5 -39.5q-20 -18 -40.5 -25t-39.5 -7q-29 0 -47 26.5t-18 77.5q0 29 15 57.5t44 52t73 38t101 14.5q123 0 174 -48 t51 -128q0 -96 -54 -169t-128 -133.5t-146.5 -114t-109.5 -110.5q66 0 121 -12t108 -12q45 0 88 17.5t91 64.5q0 -10 1 -20.5t1 -20.5q0 -66 -29 -109t-115 -43q-35 0 -70.5 6.5t-71.5 12.5t-67.5 12t-56.5 6q-29 0 -58.5 -7t-62.5 -24q-2 10 -3 18.5t-1 18.5z" />
<glyph unicode="&#xb3;" horiz-adv-x="710" d="M137 879q0 78 44 124t93 46q25 0 44.5 -10.5t31.5 -39.5q-55 -12 -78.5 -50t-23.5 -75q0 -43 32.5 -77.5t92.5 -34.5q39 0 72.5 20.5t58 52t39 71.5t14.5 79q0 55 -28.5 105.5t-114.5 78.5q51 12 88 38t60.5 56.5t33.5 63.5t10 59q0 39 -28.5 68t-92.5 29 q-59 0 -88.5 -28t-29.5 -69q0 -20 9 -44.5t36 -30.5q-41 -37 -80 -37q-33 0 -54.5 25.5t-21.5 66.5q0 74 68.5 121t177.5 47q115 0 163 -44t48 -110q0 -55 -35 -114.5t-119 -98.5q78 -23 107.5 -76t29.5 -112q0 -47 -18.5 -96t-57 -90t-98 -67t-139.5 -26q-27 0 -69 5.5 t-80.5 24t-67.5 54t-29 95.5z" />
<glyph unicode="&#xb4;" horiz-adv-x="587" d="M227 1149l187 387h174l-248 -387h-113z" />
<glyph unicode="&#xb5;" horiz-adv-x="929" d="M-117 -340l289 1364h207l-150 -696q-8 -33 -8 -68q0 -59 26.5 -88t65.5 -29q59 0 122 58.5t85 165.5l139 657h207l-149 -696q-10 -41 -10 -92q0 -35 12 -64t51 -29q49 0 99.5 59.5t95.5 164.5h75q-49 -129 -98 -204t-95 -114t-88 -50t-75 -11q-66 0 -111 46t-53 150 q-59 -104 -132 -150t-142 -46q-47 0 -90 18l-64 -297z" />
<glyph unicode="&#xb6;" horiz-adv-x="1062" d="M133 1006q0 94 33 189t97.5 170t159.5 122t222 47q76 0 145.5 -18.5t121 -58.5t82 -104.5t30.5 -156.5q0 -35 -4 -70.5t-12 -76.5l-260 -1215h-148l166 789q-31 -10 -70 -19.5t-80 -15.5l-157 -754h-146l158 750q-86 10 -149.5 49t-105.5 96t-62.5 129t-20.5 148z" />
<glyph unicode="&#xb7;" horiz-adv-x="526" d="M72 547q0 72 48 121t120 49t121 -49.5t49 -120.5q0 -72 -49.5 -120t-120.5 -48q-72 0 -120 48t-48 120z" />
<glyph unicode="&#xb8;" horiz-adv-x="464" d="M0 -389q14 25 33.5 45t48.5 20q20 0 37.5 -9t36 -21.5t37 -21.5t40.5 -9q45 0 74 29.5t29 62.5q0 35 -23.5 64.5t-76.5 29.5q-47 0 -77 -15t-50 -30l108 303l72 -47l-60 -147q66 16 109 16q66 0 96.5 -27.5t30.5 -74.5q0 -55 -21.5 -97t-56.5 -71t-79 -43t-89 -14 q-78 0 -126 17t-93 40z" />
<glyph unicode="&#xb9;" horiz-adv-x="411" d="M166 707l158 690h-113l14 51q20 0 49 4t62 14.5t68.5 26.5t68.5 41l-188 -827h-119z" />
<glyph unicode="&#xba;" horiz-adv-x="622" d="M193 1130q0 49 14 117t50 130.5t94.5 106.5t144.5 44q109 0 127 -129q6 -4 10 -21q25 0 47 20.5t33 37.5l14 -25q-16 -39 -39.5 -69.5t-62.5 -45.5q-6 -74 -25.5 -136t-52.5 -108t-76 -73t-94 -27q-74 0 -129 41t-55 137zM315 1151q1 -113 105 -113q49 0 92 66.5 t55 183.5q-43 0 -43 47q0 27 13.5 43.5t31.5 22.5q-12 66 -67 65q-43 0 -78 -33.5t-58.5 -81.5t-37 -102.5t-13.5 -97.5z" />
<glyph unicode="&#xbb;" horiz-adv-x="1062" d="M35 233l358 310l-280 286l82 91l368 -379l-442 -400zM461 233l358 310l-280 286l82 91l368 -379l-442 -400z" />
<glyph unicode="&#xbc;" horiz-adv-x="1353" d="M141 621l158 690h-113l15 51q20 0 49 4t61.5 14.5t68.5 26.5t69 41l-189 -827h-119zM180 0l791 1536h123l-791 -1536h-123zM721 307q14 45 43 99.5t55.5 114t47 120.5t20.5 123q0 37 -8 67q35 0 68.5 -28.5t33.5 -75.5q0 -51 -18.5 -97t-45 -89t-54 -85t-48.5 -85h229 l101 444l131 16l-107 -460h76l-18 -64h-72l-70 -305h-124l69 305h-309z" />
<glyph unicode="&#xbd;" horiz-adv-x="1376" d="M133 0l791 1536h123l-791 -1536h-123zM145 621l158 690h-113l15 51q20 0 49 4t61.5 14.5t68.5 26.5t69 41l-189 -827h-119zM684 43q0 57 33 109.5t82 100.5t105.5 95t105.5 97.5t81.5 105.5t32.5 121q0 59 -35.5 85.5t-78.5 26.5q-41 0 -76 -23.5t-35 -70.5q0 -20 8 -47 t27 -39q-20 -18 -41 -25.5t-39 -7.5q-29 0 -47.5 27t-18.5 78q0 29 15.5 57.5t44.5 52t73 38t101 14.5q123 0 174 -48.5t51 -127.5q0 -96 -54 -169t-128 -133.5t-146.5 -114t-109.5 -110.5q66 0 121 -12t108 -12q45 0 88 17t91 65q0 -10 1 -20.5t1 -20.5q0 -66 -29 -109 t-115 -43q-35 0 -70.5 6t-71.5 12.5t-67.5 12.5t-56.5 6q-29 0 -58.5 -7t-62.5 -24q-2 10 -3 18.5t-1 18.5z" />
<glyph unicode="&#xbe;" horiz-adv-x="1634" d="M94 791q0 78 44 124t93 46q25 0 44.5 -10.5t31.5 -39.5q-55 -12 -78.5 -50t-23.5 -75q0 -43 32.5 -77.5t92.5 -34.5q39 0 72.5 20.5t58 52t39 71.5t14.5 79q0 55 -28.5 105.5t-114.5 78.5q51 12 88 38t60.5 56.5t33.5 63.5t10 59q0 39 -28.5 68t-92.5 29q-59 0 -88.5 -28 t-29.5 -69q0 -20 9 -44.5t36 -30.5q-41 -37 -80 -37q-33 0 -54.5 25.5t-21.5 66.5q0 74 68.5 121t177.5 47q115 0 163 -44t48 -110q0 -55 -35 -114.5t-119 -98.5q78 -23 107.5 -76t29.5 -112q0 -47 -18.5 -96.5t-57 -90t-98 -66.5t-139.5 -26q-27 0 -69 5.5t-80.5 23.5 t-67.5 54t-29 96zM442 0l791 1536h123l-791 -1536h-123zM1004 307q14 45 42.5 99.5t55 114t47 120.5t20.5 123q0 37 -8 67q35 0 69 -28.5t34 -75.5q0 -51 -18.5 -97t-45 -89t-54.5 -85t-48 -85h229l100 444l132 16l-107 -460h76l-19 -64h-71l-70 -305h-125l70 305h-309z" />
<glyph unicode="&#xbf;" horiz-adv-x="872" d="M-98 -258q0 88 32.5 154.5t83 120t110.5 100.5t117.5 96t102.5 106.5t66 133.5h94q0 -72 -31 -130.5t-77 -109.5t-99 -100.5t-99 -103.5t-77 -117.5t-31 -145.5q0 -86 52.5 -124t121.5 -38q39 0 80 13.5t73 39t52.5 60.5t20.5 78q0 18 -7.5 38.5t-24 40t-43 35 t-65.5 21.5q27 43 67 64.5t83 21.5q59 0 107 -43t48 -129q0 -53 -23.5 -110.5t-75.5 -106.5t-133 -81t-198 -32q-86 0 -147.5 19.5t-101 53.5t-59 79t-19.5 96zM373 793q0 57 41 96t96 39q57 0 96 -39t39 -96q0 -55 -39 -96.5t-96 -41.5q-55 0 -96 41t-41 97z" />
<glyph unicode="&#xc0;" horiz-adv-x="1234" d="M-80 692q0 55 34 99.5t93 75t139 47t170 16.5q20 0 41 -1t43 -3q78 125 166 235.5t180.5 193.5t187.5 132t187 49q31 0 76 -6t82 -23l-322 -1507h-223l156 735q-70 39 -168 65.5t-199 37.5q-59 -119 -109.5 -245t-87 -248t-58 -234.5t-21.5 -204.5q0 -82 18 -139 q-39 0 -80 7t-74.5 30.5t-55 65.5t-21.5 114t23.5 170t64.5 211.5t99 236.5t130 244q-61 -2 -115.5 -12.5t-95.5 -26.5t-64.5 -39t-23.5 -49q29 -10 35 -24.5t6 -26.5q0 -47 -32.5 -64.5t-67.5 -17.5q-43 0 -78 23.5t-35 82.5zM598 905q100 -16 191.5 -45t152.5 -61l135 637 q-53 -2 -112.5 -44t-122 -114t-125 -167t-119.5 -206zM831 2048h175l63 -387h-113z" />
<glyph unicode="&#xc1;" horiz-adv-x="1234" d="M-80 692q0 55 34 99.5t93 75t139 47t170 16.5q20 0 41 -1t43 -3q78 125 166 235.5t180.5 193.5t187.5 132t187 49q31 0 76 -6t82 -23l-322 -1507h-223l156 735q-70 39 -168 65.5t-199 37.5q-59 -119 -109.5 -245t-87 -248t-58 -234.5t-21.5 -204.5q0 -82 18 -139 q-39 0 -80 7t-74.5 30.5t-55 65.5t-21.5 114t23.5 170t64.5 211.5t99 236.5t130 244q-61 -2 -115.5 -12.5t-95.5 -26.5t-64.5 -39t-23.5 -49q29 -10 35 -24.5t6 -26.5q0 -47 -32.5 -64.5t-67.5 -17.5q-43 0 -78 23.5t-35 82.5zM598 905q100 -16 191.5 -45t152.5 -61l135 637 q-53 -2 -112.5 -44t-122 -114t-125 -167t-119.5 -206zM940 1661l186 387h174l-247 -387h-113z" />
<glyph unicode="&#xc2;" horiz-adv-x="1234" d="M-80 692q0 55 34 99.5t93 75t139 47t170 16.5q20 0 41 -1t43 -3q78 125 166 235.5t180.5 193.5t187.5 132t187 49q31 0 76 -6t82 -23l-322 -1507h-223l156 735q-70 39 -168 65.5t-199 37.5q-59 -119 -109.5 -245t-87 -248t-58 -234.5t-21.5 -204.5q0 -82 18 -139 q-39 0 -80 7t-74.5 30.5t-55 65.5t-21.5 114t23.5 170t64.5 211.5t99 236.5t130 244q-61 -2 -115.5 -12.5t-95.5 -26.5t-64.5 -39t-23.5 -49q29 -10 35 -24.5t6 -26.5q0 -47 -32.5 -64.5t-67.5 -17.5q-43 0 -78 23.5t-35 82.5zM598 905q100 -16 191.5 -45t152.5 -61l135 637 q-53 -2 -112.5 -44t-122 -114t-125 -167t-119.5 -206zM766 1661l412 342h43l125 -342h-46l-133 207l-331 -207h-70z" />
<glyph unicode="&#xc3;" horiz-adv-x="1234" d="M-80 692q0 55 34 99.5t93 75t139 47t170 16.5q20 0 41 -1t43 -3q78 125 166 235.5t180.5 193.5t187.5 132t187 49q31 0 76 -6t82 -23l-322 -1507h-223l156 735q-70 39 -168 65.5t-199 37.5q-59 -119 -109.5 -245t-87 -248t-58 -234.5t-21.5 -204.5q0 -82 18 -139 q-39 0 -80 7t-74.5 30.5t-55 65.5t-21.5 114t23.5 170t64.5 211.5t99 236.5t130 244q-61 -2 -115.5 -12.5t-95.5 -26.5t-64.5 -39t-23.5 -49q29 -10 35 -24.5t6 -26.5q0 -47 -32.5 -64.5t-67.5 -17.5q-43 0 -78 23.5t-35 82.5zM598 905q100 -16 191.5 -45t152.5 -61l135 637 q-53 -2 -112.5 -44t-122 -114t-125 -167t-119.5 -206zM752 1712q45 90 123.5 135t183.5 45q51 0 90 -9t73.5 -20.5t67.5 -20.5t74 -9q35 0 65.5 10t51.5 31h10q-8 -33 -36 -65.5t-68.5 -59.5t-91 -43t-101.5 -16q-45 0 -85 10t-77 23.5t-73.5 23.5t-73.5 10q-72 0 -123 -49z " />
<glyph unicode="&#xc4;" horiz-adv-x="1234" d="M-80 692q0 55 34 99.5t93 75t139 47t170 16.5q20 0 41 -1t43 -3q78 125 166 235.5t180.5 193.5t187.5 132t187 49q31 0 76 -6t82 -23l-322 -1507h-223l156 735q-70 39 -168 65.5t-199 37.5q-59 -119 -109.5 -245t-87 -248t-58 -234.5t-21.5 -204.5q0 -82 18 -139 q-39 0 -80 7t-74.5 30.5t-55 65.5t-21.5 114t23.5 170t64.5 211.5t99 236.5t130 244q-61 -2 -115.5 -12.5t-95.5 -26.5t-64.5 -39t-23.5 -49q29 -10 35 -24.5t6 -26.5q0 -47 -32.5 -64.5t-67.5 -17.5q-43 0 -78 23.5t-35 82.5zM598 905q100 -16 191.5 -45t152.5 -61l135 637 q-53 -2 -112.5 -44t-122 -114t-125 -167t-119.5 -206zM815 1827q0 45 31 76.5t76 31.5t76.5 -31.5t31.5 -76.5t-31.5 -76t-76.5 -31t-76 31t-31 76zM1151 1827q0 45 30.5 76.5t75.5 31.5t77 -31.5t32 -76.5t-31.5 -76t-77.5 -31q-45 0 -75.5 31t-30.5 76z" />
<glyph unicode="&#xc5;" horiz-adv-x="1234" d="M-80 692q0 55 34 99.5t93 75t139 47t170 16.5q20 0 41 -1t43 -3q78 125 166 235.5t180.5 193.5t187.5 132t187 49q31 0 76 -6t82 -23l-322 -1507h-223l156 735q-70 39 -168 65.5t-199 37.5q-59 -119 -109.5 -245t-87 -248t-58 -234.5t-21.5 -204.5q0 -82 18 -139 q-39 0 -80 7t-74.5 30.5t-55 65.5t-21.5 114t23.5 170t64.5 211.5t99 236.5t130 244q-61 -2 -115.5 -12.5t-95.5 -26.5t-64.5 -39t-23.5 -49q29 -10 35 -24.5t6 -26.5q0 -47 -32.5 -64.5t-67.5 -17.5q-43 0 -78 23.5t-35 82.5zM598 905q100 -16 191.5 -45t152.5 -61l135 637 q-53 -2 -112.5 -44t-122 -114t-125 -167t-119.5 -206zM934 1786q0 27 10 59.5t30.5 61t53.5 47t80 18.5q76 0 111.5 -46t35.5 -111q0 -68 -40.5 -120.5t-137.5 -52.5q-66 0 -104.5 42t-38.5 102zM1016 1790q0 -35 16.5 -55.5t52.5 -20.5q47 0 71 25.5t24 68.5q0 14 -1 32 t-8.5 32t-20.5 23.5t-38 9.5q-53 0 -74.5 -38t-21.5 -77z" />
<glyph unicode="&#xc6;" horiz-adv-x="1705" d="M31 692q0 70 44 116t110.5 72.5t144.5 38t143 11.5q23 0 41 -1t35 -3q80 125 169 235.5t184 193.5t193.5 132t196.5 49q37 0 81 -6t90 -13.5t90 -13.5t81 -6q27 0 59.5 3t65.5 9.5t61.5 13.5t49.5 13q-16 -61 -40 -98t-52.5 -57.5t-61 -27.5t-67.5 -7q-63 0 -125 14 t-119 31l-117 -545h305l-28 -121h-303l-123 -582h450l-30 -143h-674l155 735q-72 39 -169 65.5t-199 37.5q-59 -119 -109.5 -245t-87.5 -248t-57.5 -234.5t-20.5 -204.5q0 -82 19 -139q-39 0 -80 7t-75 30.5t-55.5 66.5t-21.5 115t22.5 170t64.5 211.5t99.5 235.5t129.5 243 q-61 -2 -114.5 -12.5t-94.5 -26.5t-64.5 -39t-23.5 -49q29 -10 35 -24.5t6 -26.5q0 -47 -33 -64.5t-68 -17.5q-43 0 -77.5 23.5t-34.5 82.5zM707 905q102 -16 193 -45t153 -61l135 637q-55 -8 -116.5 -52.5t-123 -115t-123 -164t-118.5 -199.5z" />
<glyph unicode="&#xc7;" horiz-adv-x="1036" d="M92 469q0 92 15.5 208t50.5 233.5t90 230t135 201t187.5 141.5t244.5 53q68 0 129.5 -15.5t106.5 -48t71.5 -86t26.5 -129.5q0 -78 -33 -131t-110 -53q-25 0 -48.5 9.5t-37.5 27.5q29 16 58.5 77.5t29.5 137.5q0 68 -40 102.5t-112 34.5q-82 0 -151.5 -43t-127 -116.5 t-101.5 -170t-74.5 -205t-46 -220t-15.5 -213.5q0 -72 10 -138.5t44 -119t97.5 -83t167.5 -30.5q141 0 239.5 60.5t178.5 185.5l47 -21q-37 -80 -91 -144.5t-121.5 -112.5t-145.5 -77.5t-160 -40.5l-43 -108q66 16 109 16q66 0 96.5 -27.5t30.5 -74.5q0 -55 -21.5 -97 t-56.5 -71t-79 -43t-89 -14q-78 0 -126 17t-93 40q14 25 33.5 45t48.5 20q20 0 37.5 -9t36 -21.5t37 -21.5t40.5 -9q45 0 74 29.5t29 62.5q0 35 -23.5 64.5t-77.5 29.5q-47 0 -76.5 -15t-50.5 -30l76 211q-205 0 -315.5 119t-110.5 383z" />
<glyph unicode="&#xc8;" horiz-adv-x="915" d="M25 324q0 80 25.5 159.5t74.5 150.5t119.5 127t158.5 93q-66 47 -95 111.5t-29 134.5q0 80 32.5 157.5t93 141t142.5 102.5t180 39q61 0 114.5 -16.5t93.5 -49t62.5 -79.5t22.5 -111q0 -92 -45 -152.5t-107 -60.5q-55 0 -96 55q39 14 79 61.5t40 127.5q0 45 -13.5 73.5 t-33 45t-44 22.5t-46.5 6q-47 0 -96.5 -22.5t-91.5 -66.5t-68.5 -110.5t-26.5 -152.5q0 -41 7 -82t25.5 -75.5t50.5 -60.5t81 -36q-90 -18 -159.5 -65.5t-117 -112t-71 -141t-23.5 -156.5q0 -121 62.5 -188.5t195.5 -67.5q72 0 138.5 19.5t122 53t99.5 77.5t72 94l47 -21 q-41 -90 -104 -161.5t-143 -121t-170 -76t-183 -26.5q-98 0 -169.5 30t-117.5 79t-67.5 114.5t-21.5 137.5zM547 2048h174l63 -387h-112z" />
<glyph unicode="&#xc9;" horiz-adv-x="915" d="M25 324q0 80 25.5 159.5t74.5 150.5t119.5 127t158.5 93q-66 47 -95 111.5t-29 134.5q0 80 32.5 157.5t93 141t142.5 102.5t180 39q61 0 114.5 -16.5t93.5 -49t62.5 -79.5t22.5 -111q0 -92 -45 -152.5t-107 -60.5q-55 0 -96 55q39 14 79 61.5t40 127.5q0 45 -13.5 73.5 t-33 45t-44 22.5t-46.5 6q-47 0 -96.5 -22.5t-91.5 -66.5t-68.5 -110.5t-26.5 -152.5q0 -41 7 -82t25.5 -75.5t50.5 -60.5t81 -36q-90 -18 -159.5 -65.5t-117 -112t-71 -141t-23.5 -156.5q0 -121 62.5 -188.5t195.5 -67.5q72 0 138.5 19.5t122 53t99.5 77.5t72 94l47 -21 q-41 -90 -104 -161.5t-143 -121t-170 -76t-183 -26.5q-98 0 -169.5 30t-117.5 79t-67.5 114.5t-21.5 137.5zM729 1661l186 387h175l-248 -387h-113z" />
<glyph unicode="&#xca;" horiz-adv-x="915" d="M25 324q0 80 25.5 159.5t74.5 150.5t119.5 127t158.5 93q-66 47 -95 111.5t-29 134.5q0 80 32.5 157.5t93 141t142.5 102.5t180 39q61 0 114.5 -16.5t93.5 -49t62.5 -79.5t22.5 -111q0 -92 -45 -152.5t-107 -60.5q-55 0 -96 55q39 14 79 61.5t40 127.5q0 45 -13.5 73.5 t-33 45t-44 22.5t-46.5 6q-47 0 -96.5 -22.5t-91.5 -66.5t-68.5 -110.5t-26.5 -152.5q0 -41 7 -82t25.5 -75.5t50.5 -60.5t81 -36q-90 -18 -159.5 -65.5t-117 -112t-71 -141t-23.5 -156.5q0 -121 62.5 -188.5t195.5 -67.5q72 0 138.5 19.5t122 53t99.5 77.5t72 94l47 -21 q-41 -90 -104 -161.5t-143 -121t-170 -76t-183 -26.5q-98 0 -169.5 30t-117.5 79t-67.5 114.5t-21.5 137.5zM457 1661l411 342h43l125 -342h-45l-133 207l-332 -207h-69z" />
<glyph unicode="&#xcb;" horiz-adv-x="915" d="M25 324q0 80 25.5 159.5t74.5 150.5t119.5 127t158.5 93q-66 47 -95 111.5t-29 134.5q0 80 32.5 157.5t93 141t142.5 102.5t180 39q61 0 114.5 -16.5t93.5 -49t62.5 -79.5t22.5 -111q0 -92 -45 -152.5t-107 -60.5q-55 0 -96 55q39 14 79 61.5t40 127.5q0 45 -13.5 73.5 t-33 45t-44 22.5t-46.5 6q-47 0 -96.5 -22.5t-91.5 -66.5t-68.5 -110.5t-26.5 -152.5q0 -41 7 -82t25.5 -75.5t50.5 -60.5t81 -36q-90 -18 -159.5 -65.5t-117 -112t-71 -141t-23.5 -156.5q0 -121 62.5 -188.5t195.5 -67.5q72 0 138.5 19.5t122 53t99.5 77.5t72 94l47 -21 q-41 -90 -104 -161.5t-143 -121t-170 -76t-183 -26.5q-98 0 -169.5 30t-117.5 79t-67.5 114.5t-21.5 137.5zM535 1827q0 45 30.5 76.5t75.5 31.5t77 -31.5t32 -76.5t-32 -76t-77 -31t-75.5 31t-30.5 76zM870 1827q0 45 31 76.5t76 31.5t76.5 -31.5t31.5 -76.5t-31.5 -76 t-76.5 -31t-76 31t-31 76z" />
<glyph unicode="&#xcc;" horiz-adv-x="827" d="M115 993q0 109 64.5 207t167 173t230.5 119t254 44q23 0 43.5 -1t40.5 -3l-325 -1532h-225l301 1417q-86 -23 -156 -62.5t-120 -98t-77.5 -133t-27.5 -162.5q0 -72 15 -104t34 -52q-102 0 -160.5 42t-58.5 146zM569 2048h174l64 -387h-113z" />
<glyph unicode="&#xcd;" horiz-adv-x="827" d="M115 993q0 109 64.5 207t167 173t230.5 119t254 44q23 0 43.5 -1t40.5 -3l-325 -1532h-225l301 1417q-86 -23 -156 -62.5t-120 -98t-77.5 -133t-27.5 -162.5q0 -72 15 -104t34 -52q-102 0 -160.5 42t-58.5 146zM723 1661l186 387h174l-247 -387h-113z" />
<glyph unicode="&#xce;" horiz-adv-x="827" d="M115 993q0 109 64.5 207t167 173t230.5 119t254 44q23 0 43.5 -1t40.5 -3l-325 -1532h-225l301 1417q-86 -23 -156 -62.5t-120 -98t-77.5 -133t-27.5 -162.5q0 -72 15 -104t34 -52q-102 0 -160.5 42t-58.5 146zM524 1661l412 342h43l125 -342h-45l-133 207l-332 -207h-70 z" />
<glyph unicode="&#xcf;" horiz-adv-x="827" d="M115 993q0 109 64.5 207t167 173t230.5 119t254 44q23 0 43.5 -1t40.5 -3l-325 -1532h-225l301 1417q-86 -23 -156 -62.5t-120 -98t-77.5 -133t-27.5 -162.5q0 -72 15 -104t34 -52q-102 0 -160.5 42t-58.5 146zM524 1827q0 45 31 76.5t76 31.5t76.5 -31.5t31.5 -76.5 t-31.5 -76t-76.5 -31t-76 31t-31 76zM860 1827q0 45 31 76.5t76 31.5t76.5 -31.5t31.5 -76.5t-31.5 -76t-76.5 -31t-76 31t-31 76z" />
<glyph unicode="&#xd0;" horiz-adv-x="1441" d="M115 995q0 104 61.5 202.5t164.5 173.5t239.5 120t287.5 45q152 0 257.5 -46t172 -128t96 -191.5t29.5 -236.5q0 -113 -22.5 -227.5t-63.5 -221t-95 -201t-117.5 -163t-133 -108.5t-139.5 -40q-61 0 -124.5 29t-133.5 90l-19 -92h-225l156 721h-135l32 125h129l101 467 l229 30l-106 -497h174l-33 -125h-168l-121 -561q66 -53 133 -54q76 0 138.5 42t112.5 114t86 165t60.5 195.5t37 207t12.5 198.5q0 121 -22.5 204t-67.5 134t-114 73.5t-159 22.5q-104 0 -205.5 -34.5t-180.5 -100t-127 -161t-48 -216.5q0 -63 26.5 -97t43.5 -48 q-102 0 -160.5 43t-58.5 147z" />
<glyph unicode="&#xd1;" horiz-adv-x="1458" d="M123 1004q0 92 46 186t124 171t181.5 126t219.5 49q35 0 70 -6t67 -23l281 -1274l285 1299h157l-348 -1532h-262l-258 1104l-254 -1104h-153l321 1415q-150 -43 -239 -154.5t-89 -299.5q0 -72 16.5 -104t33.5 -52q-98 0 -148.5 44t-50.5 155zM754 1712q45 90 123.5 135 t183.5 45q51 0 90 -9t74 -20.5t67.5 -20.5t73.5 -9q35 0 65.5 10t51.5 31h10q-8 -33 -35.5 -65.5t-68.5 -59.5t-91.5 -43t-101.5 -16q-45 0 -85 10t-77 23.5t-73.5 23.5t-73.5 10q-72 0 -123 -49z" />
<glyph unicode="&#xd2;" horiz-adv-x="1427" d="M111 977q0 106 68.5 207.5t182 179.5t261 125t303.5 47q137 0 232 -38t153.5 -107.5t84 -165t25.5 -207.5q0 -100 -18.5 -216t-58 -229.5t-100 -220t-143.5 -187.5t-190.5 -129t-238.5 -48q-84 0 -152.5 22.5t-118 71.5t-76 127t-26.5 190q0 82 15.5 185.5t46 211 t76.5 209t108.5 180.5t139.5 127t171 48q23 0 49.5 -3.5t55.5 -13.5q-53 -29 -105.5 -88t-98.5 -139t-85 -173t-68 -189.5t-44 -190.5t-15 -172q0 -117 40 -182.5t140 -65.5q84 0 167 86t149.5 223.5t107.5 308.5t41 343q0 94 -15.5 162.5t-51.5 111.5t-96 63.5t-150 20.5 q-115 0 -222.5 -38t-191.5 -108.5t-135.5 -172t-51.5 -225.5q0 -53 4.5 -75t16.5 -38q-88 0 -137 39t-49 133zM780 2048h174l64 -387h-113z" />
<glyph unicode="&#xd3;" horiz-adv-x="1427" d="M111 977q0 106 68.5 207.5t182 179.5t261 125t303.5 47q137 0 232 -38t153.5 -107.5t84 -165t25.5 -207.5q0 -100 -18.5 -216t-58 -229.5t-100 -220t-143.5 -187.5t-190.5 -129t-238.5 -48q-84 0 -152.5 22.5t-118 71.5t-76 127t-26.5 190q0 82 15.5 185.5t46 211 t76.5 209t108.5 180.5t139.5 127t171 48q23 0 49.5 -3.5t55.5 -13.5q-53 -29 -105.5 -88t-98.5 -139t-85 -173t-68 -189.5t-44 -190.5t-15 -172q0 -117 40 -182.5t140 -65.5q84 0 167 86t149.5 223.5t107.5 308.5t41 343q0 94 -15.5 162.5t-51.5 111.5t-96 63.5t-150 20.5 q-115 0 -222.5 -38t-191.5 -108.5t-135.5 -172t-51.5 -225.5q0 -53 4.5 -75t16.5 -38q-88 0 -137 39t-49 133zM954 1661l187 387h174l-248 -387h-113z" />
<glyph unicode="&#xd4;" horiz-adv-x="1427" d="M111 977q0 106 68.5 207.5t182 179.5t261 125t303.5 47q137 0 232 -38t153.5 -107.5t84 -165t25.5 -207.5q0 -100 -18.5 -216t-58 -229.5t-100 -220t-143.5 -187.5t-190.5 -129t-238.5 -48q-84 0 -152.5 22.5t-118 71.5t-76 127t-26.5 190q0 82 15.5 185.5t46 211 t76.5 209t108.5 180.5t139.5 127t171 48q23 0 49.5 -3.5t55.5 -13.5q-53 -29 -105.5 -88t-98.5 -139t-85 -173t-68 -189.5t-44 -190.5t-15 -172q0 -117 40 -182.5t140 -65.5q84 0 167 86t149.5 223.5t107.5 308.5t41 343q0 94 -15.5 162.5t-51.5 111.5t-96 63.5t-150 20.5 q-115 0 -222.5 -38t-191.5 -108.5t-135.5 -172t-51.5 -225.5q0 -53 4.5 -75t16.5 -38q-88 0 -137 39t-49 133zM727 1661l412 342h43l125 -342h-45l-134 207l-331 -207h-70z" />
<glyph unicode="&#xd5;" horiz-adv-x="1427" d="M111 977q0 106 68.5 207.5t182 179.5t261 125t303.5 47q137 0 232 -38t153.5 -107.5t84 -165t25.5 -207.5q0 -100 -18.5 -216t-58 -229.5t-100 -220t-143.5 -187.5t-190.5 -129t-238.5 -48q-84 0 -152.5 22.5t-118 71.5t-76 127t-26.5 190q0 82 15.5 185.5t46 211 t76.5 209t108.5 180.5t139.5 127t171 48q23 0 49.5 -3.5t55.5 -13.5q-53 -29 -105.5 -88t-98.5 -139t-85 -173t-68 -189.5t-44 -190.5t-15 -172q0 -117 40 -182.5t140 -65.5q84 0 167 86t149.5 223.5t107.5 308.5t41 343q0 94 -15.5 162.5t-51.5 111.5t-96 63.5t-150 20.5 q-115 0 -222.5 -38t-191.5 -108.5t-135.5 -172t-51.5 -225.5q0 -53 4.5 -75t16.5 -38q-88 0 -137 39t-49 133zM713 1712q45 90 123.5 135t183.5 45q51 0 90 -9t74 -20.5t67.5 -20.5t73.5 -9q35 0 65.5 10t51.5 31h10q-8 -33 -35.5 -65.5t-68.5 -59.5t-91.5 -43t-101.5 -16 q-45 0 -85 10t-77 23.5t-73.5 23.5t-73.5 10q-72 0 -123 -49z" />
<glyph unicode="&#xd6;" horiz-adv-x="1427" d="M111 977q0 106 68.5 207.5t182 179.5t261 125t303.5 47q137 0 232 -38t153.5 -107.5t84 -165t25.5 -207.5q0 -100 -18.5 -216t-58 -229.5t-100 -220t-143.5 -187.5t-190.5 -129t-238.5 -48q-84 0 -152.5 22.5t-118 71.5t-76 127t-26.5 190q0 82 15.5 185.5t46 211 t76.5 209t108.5 180.5t139.5 127t171 48q23 0 49.5 -3.5t55.5 -13.5q-53 -29 -105.5 -88t-98.5 -139t-85 -173t-68 -189.5t-44 -190.5t-15 -172q0 -117 40 -182.5t140 -65.5q84 0 167 86t149.5 223.5t107.5 308.5t41 343q0 94 -15.5 162.5t-51.5 111.5t-96 63.5t-150 20.5 q-115 0 -222.5 -38t-191.5 -108.5t-135.5 -172t-51.5 -225.5q0 -53 4.5 -75t16.5 -38q-88 0 -137 39t-49 133zM829 1827q0 45 31 76.5t76 31.5t76.5 -31.5t31.5 -76.5t-31.5 -76t-76.5 -31t-76 31t-31 76zM1165 1827q0 45 31 76.5t76 31.5t76.5 -31.5t31.5 -76.5t-31.5 -76 t-76.5 -31t-76 31t-31 76z" />
<glyph unicode="&#xd7;" horiz-adv-x="821" d="M78 750l104 106l224 -227l196 196l98 -98l-196 -197l192 -190l-102 -107l-195 193l-217 -217l-98 98l217 217z" />
<glyph unicode="&#xd8;" horiz-adv-x="1404" d="M106 977q0 106 69 207.5t182.5 179.5t261 125t303.5 47h32.5t32.5 -2v8h66l-2 -16q100 -18 169.5 -62.5t113.5 -111t63.5 -151.5t19.5 -183q0 -96 -17.5 -207t-54 -221.5t-92 -214t-133.5 -185t-176 -135t-219 -63.5l-29 -137h-65l28 133q-82 2 -149.5 24.5t-114.5 71.5 t-73.5 127t-26.5 188q0 82 15.5 185.5t46 211t76.5 209t108.5 180.5t139.5 127t171 48q20 0 45 -3t49 -11l23 108q-39 8 -97 8q-115 0 -222 -38t-191 -108.5t-135.5 -172t-51.5 -225.5q0 -53 4.5 -75t16.5 -38q-88 0 -137.5 39t-49.5 133zM541 391q0 -111 32.5 -173 t118.5 -73l252 1192q-53 -31 -103 -92t-95.5 -140t-83 -171t-64.5 -187.5t-42 -186.5t-15 -169zM758 147q80 20 156.5 111.5t137 224.5t97.5 296t37 325q0 139 -34 220t-120 114z" />
<glyph unicode="&#xd9;" horiz-adv-x="1576" d="M113 993q0 109 64.5 207t169 173t235.5 119t264 44q27 0 46 -2t52 -8q-72 -264 -124 -453.5t-86 -324t-50 -224.5t-16 -157q0 -53 6 -94.5t25.5 -70t55.5 -44t95 -15.5q49 0 93 9.5t83 38t75 80t70.5 135t69.5 204.5t72 289l137 633h221l-135 -639 q-49 -233 -101.5 -404.5t-130 -283t-192.5 -165.5t-287 -54q-111 0 -186.5 21.5t-121.5 64.5t-66.5 104.5t-20.5 140.5q0 147 51 357.5t117 472.5l74 301q-190 -37 -301 -169t-111 -331q0 -76 12.5 -101.5t18.5 -39.5q-72 0 -125 46t-53 140zM1028 2048h174l64 -387h-113z " />
<glyph unicode="&#xda;" horiz-adv-x="1576" d="M113 993q0 109 64.5 207t169 173t235.5 119t264 44q27 0 46 -2t52 -8q-72 -264 -124 -453.5t-86 -324t-50 -224.5t-16 -157q0 -53 6 -94.5t25.5 -70t55.5 -44t95 -15.5q49 0 93 9.5t83 38t75 80t70.5 135t69.5 204.5t72 289l137 633h221l-135 -639 q-49 -233 -101.5 -404.5t-130 -283t-192.5 -165.5t-287 -54q-111 0 -186.5 21.5t-121.5 64.5t-66.5 104.5t-20.5 140.5q0 147 51 357.5t117 472.5l74 301q-190 -37 -301 -169t-111 -331q0 -76 12.5 -101.5t18.5 -39.5q-72 0 -125 46t-53 140zM1141 1661l186 387h174 l-248 -387h-112z" />
<glyph unicode="&#xdb;" horiz-adv-x="1576" d="M113 993q0 109 64.5 207t169 173t235.5 119t264 44q27 0 46 -2t52 -8q-72 -264 -124 -453.5t-86 -324t-50 -224.5t-16 -157q0 -53 6 -94.5t25.5 -70t55.5 -44t95 -15.5q49 0 93 9.5t83 38t75 80t70.5 135t69.5 204.5t72 289l137 633h221l-135 -639 q-49 -233 -101.5 -404.5t-130 -283t-192.5 -165.5t-287 -54q-111 0 -186.5 21.5t-121.5 64.5t-66.5 104.5t-20.5 140.5q0 147 51 357.5t117 472.5l74 301q-190 -37 -301 -169t-111 -331q0 -76 12.5 -101.5t18.5 -39.5q-72 0 -125 46t-53 140zM930 1661l411 342h43l125 -342 h-45l-133 207l-332 -207h-69z" />
<glyph unicode="&#xdc;" horiz-adv-x="1576" d="M113 993q0 109 64.5 207t169 173t235.5 119t264 44q27 0 46 -2t52 -8q-72 -264 -124 -453.5t-86 -324t-50 -224.5t-16 -157q0 -53 6 -94.5t25.5 -70t55.5 -44t95 -15.5q49 0 93 9.5t83 38t75 80t70.5 135t69.5 204.5t72 289l137 633h221l-135 -639 q-49 -233 -101.5 -404.5t-130 -283t-192.5 -165.5t-287 -54q-111 0 -186.5 21.5t-121.5 64.5t-66.5 104.5t-20.5 140.5q0 147 51 357.5t117 472.5l74 301q-190 -37 -301 -169t-111 -331q0 -76 12.5 -101.5t18.5 -39.5q-72 0 -125 46t-53 140zM1012 1827q0 45 30.5 76.5 t75.5 31.5t77 -31.5t32 -76.5t-32 -76t-77 -31t-75.5 31t-30.5 76zM1348 1827q0 45 30.5 76.5t75.5 31.5t77 -31.5t32 -76.5t-32 -76t-77 -31t-75.5 31t-30.5 76z" />
<glyph unicode="&#xdd;" horiz-adv-x="1257" d="M121 993q0 109 48 207t131 173t194.5 119t238.5 44q23 0 43.5 -1t40.5 -3l193 -797l329 791h95l-398 -895l-135 -631h-223l135 631l-213 831q-92 -25 -158.5 -74t-108.5 -112.5t-62.5 -136t-20.5 -140.5q0 -119 49 -194q-84 0 -131 42t-47 146zM1122 1661l187 387h174 l-248 -387h-113z" />
<glyph unicode="&#xde;" horiz-adv-x="1230" d="M70 768q0 88 40 168t109.5 147.5t161.5 117.5t194 79l50 223l229 31l-47 -223q117 -2 203 -36t143 -89.5t86 -128t29 -152.5q0 -96 -41 -193.5t-117 -176t-186.5 -128t-247.5 -49.5h-28.5t-45.5 2l-76 -360h-225l260 1210q-158 -47 -252 -172t-94 -315q0 -39 4 -62.5 t8 -38t9.5 -22.5t7.5 -14q-84 0 -129 45t-45 137zM614 420h48q94 0 175 48t139 124t92 169t34 183q0 55 -15.5 106.5t-51.5 91.5t-95 64.5t-149 28.5z" />
<glyph unicode="&#xdf;" horiz-adv-x="921" d="M-139 -512l340 1597q23 111 64.5 178.5t94 105.5t107.5 51.5t106 13.5q72 0 124.5 -21.5t87 -57.5t52 -83t17.5 -98q0 -88 -48 -172t-140 -128q109 -37 153.5 -117.5t44.5 -172.5q0 -158 -40 -268.5t-99 -180t-127 -102.5t-123 -33q-16 0 -33.5 1t-33.5 3l16 80 q82 0 138 51t91 128t50.5 166t15.5 165t-47 141.5t-156 89.5l25 78q51 12 91 39t67.5 62.5t41 75.5t13.5 79q0 78 -34 115t-81 37q-31 0 -63.5 -14.5t-61.5 -43t-51.5 -70.5t-34.5 -98l-326 -1523z" />
<glyph unicode="&#xe0;" d="M10 317q0 70 15.5 150t44 160t73.5 153.5t102.5 130t130.5 90t159 33.5q49 0 100 -22.5t67 -85.5l21 98h207l-150 -696q-10 -41 -10 -92q0 -35 12.5 -64t51.5 -29q49 0 99 59.5t95 164.5h76q-49 -129 -98.5 -204t-95.5 -114t-88 -50t-74 -11q-68 0 -112 47t-52 153 q-47 -84 -130 -142t-182 -58q-49 0 -96 17.5t-84 57t-59.5 102t-22.5 152.5zM229 346q0 -117 35 -160t94 -43q31 0 67 17.5t67.5 47.5t56 70.5t35.5 88.5l98 464q-6 35 -30.5 63t-71.5 28q-84 0 -149.5 -61.5t-111 -149.5t-68 -188.5t-22.5 -176.5zM426 1536h174l64 -387 h-113z" />
<glyph unicode="&#xe1;" d="M10 317q0 70 15.5 150t44 160t73.5 153.5t102.5 130t130.5 90t159 33.5q49 0 100 -22.5t67 -85.5l21 98h207l-150 -696q-10 -41 -10 -92q0 -35 12.5 -64t51.5 -29q49 0 99 59.5t95 164.5h76q-49 -129 -98.5 -204t-95.5 -114t-88 -50t-74 -11q-68 0 -112 47t-52 153 q-47 -84 -130 -142t-182 -58q-49 0 -96 17.5t-84 57t-59.5 102t-22.5 152.5zM229 346q0 -117 35 -160t94 -43q31 0 67 17.5t67.5 47.5t56 70.5t35.5 88.5l98 464q-6 35 -30.5 63t-71.5 28q-84 0 -149.5 -61.5t-111 -149.5t-68 -188.5t-22.5 -176.5zM518 1149l187 387h174 l-248 -387h-113z" />
<glyph unicode="&#xe2;" d="M10 317q0 70 15.5 150t44 160t73.5 153.5t102.5 130t130.5 90t159 33.5q49 0 100 -22.5t67 -85.5l21 98h207l-150 -696q-10 -41 -10 -92q0 -35 12.5 -64t51.5 -29q49 0 99 59.5t95 164.5h76q-49 -129 -98.5 -204t-95.5 -114t-88 -50t-74 -11q-68 0 -112 47t-52 153 q-47 -84 -130 -142t-182 -58q-49 0 -96 17.5t-84 57t-59.5 102t-22.5 152.5zM229 346q0 -117 35 -160t94 -43q31 0 67 17.5t67.5 47.5t56 70.5t35.5 88.5l98 464q-6 35 -30.5 63t-71.5 28q-84 0 -149.5 -61.5t-111 -149.5t-68 -188.5t-22.5 -176.5zM303 1149l412 342h43 l125 -342h-45l-133 207l-332 -207h-70z" />
<glyph unicode="&#xe3;" d="M10 317q0 70 15.5 150t44 160t73.5 153.5t102.5 130t130.5 90t159 33.5q49 0 100 -22.5t67 -85.5l21 98h207l-150 -696q-10 -41 -10 -92q0 -35 12.5 -64t51.5 -29q49 0 99 59.5t95 164.5h76q-49 -129 -98.5 -204t-95.5 -114t-88 -50t-74 -11q-68 0 -112 47t-52 153 q-47 -84 -130 -142t-182 -58q-49 0 -96 17.5t-84 57t-59.5 102t-22.5 152.5zM229 346q0 -117 35 -160t94 -43q31 0 67 17.5t67.5 47.5t56 70.5t35.5 88.5l98 464q-6 35 -30.5 63t-71.5 28q-84 0 -149.5 -61.5t-111 -149.5t-68 -188.5t-22.5 -176.5zM256 1200q45 90 124 135 t183 45q51 0 90 -9t74 -20.5t67.5 -20.5t73.5 -9q35 0 66 10t51 31h10q-8 -33 -35.5 -65.5t-68.5 -59.5t-91 -43t-102 -16q-45 0 -85 10t-76.5 23.5t-73.5 23.5t-74 10q-72 0 -123 -49z" />
<glyph unicode="&#xe4;" d="M10 317q0 70 15.5 150t44 160t73.5 153.5t102.5 130t130.5 90t159 33.5q49 0 100 -22.5t67 -85.5l21 98h207l-150 -696q-10 -41 -10 -92q0 -35 12.5 -64t51.5 -29q49 0 99 59.5t95 164.5h76q-49 -129 -98.5 -204t-95.5 -114t-88 -50t-74 -11q-68 0 -112 47t-52 153 q-47 -84 -130 -142t-182 -58q-49 0 -96 17.5t-84 57t-59.5 102t-22.5 152.5zM229 346q0 -117 35 -160t94 -43q33 0 68 17.5t66.5 47.5t56 70.5t35.5 88.5l98 464q-6 35 -30.5 63t-71.5 28q-84 0 -149.5 -61.5t-111 -149.5t-68 -188.5t-22.5 -176.5zM422 1315q0 45 30.5 76.5 t75.5 31.5t77 -31.5t32 -76.5t-32 -76t-77 -31t-75.5 31t-30.5 76zM758 1315q0 45 30.5 76.5t75.5 31.5t77 -31.5t32 -76.5t-32 -76t-77 -31t-75.5 31t-30.5 76z" />
<glyph unicode="&#xe5;" d="M10 317q0 70 15.5 150t44 160t73.5 153.5t102.5 130t130.5 90t159 33.5q49 0 100 -22.5t67 -85.5l21 98h207l-150 -696q-10 -41 -10 -92q0 -35 12.5 -64t51.5 -29q49 0 99 59.5t95 164.5h76q-49 -129 -98.5 -204t-95.5 -114t-88 -50t-74 -11q-68 0 -112 47t-52 153 q-47 -84 -130 -142t-182 -58q-49 0 -96 17.5t-84 57t-59.5 102t-22.5 152.5zM229 346q0 -117 35 -160t94 -43q33 0 68 17.5t66.5 47.5t56 70.5t35.5 88.5l98 464q-6 35 -30.5 63t-71.5 28q-84 0 -149.5 -61.5t-111 -149.5t-68 -188.5t-22.5 -176.5zM514 1274q0 27 10.5 59.5 t30.5 61t53 47t80 18.5q76 0 112 -46t36 -111q0 -68 -41 -120.5t-138 -52.5q-66 0 -104.5 42t-38.5 102zM596 1278q0 -35 16.5 -55.5t53.5 -20.5q47 0 70.5 25.5t23.5 68.5q0 14 -1 32t-8.5 32t-20.5 23.5t-38 9.5q-53 0 -74.5 -38t-21.5 -77z" />
<glyph unicode="&#xe6;" horiz-adv-x="1271" d="M18 254q0 94 35 159.5t96.5 105.5t144.5 57.5t179 17.5q45 0 73.5 -2t51.5 -6q18 43 30.5 94t12.5 86q0 72 -34 121t-109 49q-92 0 -147.5 -35t-100.5 -86l-57 59q74 78 153.5 119t190.5 41q66 0 131 -22.5t131 -71.5q51 37 116.5 65.5t137.5 28.5q43 0 82 -9t69.5 -32.5 t49 -64.5t18.5 -105q0 -174 -134 -272t-374 -117q-2 -16 -4 -44t-2 -44q0 -104 40 -153.5t138 -49.5t194.5 51.5t176.5 172.5h65q-41 -76 -98 -144.5t-127 -121t-148.5 -83t-160.5 -30.5q-94 0 -165 45t-104 149q-20 -39 -45.5 -74.5t-59.5 -62.5t-79 -42t-106 -15 q-45 0 -91.5 11t-84 41t-61.5 81t-24 133zM233 289q0 -78 33 -112t84 -34q72 0 134.5 88t84.5 256q-10 2 -17 2h-17q-55 0 -109.5 -14t-97.5 -39.5t-69 -63.5t-26 -83zM774 514q172 18 272.5 104.5t100.5 225.5q0 35 -13.5 62.5t-62.5 27.5q-57 0 -105 -36t-86 -95.5 t-65 -134t-41 -154.5z" />
<glyph unicode="&#xe7;" horiz-adv-x="745" d="M16 317q0 57 12.5 133t38 155t66.5 157t100.5 138.5t137.5 97t176 36.5q104 0 159.5 -47t55.5 -147q0 -72 -27.5 -122t-81.5 -50q-45 0 -67 43q27 16 44 57t17 76t-22.5 58.5t-69.5 23.5q-72 0 -130 -58.5t-99 -145.5t-63.5 -188.5t-22.5 -187.5q0 -106 39.5 -154.5 t140.5 -48.5q109 0 201 54.5t159 169.5h70q-41 -74 -96.5 -141.5t-122 -119t-142 -84t-155.5 -34.5l-49 -123q66 16 108 16q66 0 96.5 -27.5t30.5 -74.5q0 -55 -21.5 -97t-56 -71t-79 -43t-89.5 -14q-78 0 -126 17t-93 40q14 25 34 45t48 20q20 0 38 -9t36 -21.5t36.5 -21.5 t41.5 -9q45 0 73.5 29.5t28.5 62.5q0 35 -23.5 64.5t-76.5 29.5q-47 0 -77 -15t-50 -30l84 238q-47 8 -89 31.5t-74 63.5t-50.5 96.5t-18.5 131.5z" />
<glyph unicode="&#xe8;" horiz-adv-x="753" d="M16 315q0 57 12.5 133t38 156t67.5 158t99.5 138.5t132 97t169.5 36.5q43 0 81.5 -9t69.5 -32.5t49.5 -65t18.5 -104.5q0 -174 -136.5 -281.5t-375.5 -131.5q-2 -16 -2 -32v-32q0 -104 39.5 -153.5t138.5 -49.5q98 0 194.5 51.5t175.5 172.5h66q-41 -76 -98.5 -144.5 t-127 -121t-148.5 -83t-161 -30.5q-59 0 -113 18.5t-96 57t-68 101t-26 150.5zM252 489q172 27 274.5 121.5t102.5 233.5q0 35 -13.5 62.5t-62.5 27.5q-57 0 -106.5 -40t-87 -103.5t-65.5 -142.5t-42 -159zM362 1536h175l63 -387h-113z" />
<glyph unicode="&#xe9;" horiz-adv-x="753" d="M16 315q0 57 12.5 133t38 156t67.5 158t99.5 138.5t132 97t169.5 36.5q43 0 81.5 -9t69.5 -32.5t49.5 -65t18.5 -104.5q0 -174 -136.5 -281.5t-375.5 -131.5q-2 -16 -2 -32v-32q0 -104 39.5 -153.5t138.5 -49.5q98 0 194.5 51.5t175.5 172.5h66q-41 -76 -98.5 -144.5 t-127 -121t-148.5 -83t-161 -30.5q-59 0 -113 18.5t-96 57t-68 101t-26 150.5zM252 489q172 27 274.5 121.5t102.5 233.5q0 35 -13.5 62.5t-62.5 27.5q-57 0 -106.5 -40t-87 -103.5t-65.5 -142.5t-42 -159zM506 1149l186 387h174l-248 -387h-112z" />
<glyph unicode="&#xea;" horiz-adv-x="753" d="M16 315q0 57 12.5 133t38 156t67.5 158t99.5 138.5t132 97t169.5 36.5q43 0 81.5 -9t69.5 -32.5t49.5 -65t18.5 -104.5q0 -174 -136.5 -281.5t-375.5 -131.5q-2 -16 -2 -32v-32q0 -104 39.5 -153.5t138.5 -49.5q98 0 194.5 51.5t175.5 172.5h66q-41 -76 -98.5 -144.5 t-127 -121t-148.5 -83t-161 -30.5q-59 0 -113 18.5t-96 57t-68 101t-26 150.5zM252 489q172 27 274.5 121.5t102.5 233.5q0 35 -13.5 62.5t-62.5 27.5q-57 0 -106.5 -40t-87 -103.5t-65.5 -142.5t-42 -159zM260 1149l412 342h43l125 -342h-45l-133 207l-332 -207h-70z" />
<glyph unicode="&#xeb;" horiz-adv-x="753" d="M16 315q0 57 12.5 133t38 156t67.5 158t99.5 138.5t132 97t169.5 36.5q43 0 81.5 -9t69.5 -32.5t49.5 -65t18.5 -104.5q0 -174 -136.5 -281.5t-375.5 -131.5q-2 -16 -2 -32v-32q0 -104 39.5 -153.5t138.5 -49.5q98 0 194.5 51.5t175.5 172.5h66q-41 -76 -98.5 -144.5 t-127 -121t-148.5 -83t-161 -30.5q-59 0 -113 18.5t-96 57t-68 101t-26 150.5zM252 489q172 27 274.5 121.5t102.5 233.5q0 35 -13.5 62.5t-62.5 27.5q-57 0 -106.5 -40t-87 -103.5t-65.5 -142.5t-42 -159zM317 1315q0 45 31 76.5t76 31.5t76.5 -31.5t31.5 -76.5t-31.5 -76 t-76.5 -31t-76 31t-31 76zM653 1315q0 45 31 76.5t76 31.5t76.5 -31.5t31.5 -76.5t-31.5 -76t-76.5 -31t-76 31t-31 76z" />
<glyph unicode="&#xec;" horiz-adv-x="444" d="M16 215q0 37 5.5 76t13.5 76l139 657h207l-150 -696q-10 -41 -10 -92q0 -35 12.5 -64t51.5 -29q49 0 99 59.5t95 164.5h76q-49 -129 -98 -204t-95.5 -114t-88.5 -50t-74 -11q-53 0 -88 18.5t-55.5 49t-30 71.5t-9.5 88zM90 1536h174l64 -387h-113z" />
<glyph unicode="&#xed;" horiz-adv-x="444" d="M16 215q0 37 5.5 76t13.5 76l139 657h207l-150 -696q-10 -41 -10 -92q0 -35 12.5 -64t51.5 -29q49 0 99 59.5t95 164.5h76q-49 -129 -98 -204t-95.5 -114t-88.5 -50t-74 -11q-53 0 -88 18.5t-55.5 49t-30 71.5t-9.5 88zM244 1149l186 387h174l-248 -387h-112z" />
<glyph unicode="&#xee;" horiz-adv-x="444" d="M16 215q0 37 5.5 76t13.5 76l139 657h207l-150 -696q-10 -41 -10 -92q0 -35 12.5 -64t51.5 -29q49 0 99 59.5t95 164.5h76q-49 -129 -98 -204t-95.5 -114t-88.5 -50t-74 -11q-53 0 -88 18.5t-55.5 49t-30 71.5t-9.5 88zM25 1149l411 342h43l125 -342h-45l-133 207 l-332 -207h-69z" />
<glyph unicode="&#xef;" horiz-adv-x="444" d="M16 215q0 37 5.5 76t13.5 76l139 657h207l-150 -696q-10 -41 -10 -92q0 -35 12.5 -64t51.5 -29q49 0 99 59.5t95 164.5h76q-49 -129 -98 -204t-95.5 -114t-88.5 -50t-74 -11q-53 0 -88 18.5t-55.5 49t-30 71.5t-9.5 88zM47 1315q0 45 31 76.5t76 31.5t76.5 -31.5 t31.5 -76.5t-31.5 -76t-76.5 -31t-76 31t-31 76zM383 1315q0 45 30.5 76.5t75.5 31.5t77 -31.5t32 -76.5t-31.5 -76t-77.5 -31q-45 0 -75.5 31t-30.5 76z" />
<glyph unicode="&#xf0;" d="M10 317q0 70 15.5 150t44 160t73.5 153.5t102.5 130t130.5 90t159 33.5q51 0 101 -22.5t66 -87.5l15 69q10 55 17 102.5t7 88.5v14l-147 -20v61l141 21q-18 86 -82 174h72q45 -29 91 -66t81 -86l141 21v-62l-112 -16q18 -43 18 -101q0 -35 -10 -86l-154 -710 q-10 -41 -10 -92q0 -35 12.5 -64t51.5 -29q49 0 99 59.5t95 164.5h76q-49 -129 -98.5 -204t-95.5 -114t-88 -50t-74 -11q-68 0 -112 47t-52 153q-47 -84 -130 -142t-182 -58q-49 0 -96 17.5t-84 57t-59.5 102t-22.5 152.5zM229 346q0 -117 35 -160t94 -43q33 0 68 17.5 t66.5 47.5t56 70.5t35.5 88.5l98 464q-4 33 -29.5 62t-72.5 29q-84 0 -149.5 -61.5t-111 -149.5t-68 -188.5t-22.5 -176.5z" />
<glyph unicode="&#xf1;" horiz-adv-x="956" d="M-45 0l217 1024h207l-33 -154q39 53 78 86t75 50.5t67.5 22.5t58.5 5q61 0 102 -18.5t65.5 -50t34 -73.5t9.5 -89q0 -68 -15.5 -141.5t-34 -145.5t-34 -141.5t-15.5 -130.5q0 -43 12.5 -72t49.5 -29q96 0 192 224h76q-49 -129 -98 -205t-95.5 -114t-86 -49t-70.5 -11 q-106 0 -151.5 66.5t-45.5 164.5q0 68 15.5 141.5t34 145.5t33.5 138.5t15 121.5q0 51 -18 82t-72 31q-127 0 -227 -220l-141 -659h-205zM215 1200q45 90 124 135t183 45q51 0 90 -9t74 -20.5t67.5 -20.5t73.5 -9q35 0 66 10t51 31h10q-8 -33 -35.5 -65.5t-68.5 -59.5 t-91 -43t-102 -16q-45 0 -85 10t-76.5 23.5t-73.5 23.5t-74 10q-72 0 -123 -49z" />
<glyph unicode="&#xf2;" horiz-adv-x="858" d="M16 311q0 59 10.5 135t35 157t64.5 158t100.5 138.5t140.5 98t186 36.5q123 0 176 -83t55 -240q8 -2 15.5 -3t17.5 -1q35 0 77 12t84 30.5t80 41t62 43.5l19 -56q-57 -66 -152.5 -109.5t-206.5 -58.5q-10 -133 -45 -246.5t-92 -197.5t-135 -131t-172 -47q-68 0 -126 17.5 t-101 56t-68 100t-25 149.5zM242 348q0 -106 38 -155.5t134 -49.5q45 0 89 32t79.5 91.5t61.5 144.5t36 193q-51 0 -66.5 23.5t-15.5 60.5q0 53 24.5 76.5t63.5 28.5q-8 72 -40 100.5t-83 28.5t-95 -29t-80 -75t-63.5 -106.5t-46 -124t-27.5 -126t-9 -113.5zM367 1536h174 l63 -387h-112z" />
<glyph unicode="&#xf3;" horiz-adv-x="858" d="M16 311q0 59 10.5 135t35 157t64.5 158t100.5 138.5t140.5 98t186 36.5q123 0 176 -83t55 -240q8 -4 16.5 -4h18.5q35 0 77 12t84 30.5t79 41t61 43.5l19 -56q-57 -66 -152.5 -109.5t-206.5 -58.5q-10 -133 -45 -246.5t-92 -197.5t-135 -131t-172 -47q-68 0 -126 17.5 t-101 56t-68 100t-25 149.5zM242 348q0 -106 38 -155.5t134 -49.5q45 0 89 32t79.5 91.5t61.5 144.5t36 193q-51 0 -66.5 23.5t-15.5 60.5q0 53 24.5 76.5t63.5 28.5q-8 72 -40 100.5t-83 28.5t-95 -29t-80 -75t-63.5 -106.5t-46 -124t-27.5 -126t-9 -113.5zM506 1149 l186 387h174l-248 -387h-112z" />
<glyph unicode="&#xf4;" horiz-adv-x="858" d="M16 311q0 59 10.5 135t35 157t64.5 158t100.5 138.5t140.5 98t186 36.5q123 0 176 -83t55 -240q6 -2 23 -2q35 0 79 11t87 29.5t83 41t64 43.5l19 -56q-57 -66 -152.5 -109.5t-206.5 -58.5q-10 -133 -45 -246.5t-92 -197.5t-135 -131t-172 -47q-68 0 -126 17.5t-101 56 t-68 100t-25 149.5zM242 348q0 -106 38 -155.5t134 -49.5q45 0 89 32t79.5 91.5t61.5 144.5t36 193q-51 0 -66.5 23.5t-15.5 60.5q0 53 24.5 76.5t63.5 28.5q-8 72 -40 100.5t-83 28.5t-95 -29t-80 -75t-63.5 -106.5t-46 -124t-27.5 -126t-9 -113.5zM252 1149l412 342h43 l124 -342h-45l-133 207l-331 -207h-70z" />
<glyph unicode="&#xf5;" horiz-adv-x="858" d="M16 311q0 59 10.5 135t35 157t64.5 158t100.5 138.5t140.5 98t186 36.5q123 0 176 -83t55 -240q16 -4 31 -4q35 0 78 12t85 30.5t80 41t62 43.5l19 -56q-57 -66 -152.5 -109.5t-206.5 -58.5q-10 -133 -45 -246.5t-92 -197.5t-135 -131t-172 -47q-68 0 -126 17.5t-101 56 t-68 100t-25 149.5zM188 1200q45 90 124 135t184 45q51 0 90 -9t73.5 -20.5t67.5 -20.5t74 -9q35 0 65.5 10t51.5 31h10q-8 -33 -36 -65.5t-69 -59.5t-91 -43t-101 -16q-45 0 -85 10t-77 23.5t-74 23.5t-73 10q-72 0 -123 -49zM242 348q0 -106 38 -155.5t134 -49.5 q45 0 89 32t79.5 91.5t61.5 144.5t36 193q-51 0 -66.5 23.5t-15.5 60.5q0 53 24.5 76.5t63.5 28.5q-8 72 -40 100.5t-83 28.5t-95 -29t-80 -75t-63.5 -106.5t-46 -124t-27.5 -126t-9 -113.5z" />
<glyph unicode="&#xf6;" horiz-adv-x="858" d="M16 311q0 59 10.5 135t35 157t64.5 158t100.5 138.5t140.5 98t186 36.5q123 0 176 -83t55 -240q14 -6 37 -6q35 0 77 13t84 32.5t78 42t60 41.5l19 -56q-57 -66 -152.5 -109.5t-206.5 -58.5q-10 -133 -45 -246.5t-92 -197.5t-135 -131t-172 -47q-68 0 -126 17.5t-101 56 t-68 100t-25 149.5zM242 348q0 -106 38 -155.5t134 -49.5q45 0 89 32t79.5 91.5t61.5 144.5t36 193q-51 0 -66.5 23.5t-15.5 60.5q0 53 24.5 76.5t63.5 28.5q-8 72 -40 100.5t-83 28.5t-95 -29t-80 -75t-63.5 -106.5t-46 -124t-27.5 -126t-9 -113.5zM295 1315 q0 45 30.5 76.5t75.5 31.5t77 -31.5t32 -76.5t-32 -76t-77 -31t-75.5 31t-30.5 76zM631 1315q0 45 30.5 76.5t75.5 31.5t77 -31.5t32 -76.5t-32 -76t-77 -31t-75.5 31t-30.5 76z" />
<glyph unicode="&#xf7;" horiz-adv-x="860" d="M23 440l32 144h717l-31 -144h-718zM242 137q0 55 38.5 96t96.5 41q55 0 96 -40.5t41 -96.5q0 -57 -41 -96t-96 -39q-57 0 -96 39t-39 96zM365 877q0 55 38.5 96t96.5 41q55 0 96 -41t41 -96q0 -57 -41 -96.5t-96 -39.5q-57 0 -96 39.5t-39 96.5z" />
<glyph unicode="&#xf8;" horiz-adv-x="858" d="M16 311q0 57 10.5 131t33 152t60.5 153.5t93 136t130 101.5t173 47l43 207h107l-45 -213q86 -23 123.5 -102.5t39.5 -212.5q10 -4 37 -4q35 0 77 12t83 30.5t78 41t61 43.5l19 -56q-57 -66 -152.5 -109.5t-206.5 -58.5q-8 -127 -40.5 -235.5t-85 -190.5t-123 -133 t-156.5 -61l-43 -201h-107l43 203q-111 16 -181.5 91t-70.5 228zM242 348q0 -106 38 -155.5t134 -49.5q45 0 89 32t79.5 91.5t61.5 144.5t36 193q-51 0 -66.5 23.5t-15.5 60.5q0 53 24.5 76.5t63.5 28.5q-8 72 -40 100.5t-83 28.5t-95 -29t-80 -75t-63.5 -106.5t-46 -124 t-27.5 -126t-9 -113.5z" />
<glyph unicode="&#xf9;" horiz-adv-x="929" d="M20 262q0 49 13 105l139 657h207l-150 -696q-8 -33 -8 -68q0 -59 26.5 -88t65.5 -29q59 0 122 58.5t85 165.5l139 657h207l-149 -696q-10 -41 -10 -92q0 -35 12 -64t51 -29q49 0 99.5 59.5t95.5 164.5h75q-49 -129 -98 -204t-95 -114t-88 -50t-75 -11q-66 0 -111 46 t-53 150q-59 -104 -132 -150t-142 -46q-47 0 -88 19.5t-72 54t-48.5 86t-17.5 114.5zM326 1536h174l63 -387h-112z" />
<glyph unicode="&#xfa;" horiz-adv-x="929" d="M20 262q0 49 13 105l139 657h207l-150 -696q-8 -33 -8 -68q0 -59 26.5 -88t65.5 -29q59 0 122 58.5t85 165.5l139 657h207l-149 -696q-10 -41 -10 -92q0 -35 12 -64t51 -29q49 0 99.5 59.5t95.5 164.5h75q-49 -129 -98 -204t-95 -114t-88 -50t-75 -11q-66 0 -111 46 t-53 150q-59 -104 -132 -150t-142 -46q-47 0 -88 19.5t-72 54t-48.5 86t-17.5 114.5zM465 1149l186 387h174l-247 -387h-113z" />
<glyph unicode="&#xfb;" horiz-adv-x="929" d="M20 262q0 49 13 105l139 657h207l-150 -696q-8 -33 -8 -68q0 -59 26.5 -88t65.5 -29q59 0 122 58.5t85 165.5l139 657h207l-149 -696q-10 -41 -10 -92q0 -35 12 -64t51 -29q49 0 99.5 59.5t95.5 164.5h75q-49 -129 -98 -204t-95 -114t-88 -50t-75 -11q-66 0 -111 46 t-53 150q-59 -104 -132 -150t-142 -46q-47 0 -88 19.5t-72 54t-48.5 86t-17.5 114.5zM264 1149l412 342h43l125 -342h-45l-133 207l-332 -207h-70z" />
<glyph unicode="&#xfc;" horiz-adv-x="929" d="M20 262q0 49 13 105l139 657h207l-150 -696q-8 -33 -8 -68q0 -59 26.5 -88t65.5 -29q59 0 122 58.5t85 165.5l139 657h207l-149 -696q-10 -41 -10 -92q0 -35 12 -64t51 -29q49 0 99.5 59.5t95.5 164.5h75q-49 -129 -98 -204t-95 -114t-88 -50t-75 -11q-66 0 -111 46 t-53 150q-59 -104 -132 -150t-142 -46q-47 0 -88 19.5t-72 54t-48.5 86t-17.5 114.5zM293 1315q0 45 30.5 76.5t75.5 31.5t77 -31.5t32 -76.5t-32 -76t-77 -31t-75.5 31t-30.5 76zM629 1315q0 45 30.5 76.5t75.5 31.5t77 -31.5t32 -76.5t-32 -76t-77 -31t-75.5 31t-30.5 76z " />
<glyph unicode="&#xfd;" horiz-adv-x="929" d="M20 262q0 49 13 105l139 657h207l-150 -696q-8 -33 -8 -68q0 -59 26.5 -88t65.5 -29q27 0 58.5 13.5t60.5 41t52.5 69.5t35.5 100l139 657h205l-209 -983q55 18 101.5 41.5t83.5 61.5t67.5 91.5t57.5 131.5h75q-37 -109 -76.5 -177.5t-89 -112.5t-107.5 -68.5t-128 -41.5 l-27 -131q-23 -111 -50 -178.5t-61 -105t-75 -51t-92 -13.5q-94 0 -159.5 42t-65.5 142q0 51 29.5 95.5t76.5 83t105.5 69.5t115.5 53l27 129q-51 -59 -107.5 -86.5t-109.5 -27.5q-47 0 -88 19.5t-72 54t-48.5 86t-17.5 114.5zM188 -326q0 -35 19.5 -57.5t56.5 -22.5 q57 0 88 66t54 172l14 66q-115 -49 -173.5 -108.5t-58.5 -115.5zM463 1149l186 387h174l-248 -387h-112z" />
<glyph unicode="&#xfe;" horiz-adv-x="968" d="M-154 -512l320 1505q25 111 24 191q0 72 -20 130t-68 120h48q41 -29 79.5 -61t69.5 -77t49.5 -107.5t18.5 -148.5q0 -23 -2.5 -48t-6.5 -52q47 41 105.5 67.5t128.5 26.5q53 0 98 -18.5t78 -59.5t51.5 -105.5t18.5 -158.5q0 -66 -10.5 -143.5t-33 -156.5t-60.5 -151.5 t-93 -129t-129 -90t-168 -33.5q-53 0 -94 26.5t-70 71.5l-114 -545zM203 188q23 -37 53.5 -53t54.5 -16q92 0 153.5 62.5t99.5 151.5t54.5 186t16.5 169q0 61 -12.5 102t-33 66t-44.5 35t-51 10q-45 0 -85 -25.5t-75 -70.5z" />
<glyph unicode="&#xff;" horiz-adv-x="929" d="M20 262q0 49 13 105l139 657h207l-150 -696q-8 -33 -8 -68q0 -59 26.5 -88t65.5 -29q59 0 122 58.5t85 165.5l139 657h205l-209 -983q55 18 101.5 41.5t83.5 61.5t67.5 91.5t57.5 131.5h75q-37 -109 -76.5 -177.5t-89 -112.5t-107.5 -68.5t-128 -41.5l-27 -131 q-23 -111 -50 -178.5t-61 -105t-75 -51t-92 -13.5q-94 0 -159.5 42t-65.5 142q0 51 29.5 95.5t76.5 83t105.5 69.5t115.5 53l27 129q-51 -59 -107.5 -86.5t-109.5 -27.5q-47 0 -88 19.5t-72 54t-48.5 86t-17.5 114.5zM188 -326q0 -35 19.5 -57.5t56.5 -22.5q57 0 88 66 t54 172l14 66q-115 -49 -173.5 -108.5t-58.5 -115.5zM299 1315q0 45 30.5 76.5t76.5 31.5q45 0 76.5 -31.5t31.5 -76.5t-31.5 -76t-76.5 -31t-76 31t-31 76zM635 1315q0 45 30.5 76.5t75.5 31.5t77 -31.5t32 -76.5t-32 -76t-77 -31t-75.5 31t-30.5 76z" />
<glyph unicode="&#x152;" horiz-adv-x="1769" d="M111 977q0 106 68.5 207.5t182 179.5t261 125t303.5 47q70 0 128 -10t107 -29q49 16 104.5 27.5t127.5 11.5q53 0 97 -4t87 -8t87 -8.5t95 -4.5t97.5 5.5t89.5 19.5q-18 -72 -43 -114t-53.5 -63.5t-62.5 -28.5t-69 -7q-100 0 -203.5 23.5t-201.5 39.5q57 -68 82.5 -162 t25.5 -206q0 -84 -12 -172h264l-28 -121h-259q-35 -162 -110.5 -317.5t-198.5 -264.5h559l-30 -143h-811q-59 -12 -123 -12q-84 0 -152.5 22.5t-118 71.5t-76 127t-26.5 190q0 82 15.5 185.5t46 211t76.5 209t108.5 180.5t139.5 127t171 48q23 0 49.5 -3.5t55.5 -13.5 q-53 -29 -105.5 -88t-98.5 -139t-85 -173t-68 -189.5t-44 -190.5t-15 -172q0 -117 40 -182.5t140 -65.5q84 0 167 86t149.5 223.5t107.5 308.5t41 343q0 94 -15.5 162.5t-51.5 111.5t-96 63.5t-150 20.5q-115 0 -222.5 -38t-191.5 -108.5t-135.5 -172t-51.5 -225.5 q0 -53 4.5 -75t16.5 -38q-88 0 -137 39t-49 133z" />
<glyph unicode="&#x153;" horiz-adv-x="1380" d="M16 311q0 59 10.5 135t35 157t64.5 158t100.5 138.5t140.5 98t186 36.5q104 0 158.5 -62.5t68.5 -180.5q59 102 152.5 172.5t226.5 70.5q43 0 82 -9t69.5 -32.5t49 -64.5t18.5 -105q0 -174 -132 -281.5t-369 -131.5q-2 -16 -2.5 -32t-0.5 -32q0 -104 40 -153.5t139 -49.5 q98 0 194 51.5t176 172.5h66q-41 -76 -98.5 -144.5t-127 -121t-148.5 -83t-161 -30.5q-96 0 -178 49t-110 162q-59 -98 -142.5 -154.5t-187.5 -56.5q-68 0 -126 17.5t-101 56t-68 100t-25 149.5zM242 348q0 -106 38 -155.5t134 -49.5q45 0 89 32t79.5 91.5t61.5 144.5 t36 193q-51 0 -66.5 23.5t-15.5 60.5q0 53 24.5 76.5t63.5 28.5q-8 72 -40 100.5t-83 28.5t-95 -29t-80 -75t-63.5 -106.5t-46 -124t-27.5 -126t-9 -113.5zM887 489q172 25 274.5 118t102.5 233q0 35 -18.5 64.5t-67.5 29.5q-57 0 -105.5 -40t-85.5 -103.5t-62.5 -142.5 t-37.5 -159z" />
<glyph unicode="&#x178;" horiz-adv-x="1257" d="M121 993q0 109 48 207t131 173t194.5 119t238.5 44q23 0 43.5 -1t40.5 -3l193 -797l329 791h95l-398 -895l-135 -631h-223l135 631l-213 831q-92 -25 -158.5 -74t-108.5 -112.5t-62.5 -136t-20.5 -140.5q0 -119 49 -194q-84 0 -131 42t-47 146zM836 1827q0 45 30.5 76.5 t75.5 31.5t77 -31.5t32 -76.5t-32 -76t-77 -31t-75.5 31t-30.5 76zM1171 1827q0 45 31 76.5t76 31.5t76.5 -31.5t31.5 -76.5t-31.5 -76t-76.5 -31t-76 31t-31 76z" />
<glyph unicode="&#x2c6;" horiz-adv-x="600" d="M10 1149l412 342h43l125 -342h-45l-133 207l-332 -207h-70z" />
<glyph unicode="&#x2dc;" horiz-adv-x="825" d="M90 1200q45 90 124 135t183 45q51 0 90 -9t74 -20.5t68 -20.5t73 -9q35 0 66 10t51 31h10q-8 -33 -35.5 -65.5t-68.5 -59.5t-91 -43t-102 -16q-45 0 -84.5 10t-76.5 23.5t-74 23.5t-74 10q-72 0 -123 -49z" />
<glyph unicode="&#x2000;" horiz-adv-x="1024" />
<glyph unicode="&#x2001;" horiz-adv-x="2048" />
<glyph unicode="&#x2002;" horiz-adv-x="1024" />
<glyph unicode="&#x2003;" horiz-adv-x="2048" />
<glyph unicode="&#x2004;" horiz-adv-x="682" />
<glyph unicode="&#x2005;" horiz-adv-x="512" />
<glyph unicode="&#x2006;" horiz-adv-x="341" />
<glyph unicode="&#x2007;" horiz-adv-x="341" />
<glyph unicode="&#x2008;" horiz-adv-x="256" />
<glyph unicode="&#x2009;" horiz-adv-x="409" />
<glyph unicode="&#x200a;" horiz-adv-x="113" />
<glyph unicode="&#x2010;" horiz-adv-x="657" d="M84 473l33 143h409l-30 -143h-412z" />
<glyph unicode="&#x2011;" horiz-adv-x="657" d="M84 473l33 143h409l-30 -143h-412z" />
<glyph unicode="&#x2012;" horiz-adv-x="657" d="M84 473l33 143h409l-30 -143h-412z" />
<glyph unicode="&#x2013;" horiz-adv-x="780" d="M84 473l33 143h532l-31 -143h-534z" />
<glyph unicode="&#x2014;" horiz-adv-x="964" d="M84 473l33 143h717l-31 -143h-719z" />
<glyph unicode="&#x2018;" horiz-adv-x="430" d="M186 1149q0 51 22.5 108.5t59.5 111.5t84 97t97 66q18 -12 18 -35q0 -25 -13.5 -49.5t-28.5 -49t-27.5 -48t-12.5 -45.5q0 -29 11.5 -41.5t23.5 -23.5t23.5 -30.5t11.5 -60.5q0 -68 -42 -102.5t-94 -34.5q-72 0 -102.5 42t-30.5 95z" />
<glyph unicode="&#x2019;" horiz-adv-x="423" d="M219 1047q0 25 12.5 49t27.5 48.5t28.5 48.5t13.5 46q0 29 -11 41t-23.5 23.5t-24 31t-11.5 60.5q0 68 42 102.5t94 34.5q72 0 102.5 -42t30.5 -95q0 -51 -22.5 -109.5t-59.5 -112t-84 -97.5t-96 -64q-18 12 -19 35z" />
<glyph unicode="&#x201a;" horiz-adv-x="434" d="M-37 -223q0 25 12.5 49t27.5 49t28.5 48.5t13.5 45.5q0 29 -11 41.5t-23.5 23.5t-24 30.5t-11.5 60.5q0 68 42 102.5t94 34.5q70 0 99.5 -34.5t29.5 -88.5q0 -51 -22.5 -111.5t-59.5 -116.5t-83 -102.5t-93 -66.5q-18 12 -19 35z" />
<glyph unicode="&#x201c;" horiz-adv-x="878" d="M186 1149q0 51 22.5 108.5t59.5 111.5t84 97t97 66q18 -12 18 -35q0 -25 -13.5 -49.5t-28.5 -49t-27.5 -48t-12.5 -45.5q0 -29 11.5 -41.5t23.5 -23.5t23.5 -30.5t11.5 -60.5q0 -68 -42 -102.5t-94 -34.5q-72 0 -102.5 42t-30.5 95zM635 1149q0 51 22.5 108.5t59.5 111.5 t84 97t96 66q18 -12 18 -35q0 -25 -13 -49.5t-28.5 -49t-27.5 -48t-12 -45.5q0 -29 11 -41.5t23.5 -23.5t23.5 -30.5t11 -60.5q0 -68 -42 -102.5t-93 -34.5q-72 0 -102.5 42t-30.5 95z" />
<glyph unicode="&#x201d;" horiz-adv-x="872" d="M219 1047q0 25 12.5 49t27.5 48.5t28.5 48.5t13.5 46q0 29 -11 41t-23.5 23.5t-24 31t-11.5 60.5q0 68 42 102.5t94 34.5q72 0 102.5 -42t30.5 -95q0 -51 -22.5 -109.5t-59.5 -112t-84 -97.5t-96 -64q-18 12 -19 35zM668 1047q0 25 12 49t27.5 48.5t29 48.5t13.5 46 q0 29 -11.5 41t-24 23.5t-23.5 31t-11 60.5q0 68 42 102.5t93 34.5q72 0 102.5 -42t30.5 -95q0 -51 -22.5 -109.5t-59.5 -112t-84 -97.5t-96 -64q-18 12 -18 35z" />
<glyph unicode="&#x201e;" horiz-adv-x="886" d="M-37 -223q0 25 12.5 49t27.5 49t28.5 48.5t13.5 45.5q0 29 -11 41.5t-23.5 23.5t-24 30.5t-11.5 60.5q0 68 42 102.5t94 34.5q70 0 99.5 -34.5t29.5 -88.5q0 -51 -22.5 -111.5t-59.5 -116.5t-83 -102.5t-93 -66.5q-18 12 -19 35zM416 -223q0 25 12 49t27.5 49t29 48.5 t13.5 45.5q0 29 -11.5 41.5t-23.5 23.5t-23.5 30.5t-11.5 60.5q0 68 42 102.5t93 34.5q70 0 99.5 -34.5t29.5 -88.5q0 -51 -22.5 -111.5t-59.5 -116.5t-83 -102.5t-93 -66.5q-18 12 -18 35z" />
<glyph unicode="&#x2022;" horiz-adv-x="526" d="M72 547q0 72 48 121t120 49t121 -49.5t49 -120.5q0 -72 -49.5 -120t-120.5 -48q-72 0 -120 48t-48 120z" />
<glyph unicode="&#x2026;" horiz-adv-x="1423" d="M-25 125q0 55 39 96t97 41q55 0 96 -41t41 -96q0 -57 -41 -96t-96 -39q-57 0 -96.5 39t-39.5 96zM461 125q0 55 39 96t96 41q55 0 96 -41t41 -96q0 -57 -41 -96t-96 -39q-57 0 -96 39t-39 96zM963 125q0 55 38.5 96t96.5 41q55 0 96 -41t41 -96q0 -57 -41 -96t-96 -39 q-57 0 -96 39t-39 96z" />
<glyph unicode="&#x202f;" horiz-adv-x="409" />
<glyph unicode="&#x2039;" horiz-adv-x="630" d="M16 520l443 400l86 -93l-359 -309l281 -287l-82 -90z" />
<glyph unicode="&#x203a;" horiz-adv-x="636" d="M35 233l358 310l-280 286l82 91l368 -379l-442 -400z" />
<glyph unicode="&#x205f;" horiz-adv-x="512" />
<glyph unicode="&#x20ac;" horiz-adv-x="1251" d="M41 602l22 82h158q8 74 25 154h-154l23 82h151q31 117 82 227t128 196.5t180.5 139.5t240.5 53q68 0 128 -15.5t106.5 -48t73 -85t26.5 -127.5q0 -78 -33 -132.5t-106 -54.5q-63 0 -91 37q14 8 30 28.5t29 49.5t21.5 62.5t8.5 68.5q0 74 -40 108.5t-110 34.5 q-84 0 -151.5 -44t-122 -118.5t-94.5 -173t-66 -206.5h432l-23 -82h-426q-16 -78 -24 -154h422l-23 -82h-405q-2 -27 -2 -51.5v-46.5q0 -76 10 -144.5t44 -121t97.5 -84t167.5 -31.5t183 32.5t145 98.5v-82q-35 -43 -87 -81t-114.5 -65.5t-134.5 -43t-147 -15.5 q-195 0 -303.5 122t-108.5 396v55.5t4 61.5h-172z" />
<glyph unicode="&#x2122;" horiz-adv-x="989" d="M217 1192q0 29 11.5 57.5t37 50t65.5 35t97 13.5q49 0 81 -7.5t71 -7.5q25 0 43 4t30 9q0 -72 -78 -72q-23 0 -47 5t-51 9l-84 -401h-67l88 411q-8 2 -25 2q-61 0 -95 -24.5t-34 -95.5q0 -23 4 -34t8 -18q-25 0 -40 13.5t-15 50.5zM569 887l164 446l62 6l-17 -358 l150 358h69l-63 -452h-72l45 319l-133 -319h-65l14 315l-117 -315h-37z" />
<glyph unicode="&#x25fc;" horiz-adv-x="1136" d="M0 0v1137h1137v-1137h-1137z" />
</font>
</defs>
</svg>
